<svg width="42" height="41" viewBox="0 0 42 41" fill="none" xmlns="http://www.w3.org/2000/svg">
<path d="M41.0212 18.1123C33.4057 10.8743 24.2167 13.9583 18.4893 6.97215C24.5943 4.45461 31.8322 5.08399 37.5596 9.04912C39.4478 11.7555 40.5807 14.8395 41.0212 18.1123ZM36.4267 7.60153C30.6993 4.32873 23.902 4.07698 18.1116 6.46864C16.4123 4.07698 16.0976 1.74825 16.0976 0.992989C23.1467 -0.832227 31.077 1.1818 36.4267 7.60153ZM7.09739 5.96513C9.42611 3.76228 12.2583 2.06294 15.4053 1.1818C15.4682 2.12588 15.8458 4.39167 17.5452 6.72039C15.4053 7.72741 13.4542 9.04912 11.7548 10.6855L7.09739 5.96513ZM6.59388 6.46864L11.2513 11.1261C9.48905 12.9513 8.04147 15.0283 7.03445 17.357C4.70573 15.6577 2.50288 15.28 1.5588 15.2171C2.50288 11.8813 4.26516 8.8603 6.59388 6.46864ZM1.43292 15.8465C2.18819 15.9094 4.45397 16.1612 6.7827 17.9864C4.45397 23.7767 4.89454 30.3853 8.04147 35.9239C2.377 31.1405 -0.392292 23.462 1.43292 15.8465ZM7.34914 18.427C14.5241 24.532 10.4961 32.5881 19.3704 40.5813C15.8458 40.2666 12.5101 39.0708 9.61493 37.1197C5.71274 31.5182 4.95748 24.532 7.34914 18.427ZM20.3774 40.6442C11.0625 32.9028 15.1535 24.0285 7.6009 17.7976C8.60791 15.4688 9.99256 13.3919 11.7548 11.6296L35.0421 34.9798C31.2028 38.6302 26.1048 40.7701 20.3774 40.6442ZM35.4827 34.4763L12.1954 11.1261C13.8318 9.55262 15.7829 8.23092 17.9228 7.28684C23.9649 14.9024 33.7204 11.3149 41.0842 19.1822C41.4618 25.0984 39.3219 30.5111 35.4827 34.4763Z" fill="black"/>
</svg>
