<svg width="50" height="55" viewBox="0 0 50 55" fill="none" xmlns="http://www.w3.org/2000/svg">
<path d="M31.1058 41.7037C30.381 43.9695 30.7926 45.7889 33.6443 47.0511C36.997 48.5356 40.1316 50.5299 43.2903 52.4209C43.8852 52.7771 44.1492 53.6858 44.5658 54.3395C43.7515 54.4731 42.8172 54.9335 42.1404 54.6874C37.5536 53.0195 32.9649 51.328 28.5117 49.3419C27.449 48.8679 26.3612 47.3203 26.2062 46.1446C25.6587 41.9901 25.4965 37.7834 25.2156 33.5942C25.0893 31.7016 25.6988 30.144 27.668 29.5952C29.5524 29.0701 30.7618 30.1006 31.607 31.6895C32.8942 34.1097 34.2584 36.4922 35.4564 38.9556C36.1843 40.4528 37.0486 41.3408 38.8575 41.5661C41.9937 41.9569 45.0967 42.6581 48.1845 43.3573C48.7665 43.4891 49.2135 44.2173 49.7227 44.6701C49.1109 44.9895 48.4973 45.5871 47.8876 45.5826C43.9466 45.557 39.9525 45.7427 36.0903 45.1334C34.316 44.8538 32.8014 42.9285 31.1058 41.7037Z" fill="#0C1971"/>
<path d="M31.0488 15.1098C34.5998 14.2452 38.5092 13.8782 38.7229 9.97512C37.1073 8.40281 35.4474 7.39935 34.7277 5.93415C33.7871 4.01973 34.8251 2.2433 36.7558 1.28953C38.5358 0.410303 40.5447 1.21934 41.529 3.06273C42.5132 4.90612 43.0792 6.77955 41.9525 8.79042C41.7466 9.15808 41.5904 9.58092 41.5253 9.99618C40.6409 15.6301 36.7296 18.3026 31.7008 20.0099C31.5013 18.5102 31.3026 17.0172 31.0488 15.1098Z" fill="#0C1971"/>
<path d="M28.546 19.799C25.9938 23.4518 24.0915 27.2113 21.2202 29.9568C18.9116 32.1649 15.4468 33.1812 12.4514 34.6357C11.96 34.8743 11.2421 34.6497 10.6289 34.6393C10.8278 33.9805 10.8184 33.053 11.2618 32.7092C13.1483 31.2457 15.1084 29.8539 17.1593 28.6323C18.8689 27.6136 19.9652 26.3474 20.4739 24.3744C21.0046 22.3172 21.6348 20.2025 22.709 18.404C23.2391 17.5165 24.9461 16.7615 25.9744 16.9159C26.8501 17.049 27.5167 18.5699 28.546 19.799Z" fill="#0C1971"/>
<path d="M10.4443 12.493L12.6266 5.0655H2.2572C2.96686 7.54764 3.69265 10.0871 4.41915 12.6263L3.46579 12.8974C2.50653 9.52804 1.46009 6.17875 0.685438 2.76825C0.571304 2.26511 1.71419 0.93581 2.32964 0.899029C5.68656 0.69856 9.06734 0.668799 12.4234 0.867302C13.0775 0.906049 14.2906 2.35411 14.1662 2.90962C13.4143 6.25708 12.3483 9.53478 11.3875 12.8345L10.4443 12.493ZM13.1537 2.67616C10.1298 0.322049 3.85354 0.479982 1.86412 2.83002C4.6018 4.93957 10.3336 4.92736 13.1538 2.67616H13.1537Z" fill="#0C1971"/>
<path d="M30.6751 10.8515C30.6399 12.8193 29.187 14.3728 27.3439 14.4124C25.4627 14.4529 23.8494 12.7203 23.8833 10.6947C23.9165 8.71038 25.3455 7.21809 27.2433 7.18608C29.2469 7.15225 30.7133 8.71852 30.6751 10.8515Z" fill="#0C1971"/>
</svg>
