<svg width="150" height="150" viewBox="0 0 150 150" fill="none" xmlns="http://www.w3.org/2000/svg">
<circle cx="74.8448" cy="74.9966" r="74.4227" fill="#2A3BAF"/>
<path d="M76.2455 84.5085C72.7955 89.5345 69.4817 94.1683 66.3888 98.9451C64.4162 101.992 61.9742 102.722 58.5765 101.723C48.7822 98.8421 38.9106 96.2175 29.1638 93.1885C27.5628 92.6906 26.4389 90.6568 25.0947 89.3315C26.9126 88.7853 28.81 87.5903 30.535 87.804C38.3562 88.774 46.146 89.9859 53.9043 91.4396C57.5455 92.1296 59.3544 91.3866 60.5653 87.6198C62.3123 82.1795 64.6306 76.8921 67.0822 71.718C70.2269 65.0806 75.725 64.5323 80.7572 69.8497C95.2543 85.1679 103.046 104.293 111.147 123.23C111.611 124.314 110.718 125.98 110.457 127.374C109.226 126.61 107.542 126.133 106.842 125.031C103.575 119.89 100.582 114.575 97.4856 109.326C94.7538 104.694 92.5546 99.6096 89.1262 95.5666C85.702 91.5285 81.047 88.5356 76.2455 84.5085Z" fill="#0C1971"/>
<path d="M74.3244 36.1444C75.8758 37.9551 78.6995 39.8027 78.9747 41.9732C79.2586 44.2135 77.5358 47.2213 75.7952 49.0323C74.5351 50.3435 71.8355 50.5877 69.739 50.727C58.3807 51.482 48.3513 55.9082 38.567 61.3156C36.5722 62.418 33.8563 62.2158 31.4729 62.616C32.9059 60.8172 34.0752 58.6926 35.8182 57.2739C45.7312 49.2064 56.6624 42.832 68.6138 38.2486C70.1049 37.6756 71.6109 37.1422 74.3244 36.1444Z" fill="#0C1971"/>
<path d="M89.065 44.1146C90.0644 44.6719 90.8 44.8723 91.219 45.3494C98.5111 53.6542 108.363 57.1816 118.555 60.0904C119.582 60.3824 120.758 60.5721 121.534 61.2114C122.337 61.8725 122.735 63.0242 123.309 63.9613C122.42 64.3678 121.44 65.2568 120.656 65.108C110.186 63.1176 99.2611 62.6354 89.945 56.6548C88.7627 55.8959 87.9857 53.7091 87.9416 52.1561C87.8731 49.7051 88.5836 47.2318 89.065 44.1146Z" fill="#0C1971"/>
<path d="M94.7445 29.7733C94.7506 34.3065 91.0266 38.2182 86.7465 38.1744C82.4448 38.1304 78.7663 34.212 78.8075 29.7168C78.8494 25.1058 82.4432 21.3398 86.8004 21.3398C91.1293 21.3398 94.7382 25.1719 94.7445 29.7733Z" fill="#0C1971"/>
<path d="M89.4998 129.165C85.0011 129.277 81.3089 125.654 81.267 121.086C81.225 116.518 84.8801 112.743 89.3223 112.768C93.6745 112.793 96.9522 116.094 97.1435 120.643C97.3423 125.377 94.0463 129.052 89.4998 129.165Z" fill="#0C1971"/>
</svg>
