<svg width="1032" height="545" viewBox="0 0 1032 545" fill="none" xmlns="http://www.w3.org/2000/svg">
<path d="M462.097 274.747L447.967 310.333L397.728 346.966L426.51 364.759L477.273 387.262L505.009 302.483L462.097 274.747Z" fill="#EDEDED"/>
<path d="M330.219 244.917L282.073 277.363L352.199 341.732L390.402 346.442L441.688 309.286L452.678 269.513L406.102 244.917H330.219Z" fill="#EDEDED"/>
<path d="M150.718 138.682L130.832 175.314L90.0121 162.755L31.9229 208.807L5.23326 270.037L0 304.053L101.002 350.629L122.982 408.718L162.571 424.098L275.793 275.27L323.939 241.777L296.203 178.978L232.88 149.148L150.718 138.682Z" fill="#EDEDED"/>
<path d="M299.866 173.222L237.066 143.916L254.859 101.526L334.405 48.1468L403.484 8.89733L446.92 3.66406L433.837 113.563L328.125 143.916L299.866 173.222Z" fill="#EDEDED"/>
<path d="M619.095 0L453.201 4.18661L441.688 110.945H535.886L596.069 107.282L624.328 36.6328L619.095 0Z" fill="#EDEDED"/>
<path d="M734.749 36.633L703.349 4.18672L624.327 0.523438L628.514 36.633L601.301 108.329L620.141 113.039L652.587 184.734L791.268 143.392L749.925 113.039L734.749 36.633Z" fill="#EDEDED"/>
<path d="M794.409 148.625L655.204 189.444L746.786 338.069L816.389 347.488L819.529 331.789L804.875 180.547L794.409 148.625Z" fill="#EDEDED"/>
<path d="M330.742 147.055L433.314 119.842L428.08 202.528L407.147 241.254L330.742 237.067L305.099 177.932L330.742 147.055Z" fill="#EDEDED" stroke="#EDEDED" stroke-width="3"/>
<path d="M529.606 118.795H441.687L433.837 201.48L444.827 197.817L523.326 193.631L529.606 118.795Z" fill="#EDEDED"/>
<path d="M596.591 111.992L537.455 117.225L528.035 195.201L596.591 215.087L647.877 187.874L616.477 117.225L596.591 111.992Z" fill="#EDEDED"/>
<path d="M648.925 193.631L597.115 220.844L615.432 287.83L619.095 303.529L737.89 334.929L648.925 193.631Z" fill="#EDEDED"/>
<path d="M523.85 198.864L447.968 203.574L535.887 241.253L548.97 203.574L523.85 198.864Z" fill="#EDEDED"/>
<path d="M611.245 288.353L539.55 251.197L555.773 209.331L592.406 219.274L611.245 288.353Z" fill="#EDEDED"/>
<path d="M442.734 205.145L433.315 209.854L415.521 245.441L465.237 268.99L508.674 299.867L531.7 245.441L442.734 205.145Z" fill="#EDEDED"/>
<path d="M598.687 353.245L619.62 309.809L740.508 342.255L818.484 353.245L805.924 410.811L818.484 425.988L848.313 376.272L866.106 382.028L951.932 362.665L1032 398.775L1026.77 477.797L1006.88 525.943H903.786L876.049 497.683L834.183 491.927L765.104 458.434L707.538 481.983L598.687 353.245Z" fill="#EDEDED"/>
<path d="M537.979 256.43L514.43 303.006L595.022 348.012L613.338 306.669L609.675 293.586L537.979 256.43Z" fill="#EDEDED"/>
<path d="M348.535 345.918L276.84 281.026L165.895 426.511H185.781L203.574 458.433L240.73 444.304L324.462 481.46L419.184 368.421L388.832 352.198L348.535 345.918Z" fill="#EDEDED"/>
<path d="M500.3 404.531L428.081 373.655L330.742 486.17L379.935 501.346L459.48 536.933L507.626 544.259L500.3 404.531Z" fill="#EDEDED"/>
<path d="M604.441 366.329L546.875 414.475L507.626 406.101L514.429 541.643L550.539 526.99L564.145 541.643L596.591 536.933L700.733 481.46L604.441 366.329Z" fill="#EDEDED"/>
<path d="M481.982 391.447L513.905 307.192L590.834 351.151L599.208 361.618L541.118 407.671L502.915 399.821L481.982 391.447Z" fill="#EDEDED"/>
</svg>
