<svg id="map" className="map_svg" viewBox="0 0 385 204" fill="none" xmlns="http://www.w3.org/2000/svg">
        <g className="arrondissement" id="2" data-affluence={affluence[2]} onClick={ event => zoom(event)}>
          <path d="M195.429 74.1885L167.12 75.9456L199.919 90.0024L204.8 75.9456L195.429 74.1885Z" fill="#EDEDED"/>
          <path className="number" d="M197.041 85.1704H192.168V84.2036L194.468 81.7524C194.784 81.4074 195.016 81.1063 195.166 80.8491C195.319 80.592 195.396 80.3478 195.396 80.1167C195.396 79.8009 195.316 79.5535 195.156 79.3745C194.997 79.1922 194.769 79.1011 194.473 79.1011C194.154 79.1011 193.901 79.2118 193.716 79.4331C193.534 79.6512 193.442 79.9393 193.442 80.2974H192.026C192.026 79.8644 192.129 79.4689 192.334 79.1108C192.542 78.7528 192.835 78.4728 193.213 78.271C193.59 78.0659 194.019 77.9634 194.497 77.9634C195.229 77.9634 195.798 78.1392 196.201 78.4907C196.608 78.8423 196.812 79.3387 196.812 79.98C196.812 80.3315 196.72 80.6896 196.538 81.0542C196.356 81.4188 196.043 81.8436 195.601 82.3286L193.984 84.0327H197.041V85.1704Z" fill="white"/>
        </g>
      </svg>