<svg xmlns="http://www.w3.org/2000/svg" viewBox="0 0 93.7 81.4"><defs><style>.cls-1{fill:#fff;}</style></defs><title>access-1-white</title><g id="Calque_2" data-name="Calque 2"><g id="Calque_1-2" data-name="Calque 1"><g id="Calque_2-2" data-name="Calque 2"><g id="Calque_1-2-2" data-name="Calque 1-2"><path class="cls-1" d="M77.6,31.1l-5.5,13c1,.9,1.9,1.7,2.6,2.4l6-14.1.3-.8v-.1a17.13,17.13,0,0,0,.9-5.5,16.1,16.1,0,0,0-32.2,0v3H53l.1-3.4a12.8,12.8,0,1,1,25.6.4h0a12.59,12.59,0,0,1-.7,4.3Z"/><path class="cls-1" d="M65.7,2.1a24.07,24.07,0,0,0-24,24h3.4a20.6,20.6,0,1,1,41.2,0A19.69,19.69,0,0,1,85,33.3l-.1.3L69.7,69l-.5,1A12.9,12.9,0,0,1,58,76.4a13.27,13.27,0,0,1-10.4-5.2,33.9,33.9,0,0,1-3.4,1,16.34,16.34,0,0,0,27.9-.5l.7-1.3L88.1,34.9l.2-.4A24,24,0,0,0,65.7,2.1Z"/><path class="cls-1" d="M43.8,69a48.85,48.85,0,0,0,6.3-1.6L55.5,62,69,48.5c.8.7,1.5,1.3,2,1.8l-4.9,4.9-9.4,9.4a72.61,72.61,0,0,0,7.1-4.1,54.09,54.09,0,0,0,7.5-5.9A4.44,4.44,0,0,0,72,54c1.5-1.4,2.3-2.3,2.4-2.4l.4-.5.5-.5-.9-1A15.42,15.42,0,0,0,73,48.2l-.2-.2c-.5-.5-1.1-1-1.8-1.7-.4-.3-.8-.7-1.3-1.1a14,14,0,0,0-1.3-1c-.5-.4-1.1-.9-1.7-1.3a1.31,1.31,0,0,0-.4-.3c-.9-.6-1.8-1.3-2.7-1.9h0c-.7-.5-1.5-1-2.2-1.4-1-.6-2-1.2-3-1.7a22.56,22.56,0,0,0-2.2-1.1L70.3,22.4l-3.7-3L51.4,34.5a40.64,40.64,0,0,0-13.8-2.6,39.67,39.67,0,0,0-14.4,2.8,56.1,56.1,0,0,0-11.6,6.1A67.51,67.51,0,0,0,.9,49.7l-.9,1,.9,1a67.51,67.51,0,0,0,10.7,8.9c.9.6,1.9,1.2,2.8,1.8a54.3,54.3,0,0,0,5.9,3.1L4.6,81.4h6.9L25.4,67.5,28.9,64l2.7-2.7,2.1-2.1L46,46.9l2.1-2.1,2.7-2.7L52.9,40,54,38.9A22.56,22.56,0,0,1,56.2,40l-2.1,2.1-2.2,2.2L31,65.2l-3.1,3.1c1.3.3,2.6.6,3.9.8l2.7-2.7L53.2,47.7l2.4-2.4,3.7-3.7c.7.4,1.5.9,2.2,1.4l-5.2,5.2-2.7,2.7L37.9,66.6l-2.8,2.8c.4,0,.9.1,1.3.1h1.3a12.13,12.13,0,0,0,2-.1l4-4,8.6-8.6,4-4,7.9-7.9c.6.4,1.1.8,1.6,1.2a.78.78,0,0,1,.4.4l-11,11.1ZM37.3,34.8h.8a15.78,15.78,0,0,1,9.5,3.5L44.9,41a12.23,12.23,0,0,0-19.5,9.8v.7a11.82,11.82,0,0,0,2.4,6.6l-2.7,2.7a16.15,16.15,0,0,1-3-6,17.39,17.39,0,0,1-.5-4A16.26,16.26,0,0,1,37.3,34.8ZM16.7,60.3c-1.1-.6-2.2-1.3-3.3-2a77,77,0,0,1-9.3-7.5,66.81,66.81,0,0,1,9.2-7.5,50.29,50.29,0,0,1,11-5.8h0a18.73,18.73,0,0,0-5.5,13.3,19,19,0,0,0,1.1,6.3,18,18,0,0,0,3.3,5.7l-.6.5A36.36,36.36,0,0,1,16.7,60.3ZM30,55.9a9.46,9.46,0,0,1-1.6-5.2,6.86,6.86,0,0,1,.4-2.5,9.24,9.24,0,0,1,8.9-6.7,9.46,9.46,0,0,1,5.2,1.6Z"/><path class="cls-1" d="M84.9,8.8,93.7,0H86.8L81.2,5.6A18.84,18.84,0,0,1,84.9,8.8Z"/></g></g></g></g></svg>