<svg xmlns="http://www.w3.org/2000/svg" viewBox="0 0 80 86"><defs><style>.cls-1,.cls-2{fill:#fff;}.cls-1{fill-rule:evenodd;}</style></defs><title>acess-2-white</title><g id="Calque_2" data-name="Calque 2"><g id="Calque_1-2" data-name="Calque 1"><g id="Calque_2-2" data-name="Calque 2"><g id="Calque_1-2-2" data-name="Calque 1-2"><path class="cls-1" d="M30.23,19.13a5.39,5.39,0,0,1,6.44,4.08v0L41.13,43.3H63.8A5.43,5.43,0,0,1,68.49,46l10.8,18.9a5.4,5.4,0,0,1-9.38,5.36L60.67,54.1H36.8a5.4,5.4,0,0,1-5.27-4.23l-5.4-24.3A5.4,5.4,0,0,1,30.23,19.13Z"/><path class="cls-1" d="M28.7,32.5a5.4,5.4,0,0,1,5.4-5.4H44.9a5.4,5.4,0,0,1,0,10.8H34.1A5.4,5.4,0,0,1,28.7,32.5Z"/><circle class="cls-2" cx="29" cy="8" r="8"/><path class="cls-1" d="M23.07,37a16.22,16.22,0,0,0-1.75.8A19.81,19.81,0,0,0,10.76,55.45,19.54,19.54,0,0,0,30.06,75.2,19.37,19.37,0,0,0,48.63,60.86L59,63.76A30.15,30.15,0,0,1,30.06,86C13.38,86,0,72.24,0,55.45a30.62,30.62,0,0,1,16.36-27.2c.89-.46,1.81-.88,2.74-1.25Z"/></g></g></g></g></svg>