<svg xmlns="http://www.w3.org/2000/svg" viewBox="0 0 2913.83 5632.35"><defs><style>.cls-1{fill:#fff;}</style></defs><title>activites-de-forme-et-de-sante-white</title><g id="Calque_2" data-name="Calque 2"><g id="Calque_1-2" data-name="Calque 1"><g id="Calque_2-2" data-name="Calque 2"><g id="Calque_1-2-2" data-name="Calque 1-2"><path class="cls-1" d="M2524.2,4948.92c0-7.45-.17-14.91,0-22.36,14.87-581.29,13.61-578-527.52-789.5-113.83-44.48-188.64-45.34-263.68,63.5-392.86,569.85-951.32,959.75-1500.08,1358C172.82,5602.17,78.47,5598.64,0,5617c23.85-80.95,35.19-168.87,75.31-240.73,34.92-62.5,99.13-110.68,156-158.61,485.13-409.25,853.11-904.42,1133.9-1474.2,186.4-378.24,304.49-396.5,668.1-177.89,236.31,142.07,466.24,295.33,707.05,429.16,157.06,87.29,194.34,199.36,163.57,369.58-63.58,351.82-105.44,707.57-168.75,1059.45-13.39,74.48-80.39,139.31-122.69,208.59-33.65-71.3-89.23-140.48-96.38-214.34-15-155.06-4.56-312.57-4.56-469.09Z"/><path class="cls-1" d="M1277.43,611.43c17-353,302.36-625.92,638.7-610.83,335.76,15.05,599.1,312.4,587.57,663.34-12,364.26-304.8,643.14-651.12,620.08C1514,1261.48,1260.39,964.9,1277.43,611.43Z"/><path class="cls-1" d="M1724.73,1385.47l275.16,21.66c21.28,329.14,46.21,647.39,60.72,966.12,7.91,173.89-73.15,296.64-260.68,287.34-192.87-9.56-246.42-147.81-222.89-316.53C1621.12,2028.12,1673.72,1713.36,1724.73,1385.47Z"/><path class="cls-1" d="M2452.8,1853c175.11,12.58,272.55,105.86,287.1,278,14.43,170.81-107.44,306.86-271.06,311.9-159.55,4.93-301.1-131.66-290.41-296.84C2189.19,1979.67,2279,1873.7,2452.8,1853Z"/></g></g></g></g></svg>