<svg xmlns="http://www.w3.org/2000/svg" viewBox="0 0 2538.1 4014.83"><defs><style>.cls-1{fill:#fff;}</style></defs><title>aikido-white</title><g id="Calque_2" data-name="Calque 2"><g id="Calque_1-2" data-name="Calque 1"><g id="Calque_2-2" data-name="Calque 2"><g id="Calque_1-2-2" data-name="Calque 1-2"><g id="Calque_2-2-2" data-name="Calque 2-2"><g id="Calque_1-2-2-2" data-name="Calque 1-2-2"><path class="cls-1" d="M2224.3,3996.41c-197-59-396.83-83.2-414.85-355-12-181-103.58-365-192.91-529.56-55.5-102.25-173.34-170.67-301.85-290.23,68.37,445.26-252.53,668.33-343.19,976.32l-256.07,20.37q-2.35,25.91-4.69,51.82l220.38,105-10,39.7H439.67c104.91-261.46,196.89-510,304.82-751.49,54.32-121.55,47-205.2-43-311.34-147.41-173.94-290.81-331-585.32-255.54,78.21-186.74,132.34-331.46,200.83-469,17.49-35.16,80-66.57,122.53-67.55,261.07-6.06,522.4-5,783.54-.56,41.47.71,86.12,24.9,122.76,48.43,54.67,35.11,98.67,88.7,155.64,118.1,419.75,216.59,579.85,590.3,631.7,1030.82,5.19,44.05,20.47,116.55.77,129.4-254.66,166.14-60.78,285.42,36.64,416.27C2192,3931.09,2206.57,3964.91,2224.3,3996.41Z"/><path class="cls-1" d="M1086.14,1117V625.85c466,86.28,836.08,357.6,1267.11,500.39l173.24-202.62c43.79,324.18-30.52,403.37-320.74,347.8-128.21-24.55-251.21-60.44-288.64,134-91.43-24.44-172-47-253.06-67.36-81.31-20.42-163.16-38.67-271.63-64.18-39.45,198.76-88.53,386.51-110.63,577.4-15.94,137.59-76.85,173.36-203.08,166.24-156.27-8.82-313.34-3.59-470.07-3.78-122-.15-256.85,28.72-268.42-163.81-1.54-25.78-77.86-52.56-123.12-69.25-185.65-68.48-257.56-183.26-195-361.51,73.39-209,154.55-416.81,253.05-614.85,105.46-212,339.7-222.61,488.62-36.54Q892.32,928.3,1022,1087.85C1029,1096.37,1044,1098.32,1086.14,1117Zm-421.8,342.23v208.88l560.81-182.93-20.25-85.06Z"/><path class="cls-1" d="M1162.18,286.11c-.4,154.61-115.76,280-262.17,285C749.13,576.25,618.66,443.4,618.44,284.4,618.24,125.8,749.15-5.34,902.2.17,1047.88,5.41,1162.59,131.57,1162.18,286.11Z"/></g></g></g></g></g></g></svg>