<svg xmlns="http://www.w3.org/2000/svg" viewBox="0 0 4571.93 2301.61"><defs><style>.cls-1{fill:#fff;}</style></defs><title>aviron-white</title><g id="Calque_2" data-name="Calque 2"><g id="Calque_1-2" data-name="Calque 1"><g id="Calque_2-2" data-name="Calque 2"><g id="Calque_1-2-2" data-name="Calque 1-2"><g id="Calque_2-2-2" data-name="Calque 2-2"><g id="Calque_1-2-2-2" data-name="Calque 1-2-2"><path class="cls-1" d="M2266.81,961.29,2965,1484.22c44.46-156.66,85.09-286.82,117.85-418.93,32.57-131.3,107.46-158.42,221.67-101.58C3522.08,1072,3746.57,1169.53,3952.38,1297c84.72,52.48,128.59,170.89,222.05,303.22h397.5c-67.49,261.44-313,412.31-526.24,293.47-180.25-100.44-295.15-29.88-445.08,62,76.15,56.92,145.67,107.73,213.91,160.21,59.88,46.06,118.33,94,177.42,141.07l-31.52,44.64c-33.92-14.4-71.84-23.22-101.08-44.15-126.77-90.8-256.24-179-374.8-279.81-133.31-113.37-256.9-200.78-435.31-76.05-47.79,33.41-149.79,42.85-196.85,14.1-166-101.39-314.33-80.82-478.41,1.49-51.31,25.74-150.2,16.06-196.62-18.56-165.41-123.38-295.47-37-443,53,130.28,103.55,257.32,204.52,384.35,305.5q-10.77,19.07-21.53,38.15c-29.72-6.5-65.28-4.73-88.16-20.9-117.12-82.76-229-173-346.46-255.19-153.49-107.41-275.81-274.85-517.63-116.84-82.45,53.88-271.2-81.55-411.53-82-134.17-.41-276.29,106.37-400.61,84.54-120.43-21.13-222.61-146-332.78-225.38q14.25-34.48,28.49-69H1036.33q7-22.86,14-45.72L173.76,904c93.7-40.52,136.11-63.3,181.24-77.7C728.23,707,1103.22,593,1475,469.22c134.92-44.89,247.53-35.13,281.75,112.43C1790.77,728.29,1694.19,792,1554,809c-370.17,44.69-739.69,94.8-1161.86,149.54L1096,1483.15c43-156.27,81.09-287,114.59-418.93,33-130,109-157.76,223.39-100.53,217.34,108.79,441.69,206.52,647.45,334.13,84.84,52.62,129.24,170.48,218.74,296.17h654.26L2079,924.92c28.43-38,33.91-53.83,43.56-57,431.4-141.1,861.32-287.46,1297.23-413,53.66-15.45,177.74,65.9,202.19,128.55C3668.15,701.81,3588.5,786,3462.87,803c-302.77,41.06-606.29,76.67-909.39,115.39C2474,928.55,2394.87,942,2266.81,961.29Zm998.87,314.1c-46.41,124.41-80,214.5-117.29,314.39h516.36Zm-1871,3.73c-43.4,116.78-77.83,209.41-114.21,307.27h511Z"/><path class="cls-1" d="M3311,249.74c-79.49,56.77-162.17,161.37-237.52,156.34-69.76-4.66-172.16-118.81-187.6-198.75C2862.67,87,2958-17.38,3085.37,2.62,3166.68,15.39,3235.62,107,3310.1,163.25Z"/><path class="cls-1" d="M1494.75,205.54c-133.2,99.67-214,206.53-289.47,202.94-69-3.28-171.76-117.61-189-198.15-26-121.39,69-226.14,195.87-208.35C1293.12,13.34,1362.69,106.08,1494.75,205.54Z"/></g></g></g></g></g></g></svg>