<svg xmlns="http://www.w3.org/2000/svg" viewBox="0 0 1187.7 2255.99"><defs><style>.cls-1{fill:#fff;}</style></defs><title>badminton-jeu-de-volant-white</title><g id="Calque_2" data-name="Calque 2"><g id="Calque_1-2" data-name="Calque 1"><g id="Calque_2-2" data-name="Calque 2"><g id="Calque_1-2-2" data-name="Calque 1-2"><g id="Calque_2-2-2" data-name="Calque 2-2"><g id="Calque_1-2-2-2" data-name="Calque 1-2-2"><path class="cls-1" d="M588.26,1252.94c15.57,8.3,51.65,20.14,78.19,43,95.73,82.63,190.28,166.86,281.3,254.65,67.21,64.81,64.89,126.56-17.78,161.65-232.43,98.76-406.91,282.3-620.24,407.93-63.78,37.57-123.2,83.15-188.94,116.57-32.25,16.48-74.38,13.46-112,19.25,15.91-32.53,24.29-73.19,49.07-96.17,99.54-92.28,207.58-175.56,305-269.88,32.84-31.8,56.74-85.14,61.64-131.09,13-122.55,11.5-246.56,19.7-369.72C449.9,1303.92,498,1254.59,588.26,1252.94Zm180.13,378.68-102.07-64-30,157.63Z"/><path class="cls-1" d="M143.42,1013C186.87,961.06,228,912,269.15,862.9c43.73-52.15,95-69.63,153.08-25.7,50,37.84,54.15,115.8.88,162.69A3495.12,3495.12,0,0,1,140.81,1224c-58.26,41.45-96.54,1.93-102.87-55.89-21.87-200-81.25-401.18,16.46-599.2C77.21,522.67,82.17,468,100,418.82c17-46.93,15.39-80.53-21.51-123.4-62-72.11-16.62-215.25,72.84-251.14C206.72,22,254.63,37,287.89,88.4c59.52,91.92,15.41,220.29-86.7,259.94-20,7.76-45.95,23.11-51.82,40.73C81.69,592.31,19.84,796.73,143.42,1013ZM280.5,160.18c-19.42-21.06-43.68-66.77-80.69-82.49-44.67-19-110.39,65.47-111.31,132.9-.81,59.19,29.86,95.6,87.6,96.4C254,308.05,265.22,246.41,280.5,160.18Z"/><path class="cls-1" d="M667,817.39c-23.17-25.28-59.92-65.29-115.73-126.11l614-235.12L1187.7,490c-15.8,18.87-28,43.89-48,55.62C985.19,636.37,829.19,724.58,667,817.39Z"/><path class="cls-1" d="M517,597.46c2.17,74.54-51.83,133.48-122.4,133.68-67,.19-119.14-53.45-121.24-124.7C271.15,532,325.61,471.81,394.63,472.32,461,472.81,515,528,517,597.46Z"/><path class="cls-1" d="M847.37,0c7.86,44.92,14.11,80.66,22.9,130.94L695.93,109.86Q692,97.23,688.12,84.62Z"/></g></g></g></g></g></g></svg>