<svg xmlns="http://www.w3.org/2000/svg" viewBox="0 0 2049.89 3893.79"><defs><style>.cls-1{fill:#fff;}</style></defs><title>Fichier 6</title><g id="Calque_2" data-name="Calque 2"><g id="Calque_1-2" data-name="Calque 1"><path d="M1015.33,2162.54c26.86,14.33,89.14,34.76,134.94,74.3,165.23,142.63,328.43,288,485.52,439.53,116,111.85,112,218.43-30.68,279-401.17,170.34-702.32,487.15-1070.52,704-110.09,64.84-212.65,143.5-326.11,201.19C152.81,3889,80.1,3883.79,15.11,3893.79c27.46-56.15,41.92-126.33,84.69-166,171.8-159.27,358.28-303,526.4-465.8,56.68-54.89,97.94-146.95,106.39-226.26,22.52-211.51,19.86-425.56,34.08-638.13C776.51,2250.54,859.57,2165.4,1015.33,2162.54Zm310.89,653.6-176.17-110.55-51.8,272.07Z"/><path d="M247.54,1748.34c75-89.57,146-174.3,217-259,75.48-90,164-120.17,264.21-44.36,86.38,65.32,93.47,199.88,1.52,280.81-155.53,136.88-318.42,266.65-487.24,386.75-100.55,71.54-166.62,3.34-177.54-96.46C27.74,1670.87-74.76,1323.65,93.9,981.88c39.36-79.77,47.93-174.17,78.64-259,29.35-81,26.56-139-37.12-213C28.36,385.42,106.74,138.38,261.14,76.42,356.8,38,439.48,63.92,496.89,152.58,599.62,311.22,523.48,532.8,347.24,601.23c-34.5,13.39-79.3,39.88-89.43,70.3C141,1022.32,34.25,1375.14,247.54,1748.34ZM484.13,276.46c-33.52-36.34-75.39-115.24-139.26-142.37-77.11-32.77-190.54,113-192.13,229.39-1.39,102.15,51.54,165,151.2,166.37C438.35,531.68,457.77,425.3,484.13,276.46Z"/><path d="M1151.18,1410.8c-40-43.63-103.43-112.7-199.76-217.67L2011.17,787.32q19.36,29.16,38.72,58.34c-27.28,32.57-48.32,75.76-82.83,96C1700.41,1098.36,1431.16,1250.6,1151.18,1410.8Z"/><path d="M892.26,1031.2C896,1159.85,802.8,1261.59,681,1261.93c-115.63.32-205.64-92.26-209.25-215.23C468,918.27,562,814.34,681.12,815.21,795.67,816.05,888.81,911.32,892.26,1031.2Z"/><path d="M1462.54,0c13.56,77.53,24.35,139.21,39.52,226l-300.9-36.39q-6.75-21.78-13.49-43.56Z"/><path class="cls-1" d="M1326.22,2816.14l-228,161.52,51.8-272.07Z"/><path class="cls-1" d="M484.13,276.46C457.77,425.3,438.35,531.68,303.94,529.85c-99.66-1.36-152.59-64.22-151.2-166.37,1.59-116.4,115-262.16,192.13-229.39C408.74,161.22,450.61,240.12,484.13,276.46Z"/></g></g></svg>