<svg xmlns="http://www.w3.org/2000/svg" viewBox="0 0 471.27 438.23"><defs><style>.cls-1{fill:#fff;}</style></defs><title>ballon-au-poing-white</title><g id="Calque_2" data-name="Calque 2"><g id="Calque_1-2" data-name="Calque 1"><g id="Calque_2-2" data-name="Calque 2"><g id="Calque_1-2-2" data-name="Calque 1-2"><path class="cls-1" d="M42.6,113.94c5.46,39.56,10.07,77.71,16.53,115.54,1.24,7.24,8.82,14.36,15.09,19.59,20.67,17.27,42.07,33.64,61.26,48.83l-28.33,85.37c-31-38.21-61.53-74.85-90.61-112.6-5.29-6.86-6-18.2-6.53-27.61C6.35,181.45,3.33,119.81.07,58.19-1.33,31.89,18.79,5.55,43.91.92c27.91-5.15,53.45,11.83,61.14,40.65,7.31,27.37-7,57.24-32.51,66.43C64.54,110.88,55.7,111.43,42.6,113.94Z"/><path class="cls-1" d="M471.27,429c-6.93,3.22-13.85,9.22-20.78,9.23-49.54,0-99.07-1.23-148.61-1.93-10.84-.15-21.71.84-32.53.37-23.37-1-48.4,2.15-69.61-5.31-22.86-8-31-31.34-23.31-55.86,7.92-25.31,27.76-34.84,52.36-30.34s49,11.59,72.82,19.37c56.74,18.49,113.12,38.07,169.64,57.2Z"/><path class="cls-1" d="M258.2,241c-.17,35-26,61.8-59.65,61.74-32.56-.05-59.37-28.25-59.36-62.41,0-33.4,28.12-62.68,60-62.48C231.57,178.05,258.36,206.71,258.2,241Z"/></g></g></g></g></svg>