<svg xmlns="http://www.w3.org/2000/svg" viewBox="0 0 180.01 388.29"><defs><style>.cls-1{fill:#fff;}</style></defs><title>ballet-sur-glace-white</title><g id="Calque_2" data-name="Calque 2"><g id="Calque_1-2" data-name="Calque 1"><path class="cls-1" d="M63.63,24c26.06,7.61,44.68,25.73,63.72,44.21,2.52-1.81,4.83-3.6,7.27-5.2a29,29,0,0,1,44.83,29.53,28.89,28.89,0,0,1-12.66,18.63c-4.45,2.84-7.69,5.12-8.77,11.1-1.5,8.24-12.36,9.92-19.87,3.13a72.53,72.53,0,0,1-11.49-14c-6.25-9.61-12.25-19.49-18-29.44C96.41,60.61,82.19,40.81,63.63,24Z"/><path class="cls-1" d="M84.19,181.1c13.22-3.17,22.54,1.83,23.56,15.83a362.3,362.3,0,0,1-.21,58c-3.2,36.46-8,72.77-12.27,109.14a11.17,11.17,0,0,1-3.75,7.38c-1.68-12.83-3.69-25.63-5-38.51q-5.4-53.74-10.25-107.56c-.66-7.23-1.45-14.67-.42-21.75s4.31-14.12,6.59-21.15Z"/><path class="cls-1" d="M84.19,181.1l-1.73,1.38c-28.27,5-64-32.68-66.82-61.88-3-30.61-1.25-60,17.2-86.19A13.29,13.29,0,0,1,39.29,29c-1.6,10.28-4.42,20.55-4.53,30.85C34.59,76.11,33.89,93,38,108.4c2.63,10,12.83,18.36,20.56,26.58,4.25,4.51,10.44,7.18,15.71,10.75C91,157.11,92.85,163.68,84.19,181.1Z"/><path class="cls-1" d="M136.3,370.39c-1.83,12.4-8.36,17.11-17.7,17.61-10.85.57-21.76.13-33.42.13-.28-3.1-.5-5.55-.79-8.79,10.71,0,20.71.6,30.59-.28,4.12-.37,7.87-4.07,12-5.89C129.56,372,132.49,371.49,136.3,370.39Z"/><path class="cls-1" d="M55,16.71c-1.7,3.3-2.75,5.35-3.81,7.42a12.68,12.68,0,0,1-3-.54c-8.63-4.26-17.06-9-25.92-12.67-3.15-1.33-7.3-.29-11-.31H0C7.19.44,14.43-2.08,23,1.61,33.41,6.05,43.6,11.27,55,16.71Z"/></g></g></svg>