<svg width="181" height="390" viewBox="0 0 181 390" fill="none" xmlns="http://www.w3.org/2000/svg">
<path d="M64.4429 24.8732C90.5029 32.4832 109.123 50.6032 128.163 69.0832C130.683 67.2732 132.993 65.4832 135.433 63.8832C141.781 59.5966 149.561 57.9774 157.092 59.3748C164.624 60.7723 171.305 65.0744 175.693 71.3532C177.894 74.536 179.433 78.1288 180.218 81.9181C181.004 85.7074 181.02 89.6159 180.265 93.4115C179.51 97.207 178.001 100.812 175.826 104.013C173.65 107.213 170.854 109.944 167.603 112.043C163.153 114.883 159.913 117.163 158.833 123.143C157.333 131.383 146.473 133.063 138.963 126.273C134.56 122.108 130.699 117.404 127.473 112.273C121.223 102.663 115.223 92.7832 109.463 82.8332C97.2229 61.4632 83.0029 41.6632 64.4429 24.8732Z" fill="black"/>
<path d="M85.0028 181.953C98.2228 178.783 107.543 183.783 108.563 197.783C110.04 217.091 109.969 236.486 108.353 255.783C105.153 292.243 100.353 328.553 96.0828 364.923C95.8191 367.771 94.4777 370.411 92.3328 372.303C90.6528 359.473 88.6428 346.673 87.3328 333.793C83.7328 297.967 80.3161 262.113 77.0828 226.233C76.4228 219.003 75.6328 211.563 76.6628 204.483C77.6928 197.403 80.9728 190.363 83.2528 183.333L85.0028 181.953Z" fill="black"/>
<path d="M85.0024 181.953L83.2724 183.333C55.0024 188.333 19.2724 150.653 16.4524 121.453C13.4524 90.8432 15.2024 61.4532 33.6524 35.2632C35.1665 32.8193 37.4285 30.9291 40.1024 29.8732C38.5024 40.1532 35.6824 50.4232 35.5724 60.7232C35.4024 76.9632 34.7024 93.8432 38.7624 109.253C41.3924 119.253 51.5924 127.613 59.3224 135.833C63.5724 140.343 69.7624 143.013 75.0324 146.583C91.8224 157.963 93.6624 164.533 85.0024 181.953Z" fill="black"/>
<path d="M137.113 371.243C135.283 383.643 128.753 388.353 119.413 388.853C108.563 389.423 97.6526 388.983 85.9926 388.983C85.7126 385.883 85.4926 383.433 85.2026 380.193C95.9126 380.193 105.913 380.793 115.793 379.913C119.913 379.543 123.663 375.843 127.793 374.023C130.373 372.853 133.303 372.343 137.113 371.243Z" fill="black"/>
<path d="M55.8225 17.5631C54.1225 20.8631 53.0725 22.9131 52.0125 24.9831C50.9941 24.9273 49.9865 24.7459 49.0125 24.4431C40.3825 20.1831 31.9525 15.4431 23.0925 11.7731C19.9425 10.4431 15.7925 11.4831 12.0925 11.4631C8.96251 11.4631 5.8325 11.4631 0.8125 11.4631C8.0025 1.29313 15.2425 -1.22687 23.8125 2.46313C34.2225 6.90313 44.4125 12.1231 55.8225 17.5631Z" fill="black"/>
</svg>
