<svg xmlns="http://www.w3.org/2000/svg" viewBox="0 0 2957.56 3800.09"><defs><style>.cls-1{fill:#fff;}</style></defs><title>baseball-white</title><g id="Calque_2" data-name="Calque 2"><g id="Calque_1-2" data-name="Calque 1"><g id="Calque_2-2" data-name="Calque 2"><g id="Calque_1-2-2" data-name="Calque 1-2"><path class="cls-1" d="M478.61,2671v346.46C797.83,3097,876.12,3411,1146.24,3615.5c-371.78,0-683.9,14.4-992.48-12.25C92.66,3598-6.19,3431.13.3,3345.45c28.54-376.49,87-750.89,141-1125.1,7.9-54.63,43.83-143.49,78.63-149.66,208.2-36.86,283.45-217.71,396.58-350.57C1054.42,1205.84,1483.12,683.73,1916,165.17c43.09-51.63,83.4-125.26,139.06-142,80.09-24.15,199.1-38.59,253.35,4.06,55.91,44,80.85,165.13,69.41,245.41C2368,341.77,2293.66,406.55,2238,463.58,1672,1043,1104,1620.31,518,2217.18c212.14,181.45,433.48,337.06,612.71,531.49,316.26,343.08,663.17,523.65,1134,353.32,86.68-31.35,186.39-29.23,280.56-36.8,226.8-18.21,402,131.38,411.84,347.92,9.6,212.33-136.67,375.1-358,379.27-324.15,6.1-649.72,16.9-972.16-7.57-117.92-8.95-254.41-88.75-337.88-177.93C1018.64,3318,768.81,3009.63,478.61,2671Z"/><path class="cls-1" d="M2746.57,2324.14l-639.23,33.44c-117.92,269.18-213.79,340.28-391.49,295.46-211.46-53.32-424.42-336.37-403.16-535.83,29.73-279,227.28-493.35,497.75-540.17,255.51-44.23,510.56,97.74,625,347.92C2551.13,2177.78,2551.13,2177.78,2746.57,2324.14Z"/></g></g></g></g></svg>