<svg xmlns="http://www.w3.org/2000/svg" viewBox="0 0 3493.59 3848.42"><defs><style>.cls-1{fill:#fff;}</style></defs><title>Fichier 9</title><g id="Calque_2" data-name="Calque 2"><g id="Calque_1-2" data-name="Calque 1"><path d="M2167.47,2918.48c-51.63,161.4-22.31,291,180.82,380.91,238.82,105.75,462.11,247.81,687.11,382.51,42.37,25.37,61.18,90.1,90.85,136.67-58,9.51-124.55,42.31-172.76,24.78-326.73-118.81-653.59-239.3-970.8-380.78-75.7-33.76-153.19-144-164.23-227.75-39-295.94-50.55-595.59-70.56-894-9-134.82,34.42-245.77,174.69-284.86,134.23-37.41,220.38,36,280.58,149.18,91.69,172.4,188.87,342.11,274.2,517.59,51.85,106.65,113.42,169.9,242.27,185.95,223.4,27.84,444.43,77.79,664.38,127.59,41.46,9.39,73.3,61.26,109.57,93.52-43.58,22.75-87.29,65.32-130.72,65-280.72-1.83-565.23,11.4-840.34-32C2396.14,3142.87,2288.25,3005.73,2167.47,2918.48Z"/><path d="M2163.42,1024.13c252.94-61.59,531.42-87.73,546.64-365.76-115.08-112-233.32-183.48-284.59-287.85-67-136.37,6.94-262.91,144.47-330.85,126.79-62.63,269.89-5,340,126.31s110.43,264.76,30.17,408c-14.67,26.19-25.79,56.31-30.43,85.89-63,401.32-341.61,591.69-699.82,713.31C2195.65,1266.35,2181.5,1160,2163.42,1024.13Z"/><path d="M1985.13,1358.14c-181.8,260.2-317.3,528-521.83,723.57C1298.85,2239,1052.05,2311.39,838.68,2415c-35,17-86.14,1-129.82.26,14.17-46.93,13.5-113,45.08-137.49,134.38-104.25,274-203.39,420.09-290.41,121.78-72.56,199.87-162.76,236.11-303.3,37.8-146.54,82.69-297.18,159.21-425.29,37.76-63.22,159.35-117,232.6-106C1864.33,1162.25,1911.81,1270.59,1985.13,1358.14Z"/><path d="M695.71,837.72,851.16,308.64H112.53c50.55,176.81,102.25,357.7,154,538.58l-67.91,19.31C130.29,626.52,55.75,387.94.57,145-7.56,109.16,73.85,14.47,117.69,11.85c239.12-14.28,479.94-16.4,719-2.26,46.59,2.76,133,105.91,124.14,145.48C907.27,393.52,831.34,627,762.9,862.05Zm193-699.28C673.31-29.25,226.24-18,84.53,149.4,279.54,299.67,687.83,298.8,888.72,138.44Z"/><path d="M2136.79,720.79c-2.51,140.17-106,250.83-237.29,253.65-134,2.89-248.92-120.53-246.5-264.82,2.36-141.35,104.15-247.65,239.34-249.93C2035.06,457.28,2139.51,568.85,2136.79,720.79Z"/><path class="cls-1" d="M888.72,138.44C687.83,298.8,279.54,299.67,84.53,149.4,226.24-18,673.31-29.25,888.72,138.44Z"/></g></g></svg>