<svg xmlns="http://www.w3.org/2000/svg" viewBox="0 0 1984.17 1689.05"><defs><style>.cls-1{fill:#fff;}</style></defs><title>Fichier 1</title><g id="Calque_2" data-name="Calque 2"><g id="Calque_1-2" data-name="Calque 1"><path d="M953.21,1271.12c-27.32,88,2.21,140.87,87.13,179.31,101.2,45.82,196.63,105,291.77,163,19,11.6,25.5,43.82,37.76,66.54-23.63,2.66-50.49,14-70.39,6.61-145.65-54.11-291.57-108.26-433.33-171.52-31.83-14.2-63.57-62.51-67.88-98.41-15.69-130.93-20.16-263.24-28-395.08-3.49-58.51,15.72-115.9,77.3-117.85,39.47-1.25,94,30,117.68,63.61,51.92,73.85,84.67,160.93,133.27,237.5,18.83,29.66,56.49,56.8,90.58,65.54,96.39,24.71,195.83,37.33,293,59.53,19.5,4.45,34.14,30.15,51,46.06-19.52,9-39.19,26.12-58.52,25.75-129.09-2.46-259.66,1.28-386.35-18.65C1039.29,1375.38,999.25,1311.24,953.21,1271.12Z"/><path d="M972,600.71C965.2,550,959,504.34,951.65,449.6c96.37-36.28,231.55-28.71,237.56-188.79-15-4.92-48.17-5.53-60-21.73-28.67-39.21-69.56-88.89-63.86-128.33,5.66-39.16,58-91.37,97.81-99.69,33.34-7,87.44,33.29,115.73,66.71,40.79,48.2,45.92,109.7,14.21,170.57a308.32,308.32,0,0,0-28.62,82.59C1233.13,492.56,1105.41,546.52,972,600.71Z"/><path d="M339.58,1074.6c-11.93-8.94-32.31-18.06-31.56-24.84,2-17.9,8.36-41.09,21.45-51,58.31-44,116.91-88.93,180.55-124.27,64-35.57,97.43-86.12,115.9-154.63,15.92-59,32.78-121,65.51-171,17.91-27.35,78.22-53,103.67-42.2,26.63,11.27,58,79.26,46.52,101.48C773.38,740.63,727.34,892.44,569.91,958.45,492,991.12,418.54,1034.36,339.58,1074.6Z"/><path d="M1715.2,1015.79c14.73-31.65,19.74-69.28,38.94-79,84.07-42.76,23.86-63.53-24.23-100.23l80.22-88.68c2.79-48,5.1-87.66,7.41-127.36,44.7,4.06,96.87-5,132.38,15.19,56.37,32.06,32.46,93,4.14,130.41-27.47,36.26-32.26,58.75-21.94,105.1C1953.13,965.47,1858.52,1064.54,1715.2,1015.79Z"/><path d="M1697.21,968.2c-.92,3.34-7.78,28.28-14.18,51.51-78.7,28.26-126.29,1.6-165.63-68.3-48.12-85.48-110.52-162.84-161.11-247.1-13-21.59-4.71-55.91-6-81.17,90.92-27.89,140.31.92,179,74.49C1576,786.37,1634.73,868.8,1697.21,968.2Z"/><path d="M1127.43,799.28c-52.43-112.85,18.54-192.85,201.33-178-25.63,45.41-47.26,83.75-71.06,125.91,46.88,41.93,83,88.4-16,125.76-10.46,4-13.7,35.91-14.31,55.06-1,29.91,11.49,83.2,3.75,86-33.59,12-76.77,20.44-108,8.32-24.5-9.52-52.55-52.34-50.52-78.11C1076,901.75,1102.46,861.16,1127.43,799.28Z"/><path d="M309,363.19Q340.87,248,372.71,132.78H50.19L114,360.63,85.71,369C56.28,267.91,24,167.53.31,65.15-3.55,48.47,29.9,5.34,47.7,4.39a3102.16,3102.16,0,0,1,327.6-.13c17.65.93,50.86,44.34,47,61.23-23.68,103-56,204.06-85.44,305.76ZM32.58,60.75c103,68.46,269.56,66.27,353.05-.48C311.84-10.75,122.76-12.66,32.58,60.75Z"/><path d="M940.78,313.47c-1.31,63.22-51.13,112.67-112.68,108.62-67-4.41-98.36-47.38-102.61-109.46-4-59.11,52.26-116.66,107.9-116.32C890.11,196.67,942,253.32,940.78,313.47Z"/><path d="M1628.35,799.36l-71.87-110.82,211-99.72C1777,724.28,1666.25,726.27,1628.35,799.36Z"/><path d="M1483.78,955.52l-202.34,91.17c-12.52-129.86,93.06-136.63,133-207.34Z"/><path class="cls-1" d="M32.58,60.75c90.18-73.41,279.26-71.5,353.05-.48C302.14,127,135.59,129.21,32.58,60.75Z"/></g></g></svg>