<svg xmlns="http://www.w3.org/2000/svg" viewBox="0 0 1778.95 2449.1"><defs><style>.cls-1{fill:#fff;}</style></defs><title>bicross-white</title><g id="Calque_2" data-name="Calque 2"><g id="Calque_1-2" data-name="Calque 1"><g id="Calque_2-2" data-name="Calque 2"><g id="Calque_1-2-2" data-name="Calque 1-2"><path class="cls-1" d="M653.06,1182.77c100.2,188-.1,348.8-22.7,514.6-15.3,111.8-54.7,215.9-8.2,335.9,54.3,140.4-26.8,307.5-154.7,376.8-130.8,70.9-280.8,43.7-381.7-69.2-102.9-115.1-114.4-288.1-28-418.9,84-127,231.2-173.8,378.4-120.1,18.7,6.8,37,14.4,66.7,25.9,18-154.6,37.3-299.4,49.8-444.9,2.3-27.1-19.9-58.3-35.7-84.6-64.9-108-133-214.1-197.5-322.3-44.8-75.1-43-149.5,28.4-207.2,70.9-57.3,136.6-29.2,197.8,24.1,92.5,80.4,181.4,166.1,280.5,237.4,91.7,66,125.4,149.7,132.8,257.2,11.1,160.6,33.3,320.3,45.5,480.8,2,26.7-22.6,55.5-35,83.3-17.8-22.1-45.5-41.7-51.6-66.6-36.8-149.4-74.9-299-99.7-450.7C802.86,1243.27,757.46,1201.17,653.06,1182.77Zm-81.8,936c2.4-146.2-110.7-271.6-247.1-273.9-136.9-2.4-257.9,118.9-262,262.3-4,142.6,111.6,268.1,250.3,271.7,141.2,3.6,256.4-112.2,258.8-260.1Z"/><path class="cls-1" d="M1052.16,990.57c-48.9-19.8-98.1-39.2-146.6-60-9.1-3.9-14.7-15.9-23.8-20.3-272.6-131.7-222.9-357.7-170.2-583.6,14.9-64.1,62.4-106,122-77.7,35,16.6,70.9,80.4,66.9,119-7.6,74.8-37.2,149.3-68.5,219.2-26.9,60.1-21.3,103.4,25.5,149.1,39.9,38.9,72,85.7,109.4,127.4,13.3,14.8,38.9,38.9,47.2,34.8,114.3-56.4,118.5,48.3,148.5,103.7,63,116.3,118.6,236.5,175.8,352.1,234.1-27.4,369.6,45.4,425.1,222.1,49.2,156.6-22.3,331.1-164.8,402.6-134,67.2-293.5,29.7-385.9-90.7-111.7-145.6-89.9-321.5,67.9-500.2-33-67.3-67.9-138.7-103-209.9q-50.85-103.05-102.3-206Zm262.3,479c-121.1,101.9-141.9,247.3-56.8,365.3,82.3,114.1,217,142.9,332.7,71.1,118.7-73.7,158.2-232.5,89.6-360.2-62.5-116.4-183.6-160.6-295-107.5l107.9,255.9-41.5,19.8c-45.6-81.2-91-162.3-136.9-244.4Z"/><path class="cls-1" d="M1292.76,238.87,1191.16,195c-23.3,84.2-44.9,162.1-73.2,264-71-89.2-129.2-153.7-177.1-225.2-43.6-65-37.6-135.4,20.6-191.2,55.5-53.3,123.8-57.2,180.9-8,62.8,54.1,115.7,119.7,172.9,180.3Z"/></g></g></g></g></svg>