<svg xmlns="http://www.w3.org/2000/svg" viewBox="0 0 3002.99 4133.7"><defs><style>.cls-1{fill:#fff;}</style></defs><title>Fichier 15</title><g id="Calque_2" data-name="Calque 2"><g id="Calque_1-2" data-name="Calque 1"><path d="M1102.46,1996.33c169.07,317.3-.11,588.66-38.35,868.5-25.78,188.69-92.3,364.45-13.91,567,91.73,237-45.26,519-261.14,636-220.73,119.66-474,73.77-644.29-116.74-173.63-194.23-193.17-486.26-47.3-707,141.71-214.43,390.19-293.4,638.65-202.73,31.48,11.49,62.48,24.28,112.51,43.8,30.42-260.89,62.94-505.4,84-750.88,3.91-45.72-33.51-98.34-60.22-142.74-109.61-182.24-224.52-361.3-333.41-544-75.62-126.84-72.59-252.32,47.86-349.72,119.6-96.71,230.56-49.25,333.82,40.6,156.05,135.77,306.12,280.31,473.42,400.71,154.82,111.42,211.67,252.62,224.18,434.1,18.67,271,56.16,540.62,76.78,811.51,3.43,45.13-38.18,93.68-59,140.64-30-37.25-76.79-70.35-87.15-112.43-62.1-252.21-126.48-504.74-168.33-760.72C1355.45,2098.58,1278.83,2027.49,1102.46,1996.33Zm-138,1579.85c4-246.77-186.88-458.42-417-462.38-231-4-435.37,200.69-442.23,442.79-6.82,240.72,188.31,452.51,422.5,458.56C766,4021.31,960.43,3825.87,964.51,3576.18Z"/><path d="M1776.23,1672c-82.58-33.48-165.52-66.11-247.41-101.19-15.43-6.61-24.79-26.86-40.11-34.26-460.07-222.24-376.16-603.69-287.34-985.06,25.19-108.13,105.28-178.94,206-131.07,59,28,119.59,135.75,113,200.9-12.76,126.24-62.85,252-115.62,369.9-45.44,101.49-35.93,174.55,43.06,251.6,67.34,65.69,121.51,144.69,184.61,215,22.43,25,65.74,65.64,79.61,58.8,192.93-95.19,200.06,81.55,250.7,175C2069,1888,2162.94,2090.87,2259.44,2286c395.09-46.2,623.83,76.65,717.43,374.91,83,264.36-37.6,558.86-278.22,679.59-226.13,113.45-495.45,50.16-651.34-153.07-188.45-245.68-151.8-542.73,114.59-844.29-55.72-113.59-114.53-234.06-173.87-354.26q-85.92-174-172.71-347.66Zm442.6,808.44c-204.41,172-239.56,417.37-95.87,616.56,138.95,192.63,366.35,241.21,561.52,120,200.33-124.46,267-392.5,151.18-608-105.55-196.48-309.91-271-498-181.43l182.13,432-70.11,33.34C2373,2756,2296.39,2619.05,2218.83,2480.47Z"/><path d="M2182.21,403.29l-171.5-74.18c-39.4,142.18-75.81,273.53-123.49,445.57-119.77-150.53-218-259.5-299-380.07-73.65-109.69-63.48-228.54,34.73-322.77,93.75-90,208.93-96.54,305.28-13.48,106,91.36,195.22,202.1,291.75,304.4Z"/><path class="cls-1" d="M964.51,3576.18c-4.08,249.69-198.55,445.13-436.78,439-234.19-6.05-429.32-217.84-422.5-458.56,6.86-242.1,211.26-446.76,442.23-442.79C777.63,3117.76,968.54,3329.41,964.51,3576.18Z"/><path class="cls-1" d="M2218.83,2480.47c77.56,138.58,154.18,275.51,230.82,412.44l70.11-33.34q-91.07-216-182.1-432.07c188.09-89.51,392.45-15,498,181.46,115.79,215.53,49.15,483.57-151.18,608-195.17,121.25-422.57,72.67-561.52-120C1979.27,2897.84,2014.42,2652.42,2218.83,2480.47Z"/></g></g></svg>