<svg xmlns="http://www.w3.org/2000/svg" viewBox="0 0 4272.27 4921.04"><defs><style>.cls-1{fill:#fff;}</style></defs><title>Fichier 14</title><g id="Calque_2" data-name="Calque 2"><g id="Calque_1-2" data-name="Calque 1"><path d="M2068.6,2322.18c-8-59.42-4.92-108.43-21.61-149.41-101.48-249.3-24.54-417,205.73-552.84,191.72-113.1,359.25-266.65,542.49-395.18,36.19-25.39,95.1-18.4,143.53-26.34-12.88,47.28-11.28,108.39-41,139.53C2738.91,1504.1,2577.81,1669,2406.1,1821.5c-90.79,80.63-117.87,144.52-57.87,259.65,100.47,192.78,182.14,395.38,271.08,594.13,57.58,128.67,60.76,252.93-67,339.22-121.23,81.87-227.52,33.43-323-62.2-175.33-175.55-354.73-347-530.27-522.39-33.28-33.25-74.17-73.45-81.57-115.69-54.29-309.71-102.77-620.5-147.29-931.78-4.7-32.89,28-71.13,43.41-106.88,30.64,30,78,54.88,89.19,91,69.87,225.09,140.57,450.65,192.93,680.18C1829.86,2196.64,1920.43,2269.23,2068.6,2322.18Z"/><path d="M546.69,557.63C743.61,567.25,905.37,670,994.25,871c100,226.07,71.91,445.59-100.45,621.76-84.08,85.94-94.69,148.67-43.39,247.7C903.13,1842.2,940,1952,987.8,2056.54c43.53,95.26,50.4,240.18,222.9,177.89,11.39-4.12,32.91,13.26,47,24.16,347.35,268.57,625.27,585.67,711.14,1033.55,20.4,106.42-6,215.74-126.17,215.27-64.08-.25-132.49-88-189.18-145.86-20.3-20.71-17.4-69.81-15.76-105.52,16-346.72-183.86-585.9-404-814.79-24.22-25.18-64.83-68-82-61.42-165.3,63.67-176.13-72.05-218.88-163.7-35.77-76.69-64.22-156.77-98.88-234-80.48-179.3-116.53-360.93-410.74-346.16C149.08,1649.73-26.56,1344.37,3.3,1040.85,30.67,762.6,250.4,558.55,546.69,557.63ZM741.6,1459.08c202.82-152.91,250.57-395.37,123.71-592.83C749.84,686.51,525.47,623,340.92,717.84c-203.81,104.72-290.1,363.34-192.67,577.45,88,193.41,277.51,281.36,468.39,216q-72.37-220.2-144.79-440.49l71.71-24.44C609.34,1183.47,675.11,1320.54,741.6,1459.08Z"/><path d="M3912.67,2729.58c91,0,182.91-7.57,272.38,4,32.14,4.15,58.32,54.39,87.22,83.6-28.13,23.42-55,65.08-84.6,67.08-120.76,8.18-242.85,11.24-363.49,2.69-110.3-7.81-155,34.48-191.14,139.51-235.16,682.7-644.88,1229.73-1277.24,1596.2-315.39,182.78-658.53,275.59-1020,298.27-42,2.64-87.28-46.33-131-71.37,36.67-27.5,71.47-76,110.31-79.45C2425.33,4670.5,3083.7,4010.21,3478.85,3027,3597,2732.92,3588.82,2729.62,3912.67,2729.58Z"/><path d="M2961,578.38c1,323.45-240.23,578.46-547.16,578.44-309.8,0-551.24-251.77-551.05-574.58C1863,259.93,2105,2.23,2409.53,0,2711.2-2.19,2960,258.76,2961,578.38Zm-989.89,9.36c3.58,249.69,211.36,462,447,456.7,241.6-5.4,435-215.48,432.34-469.67-2.67-257-198.7-456.37-445.12-452.73C2160.89,125.65,1967.43,333.13,1971.09,587.74Z"/><path d="M1405.16,3041.76,1226.6,3273.93l203.33,55.64q15.27,25,30.55,49.95c-78.84,56.17-154.63,151.11-237.39,157.64-83.42,6.58-197.82-54.27-255.35-122.23-82.45-97.38-68.52-222.81,26.1-343.82,174.25,241.34,265.74,36.84,376.44-70.4Z"/><path class="cls-1" d="M741.6,1459.08c-66.49-138.54-132.26-275.61-198-412.67l-71.71,24.44q72.4,220.26,144.79,440.49c-190.88,65.31-380.38-22.64-468.39-216-97.43-214.11-11.14-472.73,192.67-577.45C525.47,623,749.84,686.51,865.31,866.25,992.17,1063.71,944.42,1306.17,741.6,1459.08Z"/><path class="cls-1" d="M1971.09,587.74c-3.66-254.61,189.8-462.09,434.21-465.7,246.42-3.64,442.45,195.75,445.12,452.73,2.64,254.19-190.74,464.27-432.34,469.67C2182.45,1049.71,1974.67,837.43,1971.09,587.74Z"/></g></g></svg>