<svg xmlns="http://www.w3.org/2000/svg" viewBox="0 0 992.68 950.68"><title>billard</title><g id="Calque_2" data-name="Calque 2"><g id="Calque_1-2" data-name="Calque 1"><path d="M152.52,349.25c62.81-18.67,108.73,11.88,104.07,59.9-11.95,123.27-4.87,251.36-96.65,355.2-44.14,49.92-75.42,111-115,165.29-8.12,11.14-27.26,14.24-41.32,21C3,934.81-3.44,916.28,2.52,903.5,37.58,828.19,78.29,755.41,111.2,679.23c14.48-33.55,20.27-73,20.71-109.93.6-51-12.54-102.32-10-153C123.23,389.59,145.36,363.93,152.52,349.25Z"/><path d="M535.84,313.76c-94.28-17.65-77.16-102.93-97-141.89L690.64,377q-3.35,8.63-6.7,17.25c-47.83-3.75-95.69-7.21-143.5-11.31C403.13,371.15,403,371.12,335.71,250c-16.33-29.38-32.53-58.9-47.16-89.14-16.8-34.74-6.45-65,27.05-80.06,34.74-15.62,63,.12,76.14,35.65,15.29,41.44,32.76,83,40.33,126.14C442.54,302.17,477.63,320.15,535.84,313.76Z"/><path d="M287.86,467.63C343.15,608.43,398.92,749,452.75,890.39c4,10.56-5.82,26.4-9.22,39.78-10.79-6.7-26.42-10.81-31.61-20.5C362.71,817.73,307.53,727.8,270.69,631c-17.72-46.56.11-106.66,1.85-160.62Z"/><path d="M570.73,72.63c-.81,39.44-33.22,72.39-70.94,72.13C463.51,144.5,430.6,109,431,70.56,431.34,30.45,462.57-.63,501.85,0S571.55,32.69,570.73,72.63Z"/><path d="M935,419.71s-15.31.83-22.86-.86c-224.07-50.27-449.58-83-673.64-133.36-18.41-4.13-42.2-4.72-24.79-36.72L313.09,271Q611.45,337.92,909.8,404.82c10.07,2.25,27.1,11.28,27.1,11.28"/><path d="M970.23,451.68c-11.4-1.15-19.63-11.86-18.43-24,1.13-11.31,10.93-20.16,21.56-19.45,11.91.79,20.75,12.28,19.13,24.86C991.05,444.35,981,452.76,970.23,451.68Z"/></g></g></svg>