<?xml version="1.0" encoding="utf-8"?>
<!-- Generator: Adobe Illustrator 24.0.3, SVG Export Plug-In . SVG Version: 6.00 Build 0)  -->
<svg version="1.1" id="Calque_1" xmlns="http://www.w3.org/2000/svg" xmlns:xlink="http://www.w3.org/1999/xlink" x="0px" y="0px"
	 viewBox="0 0 992.7 950.7" style="enable-background:new 0 0 992.7 950.7;" xml:space="preserve">
<style type="text/css">
	.st0{fill:#FFFFFF;}
</style>
<title>billard-white</title>
<g id="Calque_2_1_">
	<g id="Calque_1-2">
		<g id="Calque_2-2">
			<g id="Calque_1-2-2">
				<path class="st0" d="M152.5,349.3c62.8-18.7,108.7,11.9,104.1,59.9c-11.9,123.3-4.9,251.4-96.6,355.2
					c-44.1,49.9-75.4,111-115,165.3c-8.1,11.1-27.3,14.2-41.3,21c-0.6-15.8-7.1-34.4-1.1-47.1c35.1-75.3,75.8-148.1,108.7-224.3
					c14.5-33.5,20.3-73,20.7-109.9c0.6-51-12.5-102.3-10-153C123.2,389.6,145.4,363.9,152.5,349.3z"/>
				<path class="st0" d="M535.8,313.8c-94.3-17.6-77.2-102.9-97-141.9L690.6,377l-6.7,17.2c-47.8-3.8-95.7-7.2-143.5-11.3
					C403.1,371.2,403,371.1,335.7,250c-16.3-29.4-32.5-58.9-47.2-89.1c-16.8-34.7-6.5-65,27-80.1c34.7-15.6,63,0.1,76.1,35.7
					c15.3,41.4,32.8,83,40.3,126.1C442.5,302.2,477.6,320.2,535.8,313.8z"/>
				<path class="st0" d="M287.9,467.6C343.1,608.4,398.9,749,452.7,890.4c4,10.6-5.8,26.4-9.2,39.8c-10.8-6.7-26.4-10.8-31.6-20.5
					C362.7,817.7,307.5,727.8,270.7,631c-17.7-46.6,0.1-106.7,1.9-160.6L287.9,467.6z"/>
				<path class="st0" d="M570.7,72.6c-0.8,39.4-33.2,72.4-70.9,72.1c-36.3-0.3-69.2-35.8-68.8-74.2c0.3-40.1,31.6-71.2,70.8-70.6
					S571.5,32.7,570.7,72.6z"/>
				<path class="st0" d="M935,419.7c0,0-15.3,0.8-22.9-0.9c-224.1-50.3-449.6-83-673.6-133.4c-18.4-4.1-42.2-4.7-24.8-36.7
					l99.4,22.2l596.7,133.8c10.1,2.2,27.1,11.3,27.1,11.3"/>
				<path class="st0" d="M970.2,451.7c-11.4-1.1-19.6-11.9-18.4-24c1.1-11.3,10.9-20.2,21.6-19.5c11.9,0.8,20.8,12.3,19.1,24.9
					C991,444.4,981,452.8,970.2,451.7z"/>
			</g>
		</g>
	</g>
</g>
</svg>
