<svg xmlns="http://www.w3.org/2000/svg" viewBox="0 0 987.58 1137.66"><defs><style>.cls-1{fill:#fff;}</style></defs><title>BMX-white</title><g id="Calque_2" data-name="Calque 2"><g id="Calque_1-2" data-name="Calque 1"><g id="Calque_2-2" data-name="Calque 2"><g id="Calque_1-2-2" data-name="Calque 1-2"><g id="Calque_2-2-2" data-name="Calque 2-2"><g id="Calque_1-2-2-2" data-name="Calque 1-2-2"><path class="cls-1" d="M478.16,536.78c-1.85-13.74-1.14-25.06-5-34.54-23.45-57.62-5.67-96.39,47.56-127.79,44.32-26.14,83-61.63,125.4-91.34,8.36-5.87,22-4.26,33.17-6.09-3,10.93-2.6,25.05-9.47,32.25-36.72,38.41-74,76.53-113.65,111.78-21,18.63-27.24,33.4-13.37,60,23.22,44.57,42.1,91.4,62.66,137.34,13.31,29.74,14,58.46-15.49,78.41-28,18.92-52.59,7.73-74.66-14.38-40.53-40.58-82-80.21-122.57-120.75-7.7-7.68-17.15-17-18.86-26.74-12.55-71.59-23.76-143.43-34.05-215.38-1.08-7.61,6.48-16.45,10-24.71,7.08,6.94,18,12.69,20.61,21,16.16,52,32.5,104.16,44.6,157.22C423,507.76,443.91,524.54,478.16,536.78Z"/><path class="cls-1" d="M126.37,128.9c45.52,2.22,82.91,26,103.45,72.44,23.12,52.25,16.62,103-23.22,143.72-19.43,19.86-21.89,34.36-10,57.25,12.19,23.52,20.71,48.9,31.76,73.07,10.06,22,11.65,55.51,51.52,41.12,2.64-1,7.61,3.06,10.87,5.58C371,584.16,435.25,657.46,455.1,761c4.72,24.6-1.39,49.87-29.16,49.76-14.82-.06-30.63-20.34-43.73-33.72-4.7-4.79-4-16.13-3.65-24.39,3.7-80.14-42.5-135.43-93.38-188.34-5.6-5.82-15-15.72-19-14.2-38.21,14.72-40.71-16.65-50.59-37.84-8.27-17.72-14.85-36.23-22.86-54.09-18.6-41.44-26.93-83.43-94.94-80C34.46,381.34-6.14,310.76.76,240.6,7.09,176.28,57.88,129.11,126.37,128.9Zm45,208.37c46.88-35.34,57.92-91.39,28.6-137C173.33,158.69,121.46,144,78.8,165.93c-47.11,24.21-67,84-44.53,133.48,20.34,44.71,64.14,65,108.27,49.93q-16.74-50.88-33.47-101.82l16.57-5.65Z"/><path class="cls-1" d="M904.42,631c21,0,42.28-1.75,63,.93,7.43,1,13.48,12.57,20.16,19.32-6.5,5.41-12.71,15-19.55,15.51-27.92,1.89-56.14,2.59-84,.62-25.5-1.81-35.83,8-44.19,32.25-54.35,157.8-149.06,284.25-295.23,369-72.91,42.25-152.22,63.7-235.78,69-9.71.61-20.17-10.71-30.28-16.5,8.48-6.36,16.52-17.57,25.5-18.37C560.62,1079.6,712.8,927,804.14,699.7,831.45,631.72,829.56,631,904.42,631Z"/><path class="cls-1" d="M684.44,133.7c.23,74.76-55.53,133.71-126.48,133.7-71.61,0-127.42-58.19-127.37-132.81S486.57.52,557,0C626.7-.5,684.21,59.82,684.44,133.7Zm-228.82,2.16c.83,57.72,48.86,106.79,103.33,105.57,55.85-1.25,100.55-49.81,99.94-108.57C658.27,73.46,613,27.37,556,28.21,499.49,29.05,454.77,77,455.62,135.86Z"/><path class="cls-1" d="M324.8,703.11l-41.27,53.67,47,12.86,7.06,11.55c-18.22,13-35.74,34.93-54.87,36.43-19.28,1.53-45.73-12.54-59-28.25-19.05-22.51-15.83-51.5,6-79.47,40.28,55.78,61.42,8.51,87-16.28Z"/></g></g></g></g></g></g></svg>