<svg xmlns="http://www.w3.org/2000/svg" viewBox="0 0 715.65 761.59"><defs><style>.cls-1{fill:#fff;}</style></defs><title>bowling-white</title><g id="Calque_2" data-name="Calque 2"><g id="Calque_1-2" data-name="Calque 1"><g id="Calque_2-2" data-name="Calque 2"><g id="Calque_1-2-2" data-name="Calque 1-2"><g id="lJpyji.tif"><path class="cls-1" d="M670.84,733.55l1.41-2.58c-4.77-2.33-9.36-5.15-14.33-6.9C616.73,709.48,582.43,683.9,549.69,656c-32.51-27.73-63.05-57.23-81.73-96.73-13.72-29-22.45-59.43-28.63-91,6.9-3,13-5.26,18.81-8.13,20.19-10,36.47-23.78,43.69-46.14,9.51-29.44-14.84-60.91-45.44-58.57-7.23.56-14.46,1.39-21.64,2.45-25.38,3.74-50.79,7.36-76.08,11.68-5.05.87-11.76,3.38-14,7.27-8.49,14.62-23.32,21.43-35.41,31.59-24.12,20.27-42.46,44.45-45.27,76.83-3.82,43.87-1.12,87.81,14.79,129,15.52,40.15,35.33,78.64,53.32,117.83a62.17,62.17,0,0,0,4.1,6.65c-2.26-36.07-6.59-71.38-10.46-106.74-4-36.71-4.37-73.33,5.31-109.38,2.92-10.86,7.48-20.93,18.55-27.44C407,642.83,519.07,715.2,670.84,733.55Zm42-480.43,2.77-2.48c-7.74-12.18-14.64-25-23.38-36.43C667.48,181.8,635.57,156.68,603,133,537.2,85.26,464.59,69.61,385.3,92.64c-14.84,4.31-29.59,25.64-27.68,39.1,3.12,22,17.65,36.41,38.22,35.88,10.75-.27,21.6-2.62,32.11-5.22,30.54-7.55,61-12.71,92.61-6.42,64.15,12.77,120,42.47,171.48,81.73,6.84,5.29,13.88,10.29,20.84,15.41ZM120.41,582.8l3.91.83c2.3-4.66,4.9-9.21,6.85-14,4.65-11.42,9-23,13.45-34.46,32.21-83.6,64.42-167.21,87.25-254,4.18-15.91,7.75-31.81,2.92-48.27C229,213,214.3,204.36,194,207.75c-15.06,2.52-23.33,12.34-26.33,25.58-7.37,32.5-14.75,65.12-19.53,98.06-8.92,61.44-16.38,123.11-23.63,184.77C121.93,538.23,121.71,560.58,120.41,582.8ZM226.93,0C180,0,143.62,45.6,152.28,93.59c6.49,35.9,34.81,62.69,69.23,65.48,33.11,2.69,64.27-19.46,75.9-53.95C314.41,54.71,277.73,0,226.93,0Z"/><path class="cls-1" d="M670.84,733.55C519.07,715.2,407,642.83,349.58,495.13,338.51,501.64,334,511.71,331,522.57c-9.68,36-9.32,72.67-5.31,109.38,3.87,35.36,8.2,70.67,10.46,106.74a62.17,62.17,0,0,1-4.1-6.65c-18-39.19-37.8-77.68-53.32-117.83C262.85,573,260.15,529.1,264,485.23c2.81-32.38,21.15-56.56,45.27-76.83,12.09-10.16,26.92-17,35.41-31.59,2.26-3.89,9-6.4,14-7.27,25.29-4.32,50.7-7.94,76.08-11.68,7.18-1.06,14.41-1.89,21.64-2.45,30.6-2.34,55,29.13,45.44,58.57-7.22,22.36-23.5,36.14-43.69,46.14-5.81,2.87-11.91,5.17-18.81,8.13,6.18,31.57,14.91,62,28.63,91,18.68,39.5,49.22,69,81.73,96.73,32.74,27.92,67,53.5,108.23,68.09,5,1.75,9.56,4.57,14.33,6.9Z"/><path class="cls-1" d="M712.88,253.12c-7-5.12-14-10.14-20.87-15.39-51.44-39.26-107.33-69-171.48-81.73-31.65-6.29-62.07-1.13-92.61,6.42-10.51,2.6-21.36,5-32.11,5.22-20.57.53-35.1-13.85-38.22-35.88-1.91-13.46,12.84-34.79,27.68-39.1,79.29-23,151.9-7.38,217.7,40.36,32.6,23.66,64.51,48.78,89.3,81.19,8.74,11.42,15.64,24.25,23.38,36.43Z"/><path class="cls-1" d="M120.41,582.8c1.3-22.22,1.52-44.57,4.11-66.64,7.25-61.66,14.71-123.33,23.63-184.77,4.78-32.94,12.16-65.56,19.53-98.06,3-13.24,11.27-23.06,26.33-25.58,20.29-3.39,35,5.27,40.78,25.09,4.83,16.46,1.26,32.36-2.92,48.27-22.83,86.83-55,170.44-87.25,254-4.43,11.51-8.8,23-13.45,34.46-1.95,4.81-4.55,9.36-6.85,14Z"/><path class="cls-1" d="M226.93,0c50.8,0,87.48,54.71,70.48,105.12-11.63,34.49-42.79,56.64-75.9,53.95-34.42-2.79-62.74-29.58-69.23-65.48C143.62,45.6,180,0,226.93,0Z"/></g><path class="cls-1" d="M68.3,761.25C26.32,757-4,717.58.43,673c4.13-41.67,40.25-74.26,79.39-71.65,43.86,2.93,76.42,45.23,70.48,91.56C145,734.26,107.85,765.23,68.3,761.25Z"/></g></g></g></g></svg>