<svg xmlns="http://www.w3.org/2000/svg" viewBox="0 0 3980.35 2469.92"><defs><style>.cls-1{fill:#fff;}</style></defs><title>boxe-francaise-savate-white</title><g id="Calque_2" data-name="Calque 2"><g id="Calque_1-2" data-name="Calque 1"><g id="Calque_2-2" data-name="Calque 2"><g id="Calque_1-2-2" data-name="Calque 1-2"><path class="cls-1" d="M496.35,1757c85.08-144.81,192.4-281.33,250.15-436.33,92.68-248.71,237.58-337.31,424-218.26,243.83,155.72,244.1,418.55-26.48,516.14-203.34,73.34-302.87,218.27-417.08,368.17-100.38,131.76-188.77,275.5-305.22,391-59.7,59.17-178.7,106.63-253.2,88.1-62.87-15.65-138.24-132.1-142.32-207.49Q-5.45,1673.18,1.14,1086.16c2.33-209.41,149-330.56,331.21-309.47C515.3,797.87,632,970.49,586,1176c-41.25,184.55-100.79,365-152.26,547.3Z"/><path class="cls-1" d="M1575.73,1421c12.89-169,23.81-312.33,37.34-489.84,161.57,7.87,322.75,19,484.11,23,493.55,12.26,987.14,27.29,1480.77,30.08,247.52,1.4,391.62,77.81,401.28,254.56,7.63,139.68-20.54,276.27-176.69,317.34-159.06,41.84-330.59,40-423.85-122-58.25-101.18-122.26-115.78-221.91-109.27C2636.79,1358.81,2116.52,1388.56,1575.73,1421Z"/><path class="cls-1" d="M1557.26,427.16c2.7,251.56-174.28,445-408.8,446.84-227.58,1.78-422.35-201.51-421.95-440.41C726.91,192,918-3,1151.41,0,1380,3,1554.69,186.88,1557.26,427.16Z"/></g></g></g></g></svg>