<svg xmlns="http://www.w3.org/2000/svg" viewBox="0 0 61 65"><defs><style>.cls-1{fill:#fff;}</style></defs><title>calendar-white</title><g id="Calque_2" data-name="Calque 2"><g id="Calque_1-2" data-name="Calque 1"><g id="Calque_2-2" data-name="Calque 2"><g id="Calque_1-2-2" data-name="Calque 1-2"><path class="cls-1" d="M51,9h6v7H4V9h6V5H0V65H61V5H51ZM4,61V20H57V61Z"/><rect class="cls-1" x="16" y="5" width="29" height="4"/><rect class="cls-1" x="12" y="26" width="7" height="7"/><rect class="cls-1" x="22" y="26" width="7" height="7"/><rect class="cls-1" x="32" y="26" width="7" height="7"/><rect class="cls-1" x="42" y="26" width="7" height="7"/><rect class="cls-1" x="42" y="36" width="7" height="7"/><rect class="cls-1" x="32" y="36" width="7" height="7"/><rect class="cls-1" x="22" y="36" width="7" height="7"/><rect class="cls-1" x="12" y="36" width="7" height="7"/><rect class="cls-1" x="12" y="46" width="7" height="7"/><rect class="cls-1" x="22" y="46" width="7" height="7"/><rect class="cls-1" x="32" y="46" width="7" height="7"/><rect class="cls-1" x="42" y="46" width="7" height="7"/><rect class="cls-1" x="11" width="4" height="12"/><rect class="cls-1" x="46" y="1" width="4" height="11"/></g></g></g></g></svg>