<svg xmlns="http://www.w3.org/2000/svg" viewBox="0 0 4465.52 3403.16"><defs><style>.cls-1{fill:#fff;}</style></defs><title>Fichier 13</title><g id="Calque_2" data-name="Calque 2"><g id="Calque_1-2" data-name="Calque 1"><path d="M2132.14,1798.05c49.4-142.57,77.66-224.12,98.15-283.23L3076,1742.52l31.53-56.76L2222.39,183.6c-106,294.28-197.7,541.26-283.44,790.29-36.69,106.58-57.27,218.65-92,326-34,105.13-121.33,171.47-214.77,113.21-58.61-36.54-70.32-148.52-102.31-227-1.85-4.51,2.16-12.4,5.16-17.76C1745.68,791.23,1956.54,414.18,2188.13,0c70.53,102.05,121.89,167.62,164,238.68,374.58,632.14,742.65,1268.2,1123.21,1896.71,164.65,271.92,350.8,531.18,535.58,790.21,29.32,41.11,101.43,64.9,156.72,71.37,97.21,11.37,196.71,3.18,297.89,3.18-44.67,321.4-322.7,487.68-594.66,359.71-97.25-45.76-165.2-46.9-257,2.38-169.4,91-333.26-53.06-481.53-39.6-160,14.53-309.6,108.17-485.58,36.68-63.18-25.67-156-26.4-217.62,1.08-183.46,81.81-345.72-46.62-502.59-36.32-158.58,10.43-309.43,107.86-485.36,36.1-63-25.71-154.17-25.58-217.24.14-175.77,71.69-325.6-23.23-485.19-36.55-149.32-12.46-311,125.13-483,40.27-142-70-241.2-175.19-255.82-364.79,295.51,0,583.39-6.64,870.72,2.91,135.81,4.51,230.1-27.22,279.68-161.26,19.38-52.41,63.51-96.35,79.45-149.24,181.29-601.36,682.72-573.23,1158.17-581.31,50.83-.87,136.11,89.41,149,149.53,42.08,195.8,53.33,398,87.24,595.94,8.72,50.93,56,135.3,87.46,136.16,354.73,9.72,709.84,6.16,1093.33,6.16-194-375.72-365.8-720.73-552.74-1057.32-29.38-52.91-125.79-90.68-194.27-96C2760.65,1821.76,2462.08,1813.29,2132.14,1798.05Zm177.35,636.4c-348.76,105.46-707.47,158-856,545.33H2460.62C2408,2790,2361.7,2622.83,2309.49,2434.45Z"/><path d="M2546.5,1145.46c-140.82,95.32-218.61,186.72-307.54,199.28-140.89,19.89-218.42-90.35-211.37-225.86,7-134.25,94.15-239.35,231.48-207.24C2346.54,932.09,2415,1033.88,2546.5,1145.46Z"/><path class="cls-1" d="M2309.49,2434.45c52.21,188.38,98.53,355.53,151.13,545.33H1453.49C1602,2592.45,1960.73,2539.91,2309.49,2434.45Z"/></g></g></svg>