<svg xmlns="http://www.w3.org/2000/svg" viewBox="0 0 4888.82 4612.74"><title>Fichier 12</title><g id="Calque_2" data-name="Calque 2"><g id="Calque_1-2" data-name="Calque 1"><path d="M2000,3490.08c51.28-159.55,92.51-287.83,137.52-427.9,202.1,141.5,375.95,343.73,580.48,382,176.81,33.08,388.47-120.1,611.76-200.7L2300.12,1596.2c-351.64,210.7-706.37,390.27-649.66,884.26,8.91,77.66-16.17,160.14-30.85,239.4-31.36,169.41-133.48,268.35-306,228-157-36.74-230.43-173.54-180.23-319.93,148.74-433.73,222.75-927.67,777-1074.23,82.48-21.81,154.56-83.26,231-127.25,5.83-3.36,7.64-13.7,24.89-47-57-77.23-103.39-200.79-190.64-246.81-277.63-146.46-398-413-559-652.14C1279.31,276.67,1339.38,137.69,1590.17,0c156.67,288.26,316,571.59,465.21,860.18,73.18,141.57,110.36,303.45,193.22,438,465.47,756,943.27,1504.45,1409.07,2260.27,128.86,209.08,276,311.57,536,252.47,224.74-51.1,460.22-54.95,695.19-80.15C4854.5,4091.24,4559.7,4369,4176.6,4420.13c-55.78,7.45-114.35,15.6-168.93,6.77-253.68-41-482-42.4-717.45,123.46-107.48,75.71-332.12,40.21-479.64-12.28-134.15-47.74-222.06-26.37-350,3.75-174.43,41.07-369.4-6.69-555.66-13.46-86.11-3.14-184.19-25.82-256.45,6.27-197.76,87.83-393.81,115.66-580.54,4.83-112.09-66.54-188.52-65.24-303.88-5C476.38,4684.85,217.41,4617.5,0,4341.15l3709.51-471.78-280-474.21c-173.78,92.86-344.56,165.36-494,268.7-190,131.41-365.25,134.72-558.6,17.62C2261.07,3611.33,2135.12,3557.91,2000,3490.08Z"/><path d="M2430,2546.9c.59,182-140.29,330.27-314.06,330.5-176.79.23-314.32-143.75-313.91-328.63.4-183.49,140.67-332.88,312.41-332.72C2287.21,2216.21,2429.43,2365.31,2430,2546.9Z"/><path d="M557.47,1281.23V3470.85C440.67,3320.54,421.55,1495.36,557.47,1281.23Z"/><path d="M3325.33,2273.49V171.38l50.38-.9V2272.27Z"/></g></g></svg>