<svg xmlns="http://www.w3.org/2000/svg" viewBox="0 0 2347.9 3838.89"><title>Fichier 46</title><g id="Calque_2" data-name="Calque 2"><g id="Calque_1-2" data-name="Calque 1"><path d="M1152.16,3288l518.17-884.71c-391.49-209.36-391.56-209.41-628.28,119.86C769.7,2902,498.4,3281.54,224.37,3659.18c-46.52,64.12-104.37,120-157,179.71L0,3803.21c23-81.48,33.14-169.61,71.13-243.4,288.62-560.67,585.49-1117.1,873.65-1678,108.33-210.88,240.42-275.85,455.31-138.24,196.14,125.61,415,218.37,599.88,357.49,68,51.2,126,237.45,88.6,287.34C1846,2712.52,1576.29,3016.45,1313.19,3325c-12.66,14.85-46.88,11.34-71.07,16.37Z"/><path d="M647.55,1879.87C452.73,1271.36,723,697.75,1243.25,532.93c67.91-21.51,163.17,43.32,245.77,68.15-27.86,89-55.38,178-84.34,266.61-1.86,5.66-14.58,10.23-22.67,11C888.86,928.31,784.65,1280,746.58,1688.29,741.93,1738.14,698.42,1784.36,647.55,1879.87Z"/><path d="M1715.87,921.21l89.62,244.14L2265.94,776.6l82,83.58c-182.33,232-362.06,466.11-550.6,692.93-21.47,25.83-117.12,31.55-135.19,10.14-39.32-46.6-77.18-120.91-68.4-176.43C1615.94,1246.21,1664.21,1109.72,1715.87,921.21Z"/><path d="M2022.43,295c-96.09,72.41-183.52,184.74-290.28,207.86-159.53,34.56-279.92-92.54-252.34-241.25C1499,158.37,1620.38,18.64,1715.4,1.37c87.29-15.87,200.37,110.26,302.09,173.84Q2020,235.08,2022.43,295Z"/></g></g></svg>