<svg viewBox="0 0 3975.91 3101.45" xmlns="http://www.w3.org/2000/svg"><path d="m1795.89 2418.07c-442.76-124.74-850.03 66.93-1224.16 382.93-128.57 108.59-273.14 199.63-417.15 287.64-38.81 23.72-102.38 6.92-154.58 8.73 9.57-56.22-1.31-133.78 31.76-165.49q866.13-830.46 1743.75-1648.88c138.81-128.92 296.42-109.06 402.42 48.69 173.87 258.74 337.35 525.2 491.46 796.21 92.52 162.71 18.52 282-169 288.44-214.29 7.34-429.06 1.73-704.5 1.73zm94.41-525-295 206.8 22.4 42.7 477.61-49 27.79-44.25z"/><path d="m3285.49 1295.27c190.9-82.58 360.46-161.11 534.59-227.69 44.51-17 103.49 3.8 155.83 7.24-24.16 45.63-36.66 108.4-74.4 134-203.67 138.46-413.1 268.5-621.58 399.78-93.19 58.69-174.16 42.73-231.15-53.61-122.11-206.34-248.78-410.49-360.44-622.48-84.65-160.71-32.6-325.18 101.58-384.43 141.26-62.38 271.91 10.25 334.91 199 57.17 171.17 102.1 346.39 160.66 548.19z"/><path d="m2782.71 395.36-347.54 246c-130.77-283.16-328.66-166.27-526.51-84.85-119.31 49.09-242.83 89.09-366.94 124.49-27.62 7.88-65.65-20.78-98.89-32.62 14.21-32.22 19.46-80.35 44-94.21 242.17-136.64 485.89-270.58 733.47-396.9 37.7-19.27 104.1-9.58 145.46 10.73 137.44 67.42 269.51 145.8 416.95 227.36z"/><path d="m3430.55 596.37c-153.09-5.21-271.55-137.24-269.92-300.85 1.6-162 126.7-295 277.84-295.52 159.31-.49 286.42 141.59 279.78 312.73-6.25 162.08-134.87 288.84-287.7 283.64z"/><path d="m1890.3 1893.12 232.76 156.27-27.79 44.25-477.61 49-22.4-42.7z" fill="#fff"/></svg>