<svg width="833" height="1066" viewBox="0 0 833 1066" fill="none" xmlns="http://www.w3.org/2000/svg">
<path d="M0.584229 36.96C1.43423 33.96 2.08423 30.87 3.18423 27.96C7.91423 15.46 16.2442 6.81998 29.6942 4.07998C45.5842 0.849979 57.5842 7.54998 67.0142 19.58C69.9542 23.31 72.1142 27.75 74.1742 32.08C120.741 130.08 167.281 228.1 213.794 326.14C219.104 337.31 223.074 348.58 219.274 361.08C218.492 363.611 217.436 366.049 216.124 368.35C212.844 374.21 213.234 382.98 217.624 387.67C218.624 388.67 220.914 388.76 222.624 388.76C256.902 388.836 290.838 381.936 322.364 368.48C403.584 333.66 470.804 281.96 515.374 204.01C522.684 191.23 528.454 177.58 535.124 164.43C537.917 158.593 541.122 152.962 544.714 147.58C551.794 137.48 561.544 134.67 573.634 137.77C589.134 141.77 607.914 161.77 605.384 184.4C600.384 228.65 579.654 263 546.834 291.74C528.034 308.21 509.164 324.43 488.164 338.03C441.284 368.39 390.224 388.65 335.754 400.22C307.401 406.204 278.24 407.351 249.504 403.61L223.274 400.23C224.474 402.83 225.574 405.11 226.604 407.42C233.604 423.17 240.824 438.82 247.524 454.7C250.724 462.31 248.624 467.04 242.114 469.76C235.114 472.68 228.904 470.54 225.564 463.48C214.384 439.8 203.321 416.05 192.374 392.23C190.824 388.86 189.054 387.62 185.084 387.35C168.344 386.21 156.674 377.24 149.554 362.26C124.888 310.44 100.258 258.603 75.6642 206.75C51.9909 156.85 28.3642 106.92 4.78423 56.96C2.97423 53.15 1.96423 48.96 0.584229 44.96V36.96Z" fill="black"/>
<path d="M829.704 1060.16C824.544 1054.44 819.114 1048.93 814.264 1042.97C787.704 1010.3 761.238 977.58 734.864 944.8C716.924 922.42 702.674 897.63 688.864 872.59C650.024 802.22 615.864 729.65 587.474 654.42C574.904 621.1 563.674 587.29 555.654 552.56C550.044 528.24 548.494 503.56 554.054 478.95C559.134 456.46 577.214 442.47 600.224 442.7C608.994 442.79 617.774 443.84 626.534 444.7C628.004 444.84 629.534 446.03 630.734 447.05C654.494 466.86 668.894 492.57 675.484 522.31C680.104 543.13 683.104 564.38 685.624 585.58C693.144 648.58 706.154 710.37 726.084 770.69C756.584 862.96 792.354 953.22 828.944 1043.19C830.944 1048.05 831.334 1053.56 832.474 1058.77L829.704 1060.16Z" fill="black"/>
<path d="M283.224 1065.5C277.334 1062.83 275.634 1059.8 276.454 1053.15C277.694 1043.15 279.134 1033.15 280.554 1023.08C283.104 1005.19 285.714 987.32 288.254 969.43C291.354 947.6 293.574 925.61 297.674 903.98C305.284 863.82 313.154 823.67 322.434 783.87C337.789 717.874 358.824 653.33 385.304 590.96C395.704 566.49 409.214 543.87 428.874 525.45C446.094 509.32 466.574 500.35 489.874 497.81C505.194 496.14 519.394 508.26 522.874 525.66C525.344 538.12 523.614 550.41 521.414 562.73C515.644 595.03 499.054 622.16 480.414 648.19C456.244 681.98 431.254 715.19 411.884 752.19C385.384 802.83 362.884 855.25 342.224 908.45C325.864 950.62 310.804 993.28 295.054 1035.69C291.394 1045.54 287.284 1055.3 283.224 1065.5Z" fill="black"/>
<path d="M46.4943 1062.62H20.9543V658.62H36.5043V648.73H142.094V658.29H157.974V1062.55H132.584V661.42H102.484V1062.48H76.8043V661.48H46.4943V1062.62Z" fill="black"/>
<path d="M416.194 0.849964C461.304 0.849964 498.874 31.85 506.604 76.06C510.824 100.21 502.604 121.66 487.804 140.06C465.324 167.94 435.014 178.24 400.234 172.17C363.664 165.78 339.564 143.82 328.964 107.91C318.194 71.4 337.304 32.67 368.914 14.17C383.464 5.60996 399.094 0.519964 416.194 0.849964Z" fill="black"/>
</svg>
