<svg xmlns="http://www.w3.org/2000/svg" viewBox="0 0 831.89 1064.67"><defs><style>.cls-1{fill:#fff;}</style></defs><title>crocket-white</title><g id="Calque_2" data-name="Calque 2"><g id="Calque_1-2" data-name="Calque 1"><path class="cls-1" d="M0,36.13c.85-3,1.5-6.09,2.6-9C7.33,14.63,15.66,6,29.11,3.25,45,0,57,6.72,66.43,18.75c2.94,3.73,5.1,8.17,7.16,12.5q69.85,147,139.62,294.06c5.31,11.17,9.28,22.44,5.48,34.94a36.58,36.58,0,0,1-3.15,7.27c-3.28,5.86-2.89,14.63,1.5,19.32,1,1,3.29,1.09,5,1.09a252.87,252.87,0,0,0,99.74-20.28c81.22-34.82,148.44-86.52,193-164.47,7.31-12.78,13.08-26.43,19.75-39.58a136,136,0,0,1,9.59-16.85c7.08-10.1,16.83-12.91,28.92-9.81,15.5,4,34.28,24,31.75,46.63-5,44.25-25.73,78.6-58.55,107.34-18.8,16.47-37.67,32.69-58.67,46.29-46.88,30.36-97.94,50.62-152.41,62.19a257.12,257.12,0,0,1-86.25,3.39l-26.23-3.38c1.2,2.6,2.3,4.88,3.33,7.19,7,15.75,14.22,31.4,20.92,47.28,3.2,7.61,1.1,12.34-5.41,15.06-7,2.92-13.21.78-16.55-6.28q-16.77-35.52-33.19-71.25c-1.55-3.37-3.32-4.61-7.29-4.88-16.74-1.14-28.41-10.11-35.53-25.09Q112,283.7,75.08,205.92,39.57,131.07,4.2,56.13c-1.81-3.81-2.82-8-4.2-12Z"/><path class="cls-1" d="M829.12,1059.33c-5.16-5.72-10.59-11.23-15.44-17.19q-39.84-49-79.4-98.17c-17.94-22.38-32.19-47.17-46-72.21-38.84-70.37-73-142.94-101.39-218.17-12.57-33.32-23.8-67.13-31.82-101.86-5.61-24.32-7.16-49-1.6-73.61,5.08-22.49,23.16-36.48,46.17-36.25,8.77.09,17.55,1.14,26.31,2,1.47.14,3,1.33,4.2,2.35,23.76,19.81,38.16,45.52,44.75,75.26,4.62,20.82,7.62,42.07,10.14,63.27,7.52,63,20.53,124.79,40.46,185.11,30.5,92.27,66.27,182.53,102.86,272.5,2,4.86,2.39,10.37,3.53,15.58Z"/><path class="cls-1" d="M282.64,1064.67c-5.89-2.67-7.59-5.7-6.77-12.35,1.24-10,2.68-20,4.1-30.07,2.55-17.89,5.16-35.76,7.7-53.65,3.1-21.83,5.32-43.82,9.42-65.45C304.7,863,312.57,822.84,321.85,783a1174.34,1174.34,0,0,1,62.87-192.91c10.4-24.47,23.91-47.09,43.57-65.51,17.22-16.13,37.7-25.1,61-27.64,15.32-1.67,29.52,10.45,33,27.85,2.47,12.46.74,24.75-1.46,37.07-5.77,32.3-22.36,59.43-41,85.46-24.17,33.79-49.16,67-68.53,104-26.5,50.64-49,103.06-69.66,156.26-16.36,42.17-31.42,84.83-47.17,127.24C290.81,1044.71,286.7,1054.47,282.64,1064.67Z"/><path class="cls-1" d="M45.91,1061.79H20.37v-404H35.92V647.9H141.51v9.56h15.88v404.26H132V660.59H101.9v401.06H76.22v-401H45.91Z"/><path class="cls-1" d="M415.61,0C460.72,0,498.29,31,506,75.23c4.22,24.15-4,45.6-18.8,64-22.48,27.88-52.79,38.18-87.57,32.11C363.08,165,339,143,328.38,107.08c-10.77-36.51,8.34-75.24,39.95-93.74C382.88,4.78,398.51-.31,415.61,0Z"/></g></g></svg>