<svg xmlns="http://www.w3.org/2000/svg" viewBox="0 0 2937.85 2721.55"><defs><style>.cls-1{fill:#fff;}</style></defs><title>Fichier 17</title><g id="Calque_2" data-name="Calque 2"><g id="Calque_1-2" data-name="Calque 1"><path d="M2038.1,1554.35c-18.42-125.37-27.71-238.95-54.49-348.23-12-48.94-50.36-115.89-91.56-129.36-346.4-113.18-320.94-436.45-395.26-698.42-10.32-36.34,72-138.88,113.43-140.1,54.87-1.61,146.64,56.52,160.92,106.55,35.18,123.35,30.61,257.48,51.63,385.7,8.08,49.28,29.72,112.54,66.77,138,140,96.14,239.7,258.8,439.26,264.25,34.87,1,85.78,69.61,96,114.55,8.3,36.6-22.26,102.21-55.5,122.78-39.22,24.27-99.87,13.91-151.24,18.56q-3.95-21.28-7.9-42.55l133.39-69.76q1.71-23.52,3.4-47l-291.07-46.22c32.52,128.87,56.33,223.26,79.26,314.14,451-36.33,692.08,103,780.52,435.8,79.12,297.68-58.62,611.55-322.61,735.12-248,116.08-546.55,38-711.6-186.06C1672.21,2198.06,1728.83,1886.21,2038.1,1554.35Zm63.44,97.28c-256.19,184-322.78,478.75-177.77,725.34,131.63,223.86,409.63,310.29,638.2,198.42,240.9-117.91,351.74-426.64,244.12-679.93-107.44-252.83-343.59-367-608.42-281.23L2402.84,2121l-71.35,32.16Z"/><path d="M1109.25,630.39c21.93,11.4,70.79,27.24,107.66,57.63,154.45,127.3,303.86,260.7,458,388.31,84.22,69.7,93.31,152.75,17.61,218.1-312.5,269.74-304.22,596.09-185.67,947.41,11.07,32.81,20.11,69,17.83,102.73-1.7,25.27-23.13,49.21-35.77,73.74-24.09-13.81-51.45-24.15-71.13-42.66-13.06-12.28-15.44-36.13-22.06-55-162.39-462.38-326.67-924.12-486-1387.54C850.75,761.61,933.71,623.9,1109.25,630.39Zm243.52,823.5,129.63-221.05-198-109.63C1308.84,1241.54,1326.29,1325.92,1352.77,1453.89Z"/><path d="M599.26,2718.2C266.44,2721.65-.73,2445.35,0,2098.44.71,1760.33,263.14,1483,587,1478c326.52-5,598,277.59,598.94,623.45C1186.87,2442,927.31,2714.81,599.26,2718.2ZM589.39,2624c276.61,2.19,502.73-234.69,503.8-527.77,1-277.52-229.83-519.73-496.94-521.42-269.19-1.71-497.1,231.22-503.58,514.66C86.06,2378.43,312.25,2621.83,589.39,2624Z"/><path d="M2058.92,389.34c-117.67-16.21-179.34-84.7-175.94-201.88S1950.8-3.26,2070.58.11c120.23,3.38,180,83.91,177.88,198.26C2246.29,314.84,2177.2,379.1,2058.92,389.34Z"/><path class="cls-1" d="M2101.54,1651.63l229.95,501.49,71.35-32.16-205.17-506.73c264.83-85.76,501,28.4,608.42,281.23,107.62,253.29-3.22,562-244.12,679.93-228.57,111.87-506.57,25.44-638.2-198.42C1778.76,2130.38,1845.35,1835.68,2101.54,1651.63Z"/><path class="cls-1" d="M1352.77,1453.89c-26.48-128-43.93-212.35-68.41-330.68l198,109.63Z"/><path class="cls-1" d="M589.39,2624c-277.14-2.2-503.33-245.6-496.72-534.53,6.48-283.44,234.39-516.37,503.58-514.66,267.11,1.69,498,243.9,496.94,521.42C1092.12,2389.34,866,2626.22,589.39,2624Z"/></g></g></svg>