<svg xmlns="http://www.w3.org/2000/svg" viewBox="0 0 3938.9 3469.7"><title>Fichier 21</title><g id="Calque_2" data-name="Calque 2"><g id="Calque_1-2" data-name="Calque 1"><path d="M693.67,974.39l634.19,304.33,33.19-160.07c288-44.51,392.73,176.7,528,348,57.83,73.26,109.36,133.9,207.93,37.81-174.92-186.42-353.24-370.14-524.13-560.55-145.16-161.73-163.8-284.5-55-340.84,178.09-92.2,219.05,71.18,285,172.69,128.42,197.68,253,398,375.26,599.48,44.65,73.58,96.3,91.12,186.1,101.67,234.58,27.55,465.1,89.62,723,143.3,10.33-18.24,44.67-78.89,100.2-176.92,77.1,350.06,148.19,662.79,211.76,977,6.28,31-25.86,81.61-55,103.11-15.1,11.16-73.26-12.28-93.58-35.91-91.5-106.39-182.17-214.46-261.86-329.73-62.74-90.77-140.9-133.84-242.79-101.31-172.74,55.15-341.7,122.15-505.27,181.63,8.68,51.82,6.92,68,12.57,71.23,310.07,177,435.3,483.81,559.49,792,73.41,182.17,224.75,258.49,385.73,158.44,136.95-85.12,211.09,67.05,327.29,41.38,98.23-21.71,180.75-110.24,309.66-32.85,92.63,55.61,120,98.25,94.16,201.34H0c18.16-65.37,17.67-147.93,50.51-164.53,70.77-35.76,158.45-39,239.79-51.91,13.07-2.07,29.33,22.32,43.82,22,232.64-5.34,465.23-12.67,697.81-20,5-.16,9.84-7.63,14.71-7.58,185.26,1.79,370.57,2.43,555.73,7.86,31.51.93,64.85,37.22,93.19,32.46,185.9-31.26,370.66-9.91,555.81-9.9,107.09,0,211.86-51.46,322,10.75,27.22,15.37,72.86-1.86,134.09-5.57-77.09-256.61-177-479.55-408.8-600.05-253.72-131.9-523.41-232.73-780-359.56-378.93-187.3-702.82-433.22-789.09-881.34C702.52,1301.58,706.5,1154.84,693.67,974.39Z"/><path d="M1817.17,311.55l-230-38.79V474c-148.15-39.83,34.53-290.09-195.33-243.82C1404.18,102.58,1433.62,10.79,1559.92,1,1778.17-15.89,1737,183.18,1817.17,311.55Z"/></g></g></svg>