<svg xmlns="http://www.w3.org/2000/svg" viewBox="0 0 3503.65 4560.97"><defs><style>.cls-1{fill:#fff;}</style></defs><title>escalade-sur-pah-white</title><g id="Calque_2" data-name="Calque 2"><g id="Calque_1-2" data-name="Calque 1"><g id="Calque_2-2" data-name="Calque 2"><g id="Calque_1-2-2" data-name="Calque 1-2"><g id="Calque_2-2-2" data-name="Calque 2-2"><g id="Calque_1-2-2-2" data-name="Calque 1-2-2"><path class="cls-1" d="M3503.65,4463,3390,4561l-348.9-429.54c-141.06-35-252.35-38-336.44-87.41C2207.33,3752,1680,3550.31,1111.36,3445.19c-289.5-53.51-354-212.4-225.25-475.24,114.67-234.19,233.26-466.5,353-698.16,87.35-169,151.16-186.33,305.15-79.13,247.77,172.47,492.63,349.12,761.18,540-6-298,6-557.49-204.18-785-247.47-267.89-461.71-566.47-725.11-895.1-21.08,251.39-46.64,455.31-52.33,659.77-3.73,134.19-54.79,218.79-170.55,282.67-168.49,93-330.16,198.27-495.65,296.76-108.37,64.5-207.38,52.78-269.27-62C322,2106.69,375.17,2009.38,490.09,1953c116.63-57.21,237.08-116.47,362.61-143.52,210.41-45.36,286.83-167,253.25-384.6-36.1,283.38-270.91,290.5-464.58,367.37C817.81,1519.59,997,1260,1154.81,988c45.41-78.27,53.81-197.4,35.54-289.1-36.21-181.7-108.16-356-153.3-536.38-12.16-48.6,18.91-108,30.14-162.49l73.62,2c64.54,210.57,121.32,424,196.59,630.63C1381,752.3,1439.94,872.24,1517,973c256.83,335.36,530.35,658,785.15,994.8,66.82,88.32,103,207.23,128,317.79,27.15,120,40.37,247.7,32.64,370.34-27,428.53,162.24,756.22,441.12,1060C3113.21,3943.74,3293.3,4198.5,3503.65,4463Zm-737-676.57c-180.2-261.09-494.79-480-423.49-849.23l-845.69-421.71c-47.08,148.81-96.34,281.21-127.11,417.77-8,35.27,31.25,103,67.1,123,442.08,247.49,887.55,488.89,1329.15,730.17Z"/><path class="cls-1" d="M0,1566.58c-1.5-150.41,118.11-279.48,262.25-283,142.22-3.47,267.12,121.28,273,272.62,6,154.9-125.83,298.86-271.31,296.36C126.88,1850.2,1.51,1714.34,0,1566.58Z"/></g></g></g></g></g></g></svg>