<svg xmlns="http://www.w3.org/2000/svg" viewBox="0 0 3503.63 4560.99"><defs><style>.cls-1{fill:#fff;}</style></defs><title>Fichier 39</title><g id="Calque_2" data-name="Calque 2"><g id="Calque_1-2" data-name="Calque 1"><path d="M3503.63,4463.1,3390,4561l-348.9-429.54c-141.06-35-252.35-38-336.44-87.41C2207.31,3752,1680,3550.37,1111.34,3445.25c-289.5-53.51-354-212.4-225.25-475.24,114.67-234.19,233.26-466.5,353-698.16,87.35-169,151.16-186.33,305.15-79.13,247.77,172.47,492.63,349.12,761.18,540-6-298,6-557.49-204.18-785-247.47-267.89-461.71-566.47-725.11-895.1-21.08,251.39-46.64,455.31-52.33,659.77-3.73,134.19-54.79,218.79-170.55,282.67-168.49,93-330.16,198.27-495.65,296.76-108.37,64.5-207.38,52.78-269.27-62-66.37-123.07-13.18-220.38,101.74-276.75,116.63-57.21,237.08-116.47,362.61-143.52,210.41-45.36,286.83-167,253.25-384.6-36.1,283.38-270.91,290.5-464.58,367.37C817.79,1519.65,997,1260,1154.79,988c45.41-78.27,53.81-197.4,35.54-289.1-36.21-181.7-108.16-356-153.3-536.38-12.16-48.6,18.91-108,30.14-162.49l73.62,2c64.54,210.57,121.32,424,196.59,630.63C1381,752.36,1439.92,872.3,1517,973c256.83,335.36,530.35,658,785.15,994.8,66.82,88.32,103,207.23,128,317.79,27.15,120,40.37,247.7,32.64,370.34-27,428.53,162.24,756.22,441.12,1060C3113.19,3943.8,3293.28,4198.56,3503.63,4463.1Zm-737-676.57c-180.2-261.09-494.79-480-423.49-849.23l-845.69-421.71c-47.08,148.81-96.34,281.21-127.11,417.77-8,35.27,31.25,102.95,67.1,123C1879.52,3303.85,2325,3545.25,2766.59,3786.53Z"/><path d="M0,1566.64c-1.5-150.41,118.11-279.48,262.25-283,142.22-3.47,267.12,121.28,273,272.62,5.95,154.9-125.83,298.86-271.31,296.36C126.86,1850.26,1.49,1714.4,0,1566.64Z"/><path class="cls-1" d="M2766.59,3786.53C2325,3545.25,1879.52,3303.85,1437.4,3056.38c-35.85-20.07-75.06-87.75-67.1-123,30.77-136.56,80-269,127.11-417.77L2343.1,2937.3C2271.8,3306.58,2586.39,3525.44,2766.59,3786.53Z"/></g></g></svg>