<svg xmlns="http://www.w3.org/2000/svg" viewBox="0 0 5020.49 3334.79"><defs><style>.cls-1{fill:#fff;}</style></defs><title>escrime-white</title><g id="Calque_2" data-name="Calque 2"><g id="Calque_1-2" data-name="Calque 1"><g id="Calque_2-2" data-name="Calque 2"><g id="Calque_1-2-2" data-name="Calque 1-2"><path class="cls-1" d="M2158.11,3215.27c52.56-405,94.77-775.74,154-1143.77,10.51-65.33,80-147.68,142.4-173.48,244.77-101.25,496.83-185.26,747.72-271.18,158.19-54.18,292.42-19.1,412,106.42,445,466.9,896.6,927.45,1340.32,1395.52,41.51,43.78,44.86,123.73,65.94,186.89-60.05-18.46-130.12-22.9-178.59-57.56-468-334.64-929.51-678.54-1400.78-1008.48-77.84-54.5-193.47-56.87-292.83-77.63-29.05-6.07-63.1,14.73-93.38,11-404-49.33-546.65,178.86-592.77,534.48-21.76,167.74-79.32,331.65-130.18,494.31-14.49,46.36-62.37,82.27-94.95,123Z"/><path class="cls-1" d="M3433.38,663.45c78.83,38.54,127.51,55.06,168,83.28,397.82,277.13,795.94,553.92,1188.82,837.93,44.62,32.26,57.6,108.28,85.24,164-56.74-6-125.64,6.74-168.34-20.93C4308,1469,3880.65,1272.49,3431.19,1120.23c-142.8-48.38-234.53-145.5-168.09-300.84C3291.57,752.86,3378.61,711.38,3433.38,663.45Z"/><path class="cls-1" d="M0,952.37,2828.71,802.92c5,92.31,11,202,16.31,299.28Z"/><path class="cls-1" d="M2938.69,582c-180.69-37.3-201.4-157-199.18-286.56,2.14-125,36.88-230.67,199.18-259.1Z"/><path class="cls-1" d="M3038.81,562.16V41.54L3079.88,0c52.54,46.78,140.53,86.44,151.62,141.56C3285.47,410,3240.23,498.78,3038.81,562.16Z"/></g></g></g></g></svg>