<svg xmlns="http://www.w3.org/2000/svg" viewBox="0 0 4107.08 3293.97"><defs><style>.cls-1{fill:#fff;}</style></defs><title>expression-gymnique-white</title><g id="Calque_2" data-name="Calque 2"><g id="Calque_1-2" data-name="Calque 1"><g id="Calque_2-2" data-name="Calque 2"><g id="Calque_1-2-2" data-name="Calque 1-2"><path class="cls-1" d="M2136.89,1015.16c-39.4-14-97.43-28.66-150.23-54.2C1436.25,694.71,885.88,428.34,338.26,156.42,289.83,132.38,260.94,69,223,23.88,286,16.62,355.63-11.66,411.3,5.37c526.91,161.22,1043.84,363.85,1579.37,485,355.41,80.39,736.32,56,1106.09,62.41,299.59,5.19,599.57-16,899.44-18.8,36.77-.34,73.91,41.1,110.88,63.18-29.63,30.64-55.4,82.61-89.45,88.75C3398.23,797.74,2777.84,904.06,2136.89,1015.16Z"/><path class="cls-1" d="M13,3293.94c-48.78-164.11,49-148.44,133.53-148.41q720.36.18,1440.73,0h207.13c-15.24-145.72-40.76-269.64-38.68-393.09,5.64-333.83,14.06-668.15,39.4-1000.9,13.35-175.36,125.71-256.73,257-226.26,133.28,30.92,189.65,171.8,129,337-37.18,101.26-73.33,205-127.24,297.62-178.76,307-102.06,639.08-128.17,973.9h217.1c-120.44-338.08-221-668.35,3.17-959.72q56.13,453.48,120.23,971.38h660.32c330.17,0,660.38-2.32,990.44,3.56,37.11.66,73.39,48,110,73.76-33.28,23.72-66.5,68.1-99.85,68.19C2625.36,3294.47,1323.43,3293.94,13,3293.94Z"/><path class="cls-1" d="M2499.33,1814.67c129.81-4.91,250.38,111.65,257.6,249,7.35,139.75-116.94,276.19-251.2,275.74-131.33-.43-241.47-118-243.57-260.1C2260,1937.46,2365.55,1819.73,2499.33,1814.67Z"/></g></g></g></g></svg>