<svg xmlns="http://www.w3.org/2000/svg" viewBox="0 0 3700.92 4063.17"><title>Fichier 24</title><g id="Calque_2" data-name="Calque 2"><g id="Calque_1-2" data-name="Calque 1"><path d="M1927.46,2380.32c-130,189.39-254.87,364-371.42,544-74.33,114.81-166.35,142.34-294.38,104.68-369.07-108.56-741.05-207.46-1108.33-321.6C93,2688.64,50.65,2612,0,2562.06c68.5-20.58,140-65.61,205-57.56q442.08,54.83,880.6,137c137.21,26,205.37-2,251-143.94,65.83-205,153.19-404.24,245.57-599.21,118.5-250.11,325.68-270.77,515.3-70.4,546.28,577.22,839.87,1297.88,1145.15,2011.46,17.49,40.87-16.17,103.62-26,156.18-46.38-28.82-109.83-46.79-136.23-88.32-123.11-193.7-235.89-394-352.56-591.78-102.94-174.53-185.81-366.13-315-518.48C2283.8,2644.85,2108.39,2532.07,1927.46,2380.32Z"/><path d="M1855.07,557.87c58.46,68.23,164.86,137.85,175.23,219.64,10.7,84.42-54.22,197.76-119.81,266-47.48,49.41-149.21,58.61-228.21,63.86-428,28.45-805.93,195.24-1174.62,399-75.17,41.54-177.51,33.92-267.32,49,54-67.78,98.06-147.84,163.74-201.3,373.54-304,785.45-544.2,1235.8-716.91C1696.07,615.57,1752.82,595.47,1855.07,557.87Z"/><path d="M2410.52,858.2c37.66,21,65.38,28.55,81.17,46.53,274.78,312.94,646,445.86,1030.07,555.47,38.71,11,83,18.15,112.27,42.24,30.23,24.91,45.23,68.31,66.89,103.62-33.5,15.32-70.45,48.82-100,43.21-394.51-75-806.19-93.17-1157.24-318.53-44.55-28.6-73.83-111-75.49-169.52C2365.61,1068.86,2392.38,975.66,2410.52,858.2Z"/><path d="M2624.54,317.79c.23,170.82-140.1,318.22-301.38,316.57-162.1-1.66-300.71-149.31-299.16-318.7C2025.58,141.91,2161,0,2325.19,0,2488.31,0,2624.3,144.4,2624.54,317.79Z"/><path d="M2426.91,4063.07c-169.52,4.22-308.65-132.32-310.23-304.44s136.15-314.39,303.54-313.43c164,.94,287.51,125.33,294.72,296.74C2722.43,3920.32,2598.23,4058.81,2426.91,4063.07Z"/></g></g></svg>