<svg xmlns="http://www.w3.org/2000/svg" viewBox="0 0 3290.01 3351.14"><defs><style>.cls-1{fill:#fff;}</style></defs><title>football-americain-white</title><g id="Calque_2" data-name="Calque 2"><g id="Calque_1-2" data-name="Calque 1"><g id="Calque_2-2" data-name="Calque 2"><g id="Calque_1-2-2" data-name="Calque 1-2"><path class="cls-1" d="M1882.76,2203.18c-22-23.21-28.75-34.46-38.67-40.16-270-155-269.51-154.31-496.68,52.19C955.16,2571.79,563.44,2929,167.6,3281.54c-42.67,38-111.11,47.1-167.6,69.6,10.65-63.44.32-143.31,35.16-187.82q629.22-803.78,1271.84-1597c147.5-181.31,257.35-186.67,450-41,182.45,137.9,360,282.64,534.38,430.74,148.14,125.85,153.4,238.45,1.57,358.66-325.67,257.83-658.54,506.78-994.15,751.59-39.71,29-114.85,9.38-173.57,12.29,15-57.43,12-131.93,47.79-169.48,203.48-213.46,416.17-418.14,625.86-625.67C1824,2258.54,1850,2234.52,1882.76,2203.18Z"/><path class="cls-1" d="M2263.51,1220.05h145l-43.76-30.34,224.77-474.28c37.18,171.87,62.48,301.39,94.91,429.09,7.27,28.63,39.48,50.94,60.2,76.16,23.46-22.58,49.4-43.21,69.34-68.56,10.15-12.89,4.27-38.58,14.58-51.14,69.1-84.13,140.61-166.28,211.33-249.07C3121,933.28,3251.41,1004,3271.7,1098.48c31.94,148.66,22,324.73-29.17,468.2-65,182.26-207.67,183.91-328.42,29.64-39.9-51-69-110.38-106.19-171-197.66,31.55-393.26,61.13-588.23,94.47-121.73,20.82-194.58-21.47-226.33-144.56-46.53-180.42-106-357.6-149.55-538.65-37.45-155.59,46.13-280.3,182.86-294.17,133.15-13.51,228.48,76,235.49,234C2268.52,920,2263.51,1064.05,2263.51,1220.05Z"/><path class="cls-1" d="M2477.52,0c155.49.12,280.35,133,275.25,292.82-4.89,152.76-128.18,279.71-272.68,280.75-153.68,1.11-274.83-131.38-270.68-296C2213.46,116.48,2326.1-.12,2477.52,0Z"/></g></g></g></g></svg>