<svg xmlns="http://www.w3.org/2000/svg" viewBox="0 0 4798.89 3313.3"><title>Fichier 25</title><g id="Calque_2" data-name="Calque 2"><g id="Calque_1-2" data-name="Calque 1"><path d="M3701.52,217.51,243.45,2257.58c26.24,218.22,195.78,420.54,65.68,656.48C100.86,2866.58,35.5,2718.8,7.87,2550.89c-30.78-187.1,27-334,203.8-437.45Q1745.2,1215.62,3272.79,307.69c161.76-95.79,311.84-213.94,480.45-294.17,61.85-29.43,203.69-8.42,237.66,39.84,273.45,388.36,537,784.34,784.39,1189.73,41.31,67.7,25.6,220.78-25.6,285.42-200,252.56-424.89,485.45-681.43,708.12l180.72-954,73.19,5.73c-76.71-152.57-153.41-305.16-240.62-478.64C4060,849.14,4042,866.32,4043.3,882c56.91,706.52-137.89,1377.05-295.74,2052.14-71.2,304.5-264,436.25-492.47,356.28-240-84-323.46-320.28-204.61-601.12,88.15-208.31,165.17-425.38,283.21-616.25C3678.5,1515.46,3637.62,889.93,3701.52,217.51Z"/><path d="M3134.36,1878.31c-3.27,295.55-230.12,530.17-509.21,526.63-279.39-3.53-495.2-242.34-489.87-542.08,5.09-286.32,223.68-514.91,494.66-517.28C2905.11,1343.16,3137.57,1588.67,3134.36,1878.31Z"/></g></g></svg>