<svg xmlns="http://www.w3.org/2000/svg" viewBox="0 0 150.43 259.19"><defs><style>.cls-1{fill:#fff;}</style></defs><title>gymnastique-volontaire-white</title><g id="Calque_2" data-name="Calque 2"><g id="Calque_1-2" data-name="Calque 1"><g id="Calque_2-2" data-name="Calque 2"><g id="Calque_1-2-2" data-name="Calque 1-2"><path class="cls-1" d="M149.93,193.72c-3.28,18.16-5.44,36.53-8.71,54.7-.69,3.85-4.15,7.19-6.33,10.77-1.74-3.68-4.61-7.25-5-11.07-.78-8-.24-16.14-.24-24.22h.66v-1.15c.77-30,.7-29.85-27.24-40.76-5.87-2.3-9.74-2.35-13.61,3.27C69.19,214.69,40.36,234.82,12,255.38c-3.11,2.25-8,2.07-12,3,1.23-4.18,1.82-8.72,3.89-12.43,1.8-3.23,5.12-5.72,8-8.19C37,216.65,56,191.08,70.49,161.66c9.62-19.53,15.72-20.47,34.49-9.18,12.2,7.33,24.07,15.25,36.51,22.16,8.11,4.5,10,10.29,8.44,19.08"/><path class="cls-1" d="M93.79,2.61c2.32-4.86,9.29-2.53,9.47,3.65,1.1,26.12,2.38,51.38,3.13,76.67.41,13.8-3.77,23.55-13.46,22.81C83,105,80.21,94,81.43,80.62,83.7,55.54,89.53,28.73,93.79,2.61Z"/><path class="cls-1" d="M126.64,64.06c9,.65,14.07,5.46,14.83,14.35s-5.55,15.84-14,16.1a14.64,14.64,0,0,1-15-14.26c0-.35,0-.71,0-1.06C113,70.6,117.67,65.12,126.64,64.06Z"/></g></g></g></g></svg>