<svg xmlns="http://www.w3.org/2000/svg" viewBox="0 0 2769.93 2785.17"><title>51</title><g id="Calque_2" data-name="Calque 2"><g id="Calque_1-2" data-name="Calque 1"><path d="M975.77,1744.58c-18-6.38-44.5-13.08-68.6-24.75-251.34-121.57-502.66-243.21-752.72-367.38-22.12-11-35.31-39.92-52.65-60.52,28.82-3.32,60.57-16.23,86-8.45,240.6,73.62,476.65,166.14,721.2,221.46,162.29,36.71,336.23,25.58,505.08,28.5,136.8,2.37,273.79-7.33,410.72-8.59,16.79-.15,33.75,18.77,50.63,28.86-13.53,14-25.3,37.72-40.85,40.52C1551.74,1645.3,1268.45,1693.85,975.77,1744.58Z"/><path d="M6,2785.16c-22.27-74.94,22.36-67.78,61-67.77q329,.09,657.89,0H819.4c-6.95-66.54-18.61-123.13-17.66-179.5,2.58-152.44,6.42-305.1,18-457.05,6.1-80.07,57.41-117.23,117.37-103.32,60.86,14.12,86.6,78.46,58.91,153.9-17,46.24-33.49,93.63-58.1,135.9C856.28,2407.5,891.3,2559.14,879.38,2712h99.14c-55-154.38-100.91-305.19,1.44-438.24q25.63,207.06,54.9,443.56h301.53c150.77,0,301.55-1.06,452.27,1.63,16.95.3,33.51,21.94,50.26,33.68-15.2,10.83-30.37,31.1-45.6,31.14C1198.82,2785.4,604.31,2785.16,6,2785.16Z"/><path d="M1141.27,2109.67c59.28-2.24,114.33,51,117.63,113.72,3.36,63.81-53.4,126.11-114.71,125.91-60-.2-110.26-53.9-111.22-118.77S1080.18,2112,1141.27,2109.67Z"/><path d="M2480.37,1038.45c63.1-111.31,120.9-213.52,179-315.54,12.19-21.4,22.16-45.73,39.45-62,13.35-12.6,36.55-14.76,55.37-21.56,5.29,18.77,20.17,41.39,14.42,55.74-68.15,170.22-137,340.25-211.2,507.91-23.13,52.28-75.23,58.36-117.23,22.27q-171.32-147.2-335-303.12c-20.69-19.78-31.5-58.74-32.21-89.19-6-257.66-66.16-503.42-152.13-744.69-8.93-25,6.05-58.62,9.94-88.24,22.82,18.86,56.52,33.12,66.74,57.31,84,198.74,176.91,395.26,240.33,600.72C2284,807.42,2378,913.84,2480.37,1038.45Z"/><path d="M1818.5,1597c-12.37-42-20.73-60.91-23.28-80.56-24.26-186.71-47.4-373.57-71.16-560.35-9.07-71.32,24.57-125.38,79.2-111.49,31,7.87,76.66,49,76.28,74.49-3.11,207.69-15.25,415.26-25.94,622.8C1853,1552.69,1840.69,1562.93,1818.5,1597Z"/><path d="M1774.06,688.1c6.34,60.45-42,119.28-105.13,121-63.5,1.71-111.32-24.91-122.26-93.53-9.9-62.11,35.26-117.19,99.77-125.22C1709.32,582.5,1767.67,627.21,1774.06,688.1Z"/></g></g></svg>