<svg xmlns="http://www.w3.org/2000/svg" viewBox="0 0 3496.28 3612.24"><defs><style>.cls-1{fill:#fff;}</style></defs><title>gymnastique-rythmique-white</title><g id="Calque_2" data-name="Calque 2"><g id="Calque_1-2" data-name="Calque 1"><g id="Calque_2-2" data-name="Calque 2"><g id="Calque_1-2-2" data-name="Calque 1-2"><path class="cls-1" d="M918.41,3007c195.8,138.32,375.62,265,555.05,392.35,37.64,26.71,81.13,49.82,108.32,85.08,21,27.24,20.73,70.88,29.92,107.23-36,6.39-80.91,29.93-106.61,16.55-304.71-158.68-608.93-318.66-907.73-488.08-93.19-52.85-94.84-151.12-19.76-222.71q306.26-292.07,627.4-568.28c40.73-34.9,115.36-47.83,172.26-43.5,481.51,36.68,950.89-29.87,1416.69-145.35,48.36-12,108.17,22.18,162.66,34.93-39.4,39-72.24,99.21-119.23,113.79-386.16,119.78-769.8,256.42-1164.63,336.52C1385.6,2683.74,1169.75,2839.19,918.41,3007Z"/><path class="cls-1" d="M2685.47,3266.55c21.29-23.56,39.57-51.05,64.33-70.1,603-464.17,756.58-1092.2,619.39-1801.21-135-697.4-589.61-1105.42-1269.93-1272.17-322.39-79-332.56-81.81-483.43,211.45-109.68,213.2-213.59,435.46-273.61,665.79-34.76,133.41,22.48,290.8,39.88,452L1148.64,1472c-8.77-249.19-29.31-482.76,121.46-702,142.06-206.53,259.57-430.87,376.9-653.21C1702,12.34,1771.22-8,1881.18,2.45,2903.3,100.24,3617.67,999.7,3479.09,2019.63c-61.34,451.4-222,853.52-577.46,1157.12-57.33,49-126.18,84.44-189.71,126.15Z"/><path class="cls-1" d="M0,1669.27C80.65,1654,117.42,1642,154.52,1640.82c352.62-10.55,705.3-19,1058-28.61,134.65-3.67,229.19,69.09,193.15,168.37-20.41,56.25-105.5,133.82-153,128.37C866,1864.59,481.28,1803.41,96.33,1745,76.12,1741.88,59.32,1717,0,1669.27Z"/><path class="cls-1" d="M1702.76,1755.19c-113.88.59-214.59-100.37-206-218.47,8.61-118.72,67.12-202.93,197.09-210.58,117.64-6.92,212,87.51,214.93,209.26C1911.67,1654.09,1817.48,1754.59,1702.76,1755.19Z"/></g></g></g></g></svg>