<svg xmlns="http://www.w3.org/2000/svg" viewBox="0 0 3861.2 4731.44"><defs><style>.cls-1{fill:#fff;}</style></defs><title>Fichier 26</title><g id="Calque_2" data-name="Calque 2"><g id="Calque_1-2" data-name="Calque 1"><path d="M1893.57,2483.65c124,99.13,235.21,149.21,285.56,235,216.5,368.87,420.19,745.59,618,1124.93,93.39,179.07,32,283-168.14,301.76-230.52,21.64-462.79,47.87-693.36,41-507-15.15-929.88,237.64-1380,405.29C437.41,4635.68,323.1,4693,202,4725.74,140.37,4742.38,67.67,4717.9,0,4712c37-65.23,57.81-156.13,113.71-191.39,296.64-187.11,596.56-370.8,906.82-533.84,157-82.49,239.76-190.82,290.52-356.42,88.27-288,187-574.37,307.69-849.91C1665.42,2673.84,1783.66,2598.57,1893.57,2483.65Zm98.64,871c-104.73,199-192.76,366.31-300.61,571.24l638-104.46Z"/><path d="M944.24.27c35.78,39,150.59,108.27,163.08,192.64,14.41,97.29-31.82,259.85-104.65,301.5C870.26,570.14,870.22,650.16,895.43,766.46c39.76,183.4,18.63,426.55,129.9,534.09,100,96.61,343.63,43.25,523.68,58.63,199.59,17,298.57,127.37,268.12,294.66-28.48,156.42-149.39,220.7-339,177.13-102.53-23.56-205-48.22-305.85-78.17-516.18-153.3-432-31.53-490-616.13-27.59-278.44-54.12-557-81.7-835.42C583.92,132.62,708.73-7,944.24.27Z"/><path d="M2423.65,1997.35V1625.14c16.7-4.77,34.41-15.91,41.88-11.1,371.35,238.47,778.27,240.41,1196.51,191.45,63.11-7.39,132.62,39.92,199.16,61.92-54.17,40.43-102.79,101.94-163.41,117.87C3275.34,2096.32,2850.45,2203.52,2423.65,1997.35Z"/><path d="M2394.2,1018c-.31,171.44-135.91,318.35-298.62,323.55-167.62,5.35-319.2-153-314.47-328.63,4.7-174.17,141.56-311,309.4-309.39C2257.58,705.17,2394.52,847,2394.2,1018Z"/><path class="cls-1" d="M1992.21,3354.67l337.39,466.78-638,104.46C1799.45,3721,1887.48,3553.69,1992.21,3354.67Z"/></g></g></svg>