<svg xmlns="http://www.w3.org/2000/svg" viewBox="0 0 90 90"><defs><style>.cls-1{fill:#fff;}</style></defs><title>HELP-white</title><g id="Calque_2" data-name="Calque 2"><g id="Calque_1-2" data-name="Calque 1"><g id="Calque_2-2" data-name="Calque 2"><g id="Calque_1-2-2" data-name="Calque 1-2"><path class="cls-1" d="M45,0A45,45,0,1,0,90,45,45,45,0,0,0,45,0Zm0,85.21A40.21,40.21,0,1,1,85.21,45,40.21,40.21,0,0,1,45,85.21Z"/><path class="cls-1" d="M45.09,59.14a4.43,4.43,0,1,0,4.43,4.43,4.43,4.43,0,0,0-4.43-4.43Z"/><path class="cls-1" d="M56,25.3A17.09,17.09,0,0,0,45.4,22a17.9,17.9,0,0,0-10.6,3.65A12.47,12.47,0,0,0,30,33.53l-.19.93L35,35l.19-.72a10.46,10.46,0,0,1,3.71-5.67,10.28,10.28,0,0,1,6.5-2.07,10.88,10.88,0,0,1,6.87,2A7,7,0,0,1,55,34.37a5.82,5.82,0,0,1-1,3.21,17.82,17.82,0,0,1-4,3.75,28.75,28.75,0,0,0-5.71,5.25,11.74,11.74,0,0,0-1.93,6.88l.07,1.27H47.7v-.82a11.91,11.91,0,0,1,1-4.78c.63-1.14,2.16-2.63,4.69-4.57A21.33,21.33,0,0,0,58.63,39a9.16,9.16,0,0,0,1.52-5A10.6,10.6,0,0,0,56,25.3Z"/></g></g></g></g></svg>