<svg xmlns="http://www.w3.org/2000/svg" viewBox="0 0 877.24 929.89"><defs><style>.cls-1{fill:#fff;}</style></defs><title>hockey-sur-glace-white</title><g id="Calque_2" data-name="Calque 2"><g id="Calque_1-2" data-name="Calque 1"><path class="cls-1" d="M565.11,443.08c-3.67-12.72-7.34-24-10.18-35.53-6.36-25.84-8.38-52.1-7.06-78.69a447.27,447.27,0,0,1,14.41-92.41c3.3-12.5,8.49-24.17,18-33.42,9.74-9.51,20.89-14.51,34.34-8.69,14.37,6.21,23.36,17,24.49,33,1.59,22.52-3.41,44.33-8.48,66s-7.48,43.88-9.4,66.06c-1.53,17.56-3.35,35.13-3.9,52.73-1.06,34,8.16,66.1,21.14,97.11,5.44,13,12.35,25.37,18.68,38,.89,1.76,1.94,3.73,3.48,4.81,6,4.23,7.92,10.83,10.41,17.12L775,831.7c5.21,13.11,10.55,26.23,19.74,37.29,7.91,9.51,18.18,14.86,30.17,17,7.66,1.39,14.55-.82,20.44-5.77,3.93-3.32,7.54-7,11.28-10.58,4.53-4.31,10.34-4.91,15.48-1.58,4.86,3.15,6.21,7.3,4.17,13.48-4.51,13.6-14.16,22.51-27.64,25.7-27.42,6.49-52.64,2.11-72.83-19.27-9-9.53-15.06-21.08-19.84-33.21q-53.43-135.48-106.7-271a27.45,27.45,0,0,0-12.84-15c-13.34-7.43-27.31-14.35-39.1-23.87-47.07-38-89-80.67-116.91-135.34-14.9-29.23-24.25-60.35-29.79-92.56-5.85-33.94-9.93-68.12-10.16-102.63-.11-15.85,1.12-31.58,6.8-46.61,5.31-14,13.4-25.58,27.87-31.54,15.77-6.5,33.41.44,41.26,15.66,9.62,18.65,12,38.49,11.2,59-.82,21-2.66,42-2.2,62.89.31,14.51,3.48,29,5.82,43.41,3.77,23.27,7.47,46.57,12,69.69C547.13,406.39,555.51,424.3,565.11,443.08Z"/><path class="cls-1" d="M289.33,928.63a14.57,14.57,0,0,1,1.12-2c32.48-41.67,58-87.52,80.9-134.91,14-28.9,26.26-58.45,32.52-90.15a243.6,243.6,0,0,0,2.84-78.44c-2.27-17.78-4.35-35.65-8.06-53.16-5-23.8-17.18-44.79-28.77-65.94s-23.13-42.24-33.62-63.89c-7.55-15.58-12.38-32.49-13.08-49.8a102.32,102.32,0,0,1,4.2-33.81c5.76-18.58,26-26.19,48.56-20.59,18.38,4.56,31.88,16,43.59,30,17.83,21.47,28.71,46.68,36.9,72.93,11.34,36.31,19.3,73.47,25.73,111,8.88,51.83,2.93,102.1-16.86,150.55-11.91,29.17-24.39,58.22-38.6,86.32-16.56,32.74-42,59-68.19,84.19-17.41,16.7-35.44,32.75-53.45,48.82-4.42,4-9.82,6.82-14.76,10.18Z"/><path class="cls-1" d="M1.15,555.34c15.62,3.73,31.29,7.29,46.85,11.25,20.1,5.12,40.41,7.86,61.2,6.78,23.27-1.2,46.48-2.75,69.07-9a142.41,142.41,0,0,0,45.41-22.08c11.56-8.3,13-18.82,11.55-31.54-4.87-41.54-16.41-81.62-26-122.14-5.29-22.33-7.87-45-2.51-67.66a72.52,72.52,0,0,1,8.44-21.05c10-16.28,27.38-20.62,43.55-10.32a87.34,87.34,0,0,1,20.58,19.22C298,332.42,307.84,360.17,315.51,389c10,37.76,12.28,76,9.7,114.76a227.43,227.43,0,0,1-8.33,49c-7.77,26.51-26.37,44.13-48.06,59.13-18.94,13.08-40.16,19-63.11,20.5-51.93,3.34-101-8.3-148.72-27.23-19.28-7.65-34.91-20.48-48.43-35.93-3.32-3.79-5.73-8.38-8.56-12.61Z"/><path class="cls-1" d="M553.7,88.26C553.51,40,593.06.26,641.45,0c48.22-.23,88.21,39.34,88.49,87.57S690.66,176,642.62,176.26a88.27,88.27,0,0,1-88.92-88Z"/></g></g></svg>