<svg xmlns="http://www.w3.org/2000/svg" viewBox="0 0 5053.25 1557.56"><defs><style>.cls-1{fill:#fff;}</style></defs><title>hockey-subaquatique-white</title><g id="Calque_2" data-name="Calque 2"><g id="Calque_1-2" data-name="Calque 1"><g id="Calque_2-2" data-name="Calque 2"><g id="Calque_1-2-2" data-name="Calque 1-2"><path class="cls-1" d="M0,1415.22C686.48,1081.6,1416.1,897.69,2208.87,814.13,2148,682.9,2095.47,569.55,2040.74,451.52c-326.56,117.22-631.38,234-942,332.27-66.09,20.92-153.41-25.22-230.94-40.47C908.89,680.48,935.44,591,993.55,559.21,1323.12,378.63,1661.67,214.53,1994.11,39,2129.72-32.53,2235.24-3.83,2324,110c166.89,214,331,430.08,496.63,645,133.22,172.88,165.38,346.2,20.68,532.89-153.65,198.26-391.83,304.94-604.76,219.58-148.15-59.4-274.34-6.93-410.56-6.17-327.16,1.81-656.39,16.73-981.67-1.93-140.07-8-262.63-38.82-410.36,3.5-131.82,37.77-287.68-8.32-432.93-17.4Q.53,1450.34,0,1415.22Z"/><path class="cls-1" d="M3827.46,1135.61c-2.78,221.23-164.77,393.7-372.52,396.6-213.39,3-389-181.68-387.07-407,1.93-227.26,177.66-401.45,396.77-393.29C3676.64,739.77,3830.29,910.75,3827.46,1135.61Z"/><path class="cls-1" d="M5053.25,1415.34c-101.34,37.9-208.6,118.69-302.94,105.7-288.53-39.72-572.93-65.17-888.78,36.52,58.36-172.39,101-298.53,157.14-464.23l1026.46,248.61Z"/></g></g></g></g></svg>