<svg xmlns="http://www.w3.org/2000/svg" viewBox="0 0 446.53 458.74"><defs><style>.cls-1{fill:#fff;}</style></defs><title>hockey-en-salle-white</title><g id="Calque_2" data-name="Calque 2"><g id="Calque_1-2" data-name="Calque 1"><path class="cls-1" d="M280.24,200c2.82-28.92,5.15-53.52,7.71-78.1a35.62,35.62,0,0,1,2.84-9.86c4.12-9.9,9.41-19.19,22.14-17.57,10.44,1.32,16.71,13.29,14.74,26.84q-4.34,29.81-9.21,59.53c-4.22,25.53.36,49.6,10.48,73.14,20.87,48.52,41.32,97.22,62,145.84,3.06,7.21,5.71,14.67,9.53,21.47,8.12,14.5,17.68,16.48,32,8,2.52-1.5,6.13-1.15,9.24-1.65-.14,3.53.94,7.77-.64,10.45-6.72,11.48-26.84,14-39.2,3.22a75.56,75.56,0,0,1-19.22-27c-16.6-39.75-31.72-80.13-47.93-120-2.4-5.92-6.62-12.49-11.87-15.65-65.7-39.59-93.48-99.34-93.45-173.92,0-8.59,1.32-18.38,5.63-25.39,3.69-6,12.6-12,19.12-12,5.36.07,13.56,8.29,15.26,14.37,3.09,11,2.1,23.16,3.13,34.81C274.89,143.2,277.43,169.78,280.24,200Z"/><path class="cls-1" d="M178.4,447.46c-10-8.6-20.32-16.8-29.65-26-2.95-2.91-3.14-8.61-4.59-13l4.62-2.11,14.65,10.13c31.64-45.06,63.82-89.52,44.45-149.21-4.73-14.69-15.13-27.37-21.64-41.57-5.64-12.26-11.75-25-13.56-38.15-2.67-19.32,12.88-30.11,30-20.39,11.22,6.36,22.62,16.87,28,28.32,35.53,75.16,28.27,143-41.18,205.24-6.79,6.18-13.53,12.46-21.35,19.58l31.48,26.85-6.86,8.7-11.4-5.65Z"/><path class="cls-1" d="M27.93,262.05l15.27-5.83-4.39,18.57c23.58,9.84,47.07,8.45,70.4,1.4,20.7-6.27,25.55-14.87,21.66-36.23-3.87-21.2-8.52-42.26-12.1-63.51-2.67-15.85,3.52-33.45,12.58-34.81,15.88-2.39,22.71,10.11,28.07,21.51,15.31,32.61,17.79,67.42,11.28,102.19-6.26,33.43-34.43,50.9-71.11,45.7-23.27-3.3-46.37-8.35-65.46-26.84-4.31,10.42-8.43,19.69-12,29.17C19,321.83,14.62,322.53,8,316.64l20.29-55Z"/><path class="cls-1" d="M284.89,43.77C284.76,20.54,304.38.49,327.7,0c23.08-.47,43.3,19.16,43.93,42.66s-20.14,44.75-43.57,44.59C305.22,87.1,285,66.75,284.89,43.77Z"/><path class="cls-1" d="M430,421.14c-11.43-.62-18.1-6.42-18.16-17.4s6.8-17.61,17.6-17.54c10,.06,16.67,6.24,17.06,16.6C446.93,413.9,440.6,419.83,430,421.14Z"/><circle class="cls-1" cx="174.19" cy="452.24" r="6.5"/><circle class="cls-1" cx="150.65" cy="431.88" r="6.5"/><circle class="cls-1" cx="6.5" cy="299.96" r="6.5"/><circle class="cls-1" cx="18.06" cy="271.06" r="6.5"/></g></g></svg>