<svg xmlns="http://www.w3.org/2000/svg" viewBox="0 0 3503.72 3591.63"><defs><style>.cls-1{fill:#fff;}</style></defs><title>hockey-sur-glace -white</title><g id="Calque_2" data-name="Calque 2"><g id="Calque_1-2" data-name="Calque 1"><g id="Calque_2-2" data-name="Calque 2"><g id="Calque_1-2-2" data-name="Calque 1-2"><path class="cls-1" d="M2052.12,2122.55c-115.33,165.25-253.84,319.27-340.66,498.35-134.89,278.24-231,575.07-352.82,860.06-20.17,47.21-87.41,74.29-132.91,110.67-12.86-57.82-47.69-121-35-172.61,89.41-364.75,164.48-736,293.47-1087,80-217.84,245.37-404.7,374.87-603.86,55.23-85,104.48-180.1,179.12-244.24,64.72-55.61,176.88-118.9,240-97.2,74.7,25.7,155,132.63,169.62,215.5,31.86,180.63,28.56,368.3,29.92,553.16.79,106.39,42.92,142,147.19,151.82,249.27,23.42,497.84,56.86,745.25,95.49,47.88,7.48,89.2,57,133.55,87.11-48.4,30.8-95.63,86-145.4,88.43-321.78,15.44-644.14,18.28-966.25,27.58-128.52,3.71-200.31-51.06-221.21-180.89-14.93-92.76-43-183.4-65.19-275Z"/><path class="cls-1" d="M120.56,2631.45l-24.24,184c50.37-28.08,91.58-43.35,123.2-70,141.58-119.39,269.83-257.79,422.35-360.4,388.88-261.61,611.78-623.87,689.35-1077.93,25.65-150.08,21-305.35,32.25-493.54,68.61,166.94,295.2,216.33,218,429.43-53.77,148.33-122.07,291.4-148.93,462.83L2084,971.9c-129.58-80.6-247.14-148.57-359.14-224.72C1592.42,657.1,1559,529.75,1633,428.23s199.56-99.6,325.1,19.81c121,115.09,232.25,240.54,345.83,363.27,77.21,83.43,84.43,162.81-9.3,246Q1282.38,1955.75,272.69,2857.09c-82.18,73-188.72,124.19-261.29,14.56-32.87-49.67,14.21-153.48,29.93-231.74C42.58,2633.68,82.23,2635.16,120.56,2631.45Z"/><path class="cls-1" d="M1588.26,259.28c-3.38,137.33-119,251.72-251,248.35-132.34-3.38-239.85-121.94-236.66-261C1103.87,104.68,1213-3.55,1349.27.09,1480.81,3.61,1591.59,123.75,1588.26,259.28Z"/><path class="cls-1" d="M331,3534.72c-51.7-72.58-108.57-117.59-104.75-156.65,4-40.64,66.58-75.55,103.54-113,36.51,37.12,98.31,71.73,102.3,112.07C436,3416.58,380.87,3461.82,331,3534.72Z"/></g></g></g></g></svg>