<svg width="878" height="930" viewBox="0 0 878 930" fill="none" xmlns="http://www.w3.org/2000/svg">
<path d="M565.462 443.135C561.792 430.415 558.122 419.135 555.282 407.605C548.922 381.765 546.902 355.505 548.222 328.915C549.78 297.693 554.609 266.72 562.632 236.505C565.932 224.005 571.122 212.335 580.632 203.085C590.372 193.575 601.522 188.575 614.972 194.395C629.342 200.605 638.332 211.395 639.462 227.395C641.052 249.915 636.052 271.725 630.982 293.395C625.912 315.065 623.502 337.275 621.582 359.455C620.052 377.015 618.232 394.585 617.682 412.185C616.622 446.185 625.842 478.285 638.822 509.295C644.262 522.295 651.172 534.665 657.502 547.295C658.392 549.055 659.442 551.025 660.982 552.105C666.982 556.335 668.902 562.935 671.392 569.225C706.059 656.732 740.725 744.242 775.392 831.755C780.602 844.865 785.942 857.985 795.132 869.045C803.042 878.555 813.312 883.905 825.302 886.045C832.962 887.435 839.852 885.225 845.742 880.275C849.672 876.955 853.282 873.275 857.022 869.695C861.552 865.385 867.362 864.785 872.502 868.115C877.362 871.265 878.712 875.415 876.672 881.595C872.162 895.195 862.512 904.105 849.032 907.295C821.612 913.785 796.392 909.405 776.202 888.025C767.202 878.495 761.142 866.945 756.362 854.815C720.742 764.495 685.175 674.162 649.662 583.815C647.382 577.413 642.806 572.086 636.822 568.865C623.482 561.435 609.512 554.515 597.722 544.995C550.652 506.995 508.722 464.325 480.812 409.655C465.912 380.425 456.562 349.305 451.022 317.095C445.172 283.155 441.092 248.975 440.862 214.465C440.752 198.615 441.982 182.885 447.662 167.855C452.972 153.855 461.062 142.275 475.532 136.315C491.302 129.815 508.942 136.755 516.792 151.975C526.412 170.625 528.792 190.465 527.992 210.975C527.172 231.955 525.332 252.955 525.792 273.865C526.102 288.375 529.272 302.865 531.612 317.275C535.382 340.545 539.082 363.845 543.612 386.965C547.482 406.445 555.862 424.355 565.462 443.135Z" fill="black"/>
<path d="M289.682 928.686C290.003 927.991 290.377 927.322 290.802 926.686C323.282 885.016 348.802 839.166 371.702 791.776C385.702 762.876 397.962 733.326 404.222 701.626C409.401 675.804 410.361 649.314 407.062 623.186C404.792 605.406 402.712 587.536 399.002 570.026C393.952 546.226 381.822 525.236 370.232 504.086C358.642 482.936 347.102 461.846 336.612 440.196C329.062 424.616 324.232 407.706 323.532 390.396C323.034 378.97 324.453 367.542 327.732 356.586C333.492 338.006 353.732 330.396 376.292 335.996C394.672 340.556 408.172 351.956 419.882 365.956C437.712 387.426 448.592 412.636 456.782 438.886C468.122 475.196 476.082 512.356 482.512 549.886C491.392 601.716 485.442 651.986 465.652 700.436C453.742 729.606 441.262 758.656 427.052 786.756C410.492 819.496 385.052 845.756 358.862 870.946C341.452 887.646 323.422 903.696 305.412 919.766C300.992 923.766 295.592 926.586 290.652 929.946L289.682 928.686Z" fill="black"/>
<path d="M1.50206 555.396C17.1221 559.126 32.7921 562.686 48.3521 566.646C68.4521 571.766 88.7621 574.506 109.552 573.426C132.822 572.226 156.032 570.676 178.622 564.426C194.953 559.828 210.331 552.351 224.032 542.346C235.592 534.046 237.082 523.526 235.582 510.806C230.712 469.266 219.172 429.186 209.582 388.666C204.292 366.336 201.712 343.666 207.072 321.006C208.765 313.59 211.613 306.487 215.512 299.956C225.512 283.676 242.892 279.336 259.062 289.636C266.862 294.636 273.842 301.556 279.642 308.856C298.372 332.476 308.192 360.226 315.862 389.066C325.862 426.826 328.142 465.066 325.562 503.826C324.584 520.414 321.791 536.846 317.232 552.826C309.462 579.336 290.862 596.956 269.172 611.956C250.232 625.036 229.012 630.956 206.062 632.456C154.132 635.796 105.062 624.156 57.3421 605.226C38.0621 597.576 22.4321 584.746 8.91206 569.296C5.59206 565.506 3.18205 560.916 0.352051 556.686L1.50206 555.396Z" fill="black"/>
<path d="M554.052 88.3157C553.862 40.0657 593.412 0.315685 641.802 0.0556851C690.022 -0.174315 730.012 39.3957 730.292 87.6257C730.572 135.856 691.012 176.096 642.972 176.316C631.349 176.4 619.823 174.188 609.057 169.807C598.29 165.426 588.495 158.961 580.234 150.785C571.972 142.609 565.406 132.882 560.913 122.161C556.42 111.441 554.089 99.9392 554.052 88.3157V88.3157Z" fill="black"/>
</svg>
