<svg width="450" height="460" viewBox="0 0 450 460" fill="none" xmlns="http://www.w3.org/2000/svg">
<path d="M282.757 200.763C285.577 171.843 287.907 147.243 290.467 122.663C290.939 119.258 291.895 115.937 293.307 112.803C297.427 102.903 302.717 93.6128 315.447 95.2328C325.887 96.5528 332.157 108.523 330.187 122.073C327.3 141.946 324.23 161.789 320.977 181.603C316.757 207.133 321.337 231.203 331.457 254.743C352.327 303.263 372.777 351.963 393.457 400.583C396.517 407.793 399.167 415.253 402.987 422.053C411.107 436.553 420.667 438.533 434.987 430.053C437.507 428.553 441.117 428.903 444.227 428.403C444.087 431.933 445.167 436.173 443.587 438.853C436.867 450.333 416.747 452.853 404.387 442.073C396.064 434.604 389.5 425.382 385.167 415.073C368.567 375.323 353.447 334.943 337.237 295.073C334.837 289.153 330.617 282.583 325.367 279.423C259.667 239.833 231.887 180.083 231.917 105.503C231.917 96.9128 233.237 87.1228 237.547 80.1128C241.237 74.1128 250.147 68.1128 256.667 68.1128C262.027 68.1828 270.227 76.4028 271.927 82.4828C275.017 93.4828 274.027 105.643 275.057 117.293C277.407 143.933 279.947 170.513 282.757 200.763Z" fill="black"/>
<path d="M180.917 448.193C170.917 439.593 160.597 431.393 151.267 422.193C148.317 419.283 148.127 413.583 146.677 409.193L151.297 407.083L165.947 417.213C197.587 372.153 229.767 327.693 210.397 268.003C205.667 253.313 195.267 240.633 188.757 226.433C183.117 214.173 177.007 201.433 175.197 188.283C172.527 168.963 188.077 158.173 205.197 167.893C216.417 174.253 227.817 184.763 233.197 196.213C268.727 271.373 261.467 339.213 192.017 401.453C185.227 407.633 178.487 413.913 170.667 421.033L202.147 447.883L195.287 456.583L183.887 450.933L180.917 448.193Z" fill="black"/>
<path d="M30.4468 262.783L45.7168 256.953L41.3268 275.523C64.9068 285.363 88.3968 283.973 111.727 276.923C132.427 270.653 137.277 262.053 133.387 240.693C129.517 219.493 124.867 198.433 121.287 177.183C118.617 161.333 124.807 143.733 133.867 142.373C149.747 139.983 156.577 152.483 161.937 163.883C177.247 196.493 179.727 231.303 173.217 266.073C166.957 299.503 138.787 316.973 102.107 311.773C78.8368 308.473 55.7368 303.423 36.6468 284.933C32.3368 295.353 28.2168 304.623 24.6468 314.103C21.4868 322.563 17.1368 323.263 10.4668 317.373C17.3068 298.833 24.0368 280.583 30.7568 262.373L30.4468 262.783Z" fill="black"/>
<path d="M287.407 44.5028C287.277 21.2728 306.897 1.22283 330.217 0.742827C353.297 0.272827 373.517 19.9028 374.147 43.4028C374.777 66.9028 354.007 88.1528 330.577 87.9928C307.737 87.8328 287.537 67.4828 287.407 44.5028Z" fill="black"/>
<path d="M432.537 421.873C421.107 421.253 414.437 415.453 414.377 404.473C414.317 393.493 421.177 386.863 431.977 386.933C441.977 386.993 448.647 393.173 449.037 403.533C449.447 414.633 443.117 420.563 432.537 421.873Z" fill="black"/>
<circle cx="176.707" cy="452.977" r="6.49798" fill="black"/>
<circle cx="153.175" cy="432.613" r="6.49798" fill="black"/>
<circle cx="9.02153" cy="300.691" r="6.49798" transform="rotate(70.9278 9.02153 300.691)" fill="black"/>
<circle cx="20.5787" cy="271.795" r="6.49798" transform="rotate(70.9278 20.5787 271.795)" fill="black"/>
</svg>
