<?xml version="1.0" encoding="utf-8"?>
<!-- Generator: Adobe Illustrator 24.0.3, SVG Export Plug-In . SVG Version: 6.00 Build 0)  -->
<svg version="1.1" id="Calque_1" xmlns="http://www.w3.org/2000/svg" xmlns:xlink="http://www.w3.org/1999/xlink" x="0px" y="0px"
	 viewBox="0 0 284.1 374.6" style="enable-background:new 0 0 284.1 374.6;" xml:space="preserve">
<style type="text/css">
	.st0{fill:#FFFFFF;}
</style>
<title>horse-ball-white</title>
<g id="Calque_2_1_">
	<g id="Calque_1-2">
		<g id="Calque_2-2">
			<g id="Calque_1-2-2">
				<path class="st0" d="M208.9,211.6c11.5,2.8,23.9,4.4,34.9,9.2c5.8,2.6,10.9,10.5,12.9,17.1c2.1,6.9-0.7,15.2,0.2,22.7
					c3.2,27.8-10.7,45.2-34.7,58.4c-4.4-12.8-4.6-22.8,9.6-30c17.6-9,4.3-23.9,4.3-35.9c0-2.6-10-6.7-15.7-7.5
					c-9.1-1.3-18.5-0.3-27.1-0.3c-14.8,47.6-18.1,79.5-13.5,127.4c-13.9,4.8-20.3,1.3-20-14.8c0.7-36.8,0.2-73.6,0.2-112.4
					c-70.7,1.2-135.7-6.1-160-89.1h72.3v-24.6c19.7-2.8,34.3,6.7,48.8,18.1c14,11,21,9.5,29.8-5.7c-5.7-2.8-11-6.4-16.9-8
					c-26.6-7.3-40.4-28.8-55-49.2c-6.6-9.2-5.8-18.4,3.9-24.4c10.2-6.3,18.3-1.5,22.9,8.4c11.7,25.6,27.3,47.5,49.9,57.7
					c23.4-10.4,44.2-20.2,65.4-28.9c5.1-2.1,11.8-2.4,17.3-1.3c17.3,3.5,34,6.8,41.4-18.7l4.3,4.4c-1.7,34.6-3.3,69.2-5.5,103.8
					c-0.1,2.3-4.8,6.3-6.9,6c-3.3-0.5-7.5-3.2-8.9-6.1c-6.5-13.6-12.1-27.7-18-41.5C222.2,154.1,207.3,181.4,208.9,211.6z"/>
				<path class="st0" d="M114.6,27.8H65L74,0h32.4C109.1,9.2,111.5,17.4,114.6,27.8z"/>
			</g>
		</g>
	</g>
</g>
</svg>
