<svg xmlns="http://www.w3.org/2000/svg" viewBox="0 0 2873.54 3590.24"><defs><style>.cls-1{fill:#fff;}</style></defs><title>judo-white</title><g id="Calque_2" data-name="Calque 2"><g id="Calque_1-2" data-name="Calque 1"><g id="Calque_2-2" data-name="Calque 2"><g id="Calque_1-2-2" data-name="Calque 1-2"><path class="cls-1" d="M2269.64,1919.46c-120.44,87.57-221.08,178.92-338.07,237.74-54,27.12-146,5.69-209.92-20.43-106.29-43.47-168.12-28.6-257.29,56.49-129.76,123.83-254.64,291.9-481.23,244.1-20.77-4.38-50.7,34.58-72,50.2,25.11,72.87,47,136.23,68.78,199.59l-46.18,30.37C880.9,2661.43,818.5,2611.59,777,2548c-123.16-188.6-286.7-286.06-516-309.81-269.2-27.89-321.33-147-196.95-385,115.25-220.35,234.62-438.63,362-676.11,116.86,104.5,225.82,196,326.3,296.05,24.58,24.47,25.16,76.41,29.45,116.51,2.15,20.15-9.12,43.69-19.48,62.92-136.19,252.87-78.41,466.82,170.82,675.67C1044.85,2199.45,1171.6,2068,1280,1922.76c61.86-82.87,89.7-190.33,140.15-282.72,63.13-115.59,163.06-157,279.19-87.39C1889.08,1666.33,2072,1791.47,2269.64,1919.46Z"/><path class="cls-1" d="M2573.82,2123.35c0,121-19.07,210.12,3.62,286.89,64.46,218.13,150.93,429.69,218.67,647,33.63,107.87,149.58,216.74,11,339.91-20.3,18,17.07,101,31.16,170.72H2501.76l184.34-100c-141.83-273.33-280.88-541.33-423.62-816.43-315.25,143.22-623,261.28-701.82,638.25-17.07,81.64-51.79,171.15-167.18,109.19-128.76,208.58-152.6,217.55-423.83,162.88,5.51-14.87,10.33-41.23,16.06-41.43,222.9-7.8,280.69-163.53,301.23-343.51,41.48-363.35,223.23-623.72,544.5-798.38,125.93-68.46,235.64-166.71,352.88-251.19C2389.92,1979,2390,1979.13,2573.82,2123.35Z"/><path class="cls-1" d="M1186.71,989.45c287.36,44.51,421.19-212.34,640.8-272.13,70.94-13.53,146.5-49.27,211.79-35.67,113.15,23.58,220,77.7,341.22,123.46-35,44.3-44.8,58.81-46.15,58.07-203.44-112.35-339.59-7.14-459.49,143.41C1658,1278.86,1374.7,1419.64,1028.81,1424c-73.81,1-154-30.62-220.58-66.85-61.63-33.54-109.17-93.14-162.52-141.7C476.1,1061.12,476.17,1061,603.93,856,737.27,899.16,997.84,729.14,1063.26,554c25.21-67.46,40.73-138.76,68.66-204.93,30.38-72,13.1-190.88,151.52-170.15,9,1.35,28.82-20.71,31.66-34.36C1356.59-55.4,1514.35,23.82,1633.69,0c0,20.71,1.76,39.36-.25,39.77-196.3,40.68-226.55,191-244,356.26-11,104.39-26.9,210.78-60.37,309.57C1296.81,800.87,1239.15,887.49,1186.71,989.45Z"/><path class="cls-1" d="M1051.9,1530.27c133,11.28,200.43,95.24,197,218.32-3.48,124.17-83,212.2-211.08,207.82-127-4.34-200.34-92.14-196.38-220.34C845.35,1608.68,916.28,1533.83,1051.9,1530.27Z"/><path class="cls-1" d="M591.85,2575.27c-15.42,129.21-81.48,218.08-209,217.74-128-.34-201.73-88.63-201.17-215.82.56-126.94,69.46-210.2,203.44-210.29C520.68,2366.81,575.11,2456.78,591.85,2575.27Z"/></g></g></g></g></svg>