<svg xmlns="http://www.w3.org/2000/svg" viewBox="0 0 3793.1 3491.08"><defs><style>.cls-1{fill:#fff;}</style></defs><title>karate-white</title><g id="Calque_2" data-name="Calque 2"><g id="Calque_1-2" data-name="Calque 1"><g id="Calque_2-2" data-name="Calque 2"><g id="Calque_1-2-2" data-name="Calque 1-2"><path class="cls-1" d="M1700.49,974.14c207.91,117.22,366.59,200.51,518.55,294.66,92,57,185.78,119.71,257.36,199.15,190.64,211.6,389.27,406.53,366,746-16.34,238.3,78.53,483,113.39,726.39,29.31,204.56,33.12,417.66,309.52,451.2,15.84,1.92,27.54,38.08,42.12,59.73-216,86.78-290.21,17.62-431.92-91.11-351.5-269.72-331.19-690.66-472.21-1041C2287.7,2031.93,2154,1786,1891.71,1613.89c-139.68-91.65-266-203.63-429.36-330.52-101.6,519.37-485.35,289.12-784.62,341.36,6.3-57,2.66-97.31,15.92-131,50.52-128.33,62.2-230-72.6-332.17-111.82-84.74-83.11-212.18,23.78-299.87C749.3,776,863.4,702,981.59,616.92L898.07,400.1c76,26.76,138.36,28.93,157.83,58.91,89.75,138.27,221.34,134.79,360.15,131.38,330-8.08,660.21-13.63,990.34-14.3,51.62-.1,107.79,23.61,152.26,51.58,13.75,8.64,6.35,92.28-9.8,99.31-48.1,21-107.17,33.74-158.65,26.41-96.58-13.75-195.13-63.5-210.56,100.8-2.35,25.08-79.58,52-125.69,62.26C1956.58,938.18,1856.88,949.48,1700.49,974.14Z"/><path class="cls-1" d="M1324.14,3474.3c6.39-120.41,64.91-249.69-90.82-320.47-14.8-6.73-.5-112.76,22.71-162.16,159.43-339.28-3.18-559-288.61-756.59L190.35,3231l154.16,216.68q-16.87,21.69-33.74,43.4L12.39,3371c-73.07-442.45,193.77-745.93,363.11-1084.74,28.07-56.16,56.08-112.35,88.41-177.14l-191-52.33c177-116.83,314-207.33,451.3-297.27,4.5-3,12.72-.41,19.2-.14,186.36,7.8,429.71-55,546.38,39.22,198.49,160.24,325.7,414.07,463.77,640.22,35.15,57.58,15.58,164.44-8.37,239.2-65.07,203.12-146,401.18-222.25,605.66l225.39,143.38-16.14,47.24Z"/><path class="cls-1" d="M2505.49,1287.2l285.43-325.87C2612.69,672,2763.11,415.28,3120.61,352.4c51.38-9,86.84-90,137.68-126.46,42.81-30.74,95.93-51.17,147.5-62.79,12.94-2.92,58.75,54.39,52.77,68.8-20.35,49.07-49.85,99.36-89,134.66-108,97.44-222.54,187.53-359.4,301.21,207.87,158.06,361,272.54,511.89,389.85,122.32,95.09,240.06,567.17,167.36,697.18-68,121.67-175.12,119.19-251.64,20.26-109.78-141.93-223.88-125-351.47-46.34-105.57,65.1-182.32,53.65-258.83-53C2733.54,1544.86,2622.18,1426.39,2505.49,1287.2Z"/><path class="cls-1" d="M1366.11,499.67c-133.79-5.24-237.66-123.26-224.69-264.51C1154.29,94.9,1228.5,5.23,1376.25.13c133-4.59,238.9,113.87,236.1,254.53C1609.5,398.15,1502.11,505,1366.11,499.67Z"/><path class="cls-1" d="M3793.1,655.8c-3.36,150.92-117.94,271.31-244.76,258.52-151-15.23-229.85-110.08-226.47-259.42C3325.29,503.51,3408,414.13,3564,417.28,3724.51,420.51,3783.44,525.9,3793.1,655.8Z"/></g></g></g></g></svg>