<svg width="810" height="776" viewBox="0 0 810 776" fill="none" xmlns="http://www.w3.org/2000/svg">
<path d="M278.312 770.779C279.675 767.738 280.813 764.582 282.433 761.683C289.355 749.29 296.441 737.012 303.425 724.664C336.829 665.612 370.453 606.683 403.494 547.428C415.541 525.824 427.593 504.256 442.173 484.273C454.45 467.454 467.007 450.785 480.236 434.701C492.187 420.175 507.749 410.84 526.489 407.667C531.933 406.746 537.611 407.162 543.188 407.074C543.874 407.074 544.711 407.574 545.246 408.083C551.443 413.974 554.417 421.396 555.523 429.731C557.493 444.58 552.66 458.013 546.857 471.216C538.837 489.473 527.272 505.296 513.958 520.062C500.185 535.323 486.96 551.079 473.367 566.5C459.43 582.309 445.483 598.101 431.267 613.677C412.647 634.103 393.814 654.339 375.012 674.601C355.506 695.62 336.12 716.755 316.314 737.486C306.855 747.378 296.6 756.518 286.575 765.857C284.318 767.964 281.516 769.495 278.963 771.288L278.312 770.779Z" fill="black"/>
<path d="M197.161 771.54C194.841 767.622 193.364 763.264 192.823 758.744C191.487 748.848 190.193 738.947 188.942 729.041C187.831 720.3 186.808 711.545 185.711 702.799C184.609 693.982 183.445 685.175 182.338 676.358C181.378 668.705 180.479 661.044 179.523 653.391C178.567 645.739 177.584 638.095 176.615 630.447C175.668 622.94 174.724 615.435 173.782 607.931C172.85 600.57 171.906 593.212 170.95 585.859C169.997 578.58 169.025 571.303 168.033 564.03C166.935 555.88 165.827 547.732 164.709 539.585C163.479 530.733 162.146 521.881 160.974 512.984C160.04 505.903 159.11 498.852 158.504 491.739C157.924 484.994 157.526 478.218 157.468 471.446C157.327 453.981 157.242 436.507 157.468 419.042C157.654 405.556 159.053 392.154 164.107 379.491C169.941 364.849 180.293 353.877 193.2 345.154C193.885 344.758 194.693 344.632 195.466 344.799C207.31 347.517 216.436 353.709 222.318 364.717C228.784 376.776 232.714 390.031 233.866 403.666C234.609 412.164 235.105 420.706 235.136 429.23C235.136 435.608 234.278 441.991 233.746 448.364C233.246 454.375 232.649 460.376 232.144 466.387C231.427 475.035 230.735 483.688 230.068 492.346C229.546 499.246 229.139 506.15 228.586 513.046C227.939 521.11 227.237 529.169 226.479 537.221C225.775 544.608 224.965 551.986 224.155 559.351C223.345 566.716 222.473 574.099 221.663 581.482C220.853 588.864 220.101 596.242 219.295 603.612C218.49 610.981 217.636 618.359 216.821 625.742C216.016 633.045 215.222 640.351 214.44 647.66C213.64 655.036 212.838 662.413 212.032 669.79C211.218 677.243 210.398 684.694 209.571 692.141C208.748 699.59 208.155 707.075 207.04 714.479C204.951 728.404 202.614 742.293 200.259 756.177C199.431 761.13 198.294 765.985 197.161 771.54Z" fill="black"/>
<path d="M507.722 43.1034C505.27 47.4941 503.084 52.0617 500.322 56.2532C470.021 102.281 439.675 148.291 409.283 194.283C394.287 217.091 379.854 240.274 364.58 262.887C357.104 273.974 348.575 284.384 340.06 294.719C330.738 306.032 321.054 317.062 311.206 327.914C299.699 340.608 286.212 350.465 269.354 354.948C262.923 356.661 256.368 357.431 249.693 356.75C248.91 356.666 248.095 356.909 247.294 356.958C241.837 357.294 238.062 354.541 235.202 350.244C231.157 344.153 229.674 337.377 229.891 330.136C230.205 318.668 234.441 308.369 239.491 298.375C246.484 284.526 256.686 273.102 267.619 262.285C288.147 241.987 308.409 221.362 329.318 201.423C355.679 176.314 382.541 151.718 409.256 126.977C427.969 109.653 446.585 92.2059 465.666 75.294C477.829 64.5166 489.837 53.4559 503.619 44.6437C504.73 43.9311 505.881 43.2805 507.018 42.5989L507.722 43.1034Z" fill="black"/>
<path d="M748.972 775.099C746.697 772.27 744.059 769.659 742.204 766.578C716.047 723.026 689.942 679.443 663.89 635.829C648.142 609.605 631.846 583.704 616.465 557.271C608.875 544.219 602.514 530.423 596.106 516.724C589.21 501.977 582.642 487.07 577.906 471.433C575.188 462.461 573.453 453.313 573.697 443.894C573.836 436.086 575.695 428.405 579.141 421.396C580.468 418.767 581.752 416.134 582.996 413.474C585.116 408.942 588.749 407.007 593.645 406.547C605.055 405.463 614.544 409.756 622.998 416.807C636.343 427.943 645.398 442.212 652.387 457.929C658.955 472.703 663.319 488.256 668.498 503.517C674.668 521.699 681.466 539.682 687.229 557.993C698.891 595.039 710.12 632.217 721.358 669.396C728.227 692.115 735.021 714.869 741.381 737.738C744.674 749.582 746.94 761.71 749.662 773.713C749.694 774.007 749.694 774.304 749.662 774.598L748.972 775.099Z" fill="black"/>
<path d="M218.609 283.123C216.126 288.85 212.47 293.219 208.164 297.074C192.513 311.095 176.323 324.431 158.906 336.226C136.21 351.602 112.101 364.048 85.5405 371.347C76.9806 373.697 68.2082 374.335 59.573 372.378C56.3774 371.652 53.3765 369.116 50.7784 366.859C39.1734 356.83 30.8967 344.255 24.116 330.663C14.5467 311.637 7.64928 291.381 3.61905 270.469C0.826225 255.885 -0.479454 241.129 0.520829 226.328C1.59193 210.169 6.99169 195.629 19.1456 184.236C23.1954 180.439 27.6922 177.522 33.4682 177.177C38.7352 176.867 43.5861 178.359 48.4194 180.275C53.0755 182.103 55.9923 185.033 57.6875 189.95C60.9096 199.245 63.7467 208.646 65.2471 218.374C66.0527 223.597 66.2607 228.913 66.7077 234.189C67.41 242.474 68.1019 250.758 68.7835 259.041C69.2793 265.056 69.713 271.071 70.2663 277.077C70.8903 283.889 71.5365 290.696 72.3111 297.49C73.1609 304.93 74.1612 312.352 75.1216 319.784C75.3562 321.603 75.9006 323.404 75.9227 325.219C75.9227 327.135 76.9628 327.432 78.4456 327.388C83.0663 327.299 87.5898 326.463 91.6529 324.334C112.035 313.658 134.076 307.891 156.091 301.863C168.086 298.579 179.682 293.856 191.566 290.12C199.803 287.531 208.217 285.517 216.564 283.269C217.241 283.162 217.925 283.113 218.609 283.123V283.123Z" fill="black"/>
<path d="M682.528 454.149C684.524 451.547 686.308 448.736 688.557 446.368C697.484 436.967 706.677 427.81 715.555 418.356C730.379 402.66 743.254 385.233 753.903 366.452C759.869 355.891 760.236 345.317 756.558 334.226C751.043 317.597 742.395 302.602 731.941 288.669C725.806 280.494 719.025 272.801 712.63 264.812C708.713 259.921 705.548 254.349 705.225 248.126C704.694 238.694 708.553 230.568 715.077 223.783C717.979 220.694 721.87 218.718 726.076 218.197C732.157 217.444 738.33 218.148 744.086 220.251C758.691 225.478 769.464 235.268 777.644 248.241C786.421 262.183 792.617 277.28 797.928 292.811C802.261 305.532 805.895 318.442 807.905 331.729C808.956 338.927 809.607 346.178 809.856 353.448C810.237 363.145 806.993 372.037 801.969 380.119C787.031 404.192 767.49 423.578 741.988 436.268C733.915 440.287 725.067 442.858 716.418 445.589C706.517 448.714 696.439 451.294 686.428 454.078C685.293 454.331 684.145 454.519 682.989 454.64C682.851 454.477 682.683 454.317 682.528 454.149Z" fill="black"/>
<path d="M1.49001 91.8163C1.68475 56.8993 29.9406 28.7188 64.6938 28.8427C99.447 28.9666 127.641 57.3685 127.517 91.9801C127.384 127.822 97.8138 155.485 63.2066 154.949C29.4183 154.392 1.32182 125.981 1.49001 91.8163Z" fill="black"/>
<path d="M599.058 125.131C599.114 116.869 600.796 108.698 604.01 101.086C607.223 93.4745 611.904 86.5699 617.786 80.7671C623.668 74.9643 630.635 70.3767 638.29 67.2665C645.944 64.1562 654.137 62.5841 662.399 62.6399C670.661 62.6957 678.831 64.3783 686.443 67.5917C694.055 70.805 700.96 75.4862 706.763 81.368C712.566 87.2497 717.153 94.2169 720.263 101.872C723.374 109.526 724.946 117.719 724.89 125.981C724.651 160.433 695.997 188.543 661.669 188.122C626.734 187.702 598.801 159.601 599.058 125.131Z" fill="black"/>
<path d="M624.768 0.825928C621.887 5.2918 618.342 8.45641 614.504 11.3245C604.134 19.07 593.565 26.5943 583.42 34.632C571.696 43.9266 561.153 54.4739 553.899 67.7343C547.587 79.2641 541.842 91.0949 535.752 102.753C532.185 109.613 532.725 116.474 535.394 123.405C538.297 130.929 543.484 136.993 548.18 143.406C557.687 156.401 569.35 167.347 580.977 178.314C588.307 185.232 589.281 193.301 586.196 202.308C584.305 207.763 581.06 212.649 576.764 216.507C572.214 220.667 566.584 221.265 560.733 221.433C546.127 221.849 534.672 215.081 525.276 204.897C507.465 185.604 493.196 163.97 484.556 138.949C482.152 132.001 480.745 124.747 480.378 117.403C479.935 108.684 482.688 100.584 485.906 92.6838C492.359 76.8076 502.871 63.7376 514.538 51.4111C534.973 29.8209 560.193 16.618 588.533 8.95212C599.77 5.91587 611.203 3.6099 622.551 0.985265C623.286 0.889131 624.027 0.835928 624.768 0.825928Z" fill="black"/>
<path d="M376.986 86.536C374.277 93.3875 371.821 100.35 368.811 107.068C362.097 122.073 356.122 137.431 347.659 151.616C335.585 171.874 320.66 189.472 300.69 202.396C287.186 211.133 272.275 216.25 256.62 219.414C241.616 222.451 226.439 223.274 211.169 222.929C204.911 222.787 198.617 223.013 192.398 222.442C173.986 220.747 157.154 214.917 142.951 202.595C137.639 198.001 132.24 193.54 128.513 187.485C125.353 182.36 123.441 176.898 124.636 170.746C125.437 166.629 128.141 163.89 131.341 161.522C141.406 154.06 152.201 153.701 163.456 158.309C174.451 162.814 185.525 167.05 197.032 170.117C214.546 174.778 232.321 177.487 250.428 176.46C279.41 174.818 305.182 165.187 325.644 143.911C337.129 131.96 348.19 119.598 359.145 107.175C363.407 102.337 366.757 96.707 370.714 91.5861C372.294 89.5457 374.388 87.9036 376.247 86.0801L376.986 86.536Z" fill="black"/>
</svg>
