<?xml version="1.0" encoding="utf-8"?>
<!-- Generator: Adobe Illustrator 24.0.3, SVG Export Plug-In . SVG Version: 6.00 Build 0)  -->
<svg version="1.1" id="Calque_1" xmlns="http://www.w3.org/2000/svg" xmlns:xlink="http://www.w3.org/1999/xlink" x="0px" y="0px"
	 viewBox="0 0 576.8 739.5" style="enable-background:new 0 0 576.8 739.5;" xml:space="preserve">
<style type="text/css">
	.st0{fill:#FFFFFF;}
</style>
<title>lancer-white</title>
<g id="Calque_2_1_">
	<g id="Calque_1-2">
		<g id="Calque_2-2">
			<g id="Calque_1-2-2">
				<path class="st0" d="M505.6,727.2c-3.5,4.3-7.8,12.8-10.4,12.3c-7-1.4-15.8-4.9-19.3-10.5c-22.8-36.2-50.1-71-64.9-110.5
					c-23.6-63.1-80.9-67.8-130.5-86.7c-6.1-2.3-18,6.1-25.2,12C180.6,605,106.4,667.1,31.3,728c-7.7,6.3-20.7,6.1-31.3,8.9
					c3.5-10.6,4.9-22.6,11-31.3c8.6-12.4,19.9-23.2,31.3-33.4c65.5-58.5,124.6-121.9,171.5-197.3c31.7-50.9,45.1-47.1,97.1-19.8
					c77.9,40.8,132.1,98,156.6,183.7C476.1,668.8,492.2,696.7,505.6,727.2z"/>
				<path class="st0" d="M210.1,0c4.1,9.1,11.1,18,11.5,27.2c0.4,8.6-4.6,23.9-9.9,25.2c-24.2,6-17.4,22.4-17,38.1
					c1.1,52.8,14,101.9,41.9,147.2c6.8,11.1,11.4,23.9,15.1,36.5c6.1,20.6-1,37.1-21.5,43.9c-19.8,6.5-35-3.4-40.1-22.5
					c-9.8-37.2-21.1-74.7-24.7-112.8c-4-42.3-2.7-85.5,1.4-127.8c1.7-17.1,16.7-33,25.7-49.4L210.1,0z"/>
				<path class="st0" d="M566.2,366c-74.5-76.3-158-37.8-240.9-21.8c-3-19.4-5.6-36.2-8.8-56.3c73.6,0,145.7-2.2,217.6,0.9
					C575,290.5,588.3,320.7,566.2,366z"/>
				<path class="st0" d="M289.8,271.8c-22.8-2.3-39.2-23.7-36.9-48c2.2-22.6,21.9-40.3,43.1-38.9c23.8,1.6,41.5,24.6,38.3,49.7
					C331.4,257.2,311.2,274,289.8,271.8z"/>
			</g>
		</g>
	</g>
</g>
</svg>
