<svg xmlns="http://www.w3.org/2000/svg" viewBox="0 0 576.78 739.52"><title>lancer</title><g id="Calque_2" data-name="Calque 2"><g id="Calque_1-2" data-name="Calque 1"><path d="M505.6,727.2c-3.45,4.3-7.79,12.81-10.35,12.3-7-1.37-15.78-4.93-19.28-10.51-22.76-36.23-50.15-71-64.89-110.47-23.59-63.1-80.88-67.79-130.5-86.69-6.08-2.32-18,6.06-25.18,11.95C180.59,605.05,106.45,667.14,31.3,728c-7.74,6.27-20.74,6.07-31.3,8.87,3.49-10.56,4.9-22.56,11-31.34,8.58-12.42,19.91-23.24,31.28-33.4,65.52-58.52,124.63-121.91,171.54-197.26,31.67-50.88,45.06-47.08,97.11-19.82C388.83,495.87,443,553,467.53,638.71,476.13,668.77,492.22,696.69,505.6,727.2Z"/><path d="M210.13,0c4.12,9.06,11.11,18,11.54,27.23.41,8.6-4.58,23.87-9.94,25.21-24.17,6-17.35,22.41-17,38.14,1.05,52.84,14,101.94,41.9,147.18,6.84,11.07,11.35,23.92,15.1,36.5,6.13,20.6-1,37.09-21.52,43.87-19.82,6.54-35-3.35-40.07-22.51-9.83-37.23-21.08-74.74-24.7-112.81-4-42.26-2.68-85.51,1.41-127.84,1.66-17.13,16.74-33,25.72-49.39Z"/><path d="M566.15,366c-74.54-76.34-158-37.75-240.91-21.78-3-19.36-5.64-36.23-8.76-56.34,73.56,0,145.68-2.24,217.57.87C575,290.51,588.32,320.68,566.15,366Z"/><path d="M289.75,271.82c-22.79-2.29-39.25-23.71-36.85-47.95,2.24-22.62,21.85-40.32,43.11-38.9,23.81,1.59,41.5,24.56,38.27,49.71C331.39,257.17,311.23,274,289.75,271.82Z"/></g></g></svg>