<svg xmlns="http://www.w3.org/2000/svg" viewBox="0 0 4928.1 2569.02"><title>Fichier 31</title><g id="Calque_2" data-name="Calque 2"><g id="Calque_1-2" data-name="Calque 1"><path d="M2161.62,1843.89l-172.25-351.22c-308.48,110.43-599.56,222.53-896.68,315.3-71.9,22.45-163.72-18.92-246.38-31,46-64.12,78-153.57,140.36-188.08C1295.54,1418,1614.81,1266,1925.49,1098.2c147.71-79.79,257.9-50.12,354.79,74.92,153.85,198.53,315.12,391.91,458.88,597.51,169.1,241.83,166.23,363.52,19.93,552.26-146.59,189.1-382.72,277.67-597.17,194-129.05-50.39-239.21-9.36-360.14-6.44-332.55,8-667.89,17.27-999.45-2.18-124.46-7.3-232.35-23.88-360.94,6.8-138.26,33-293.51-5.19-441.39-45.67C672.83,2103.41,1390,1926.21,2161.62,1843.89Z"/><path d="M4402.3,940.23c-160.77,19.32-295.73,37.26-431.11,51.11-73.29,7.5-148.8,19.14-220.68,9.42C3586.67,978.61,3430.1,830.1,3255,1049.58q-7.29-40.11-14.57-80.21c158.67-294.62,314.45-590.84,477.48-883,62.85-112.64,156.58-115.85,219.52-5C4103.22,373.26,4257.83,671.6,4402.3,940.23Z"/><path d="M3354.26,1764.63c207.65-5,372.45,153.52,381.95,367.52,9.85,221.71-149.82,403.95-360.64,411.62-208.14,7.58-382.17-169.39-383.55-390C2990.7,1943.68,3152.83,1769.53,3354.26,1764.63Z"/><path d="M4928.1,2425.78c-83.93,36.75-170.18,109.17-251.36,103.87-297.63-19.43-593.37-75.64-910.93,39.37,58-168.76,99.16-288.43,155-450.89L4915,2359Q4921.56,2392.37,4928.1,2425.78Z"/></g></g></svg>