<svg xmlns="http://www.w3.org/2000/svg" viewBox="0 0 2740.34 2591.39"><defs><style>.cls-1{fill:#fff;}</style></defs><title>natation-synchronisee-white</title><g id="Calque_2" data-name="Calque 2"><g id="Calque_1-2" data-name="Calque 1"><g id="Calque_2-2" data-name="Calque 2"><g id="Calque_1-2-2" data-name="Calque 1-2"><path class="cls-1" d="M74.89,2497.94l861.29-175.19c-33.67-165-68.29-327.56-99.64-490.73-21.73-113.11,2-210.89,112.48-268.93,120.24-63.14,268.29,5.4,281.18,153.91,20.87,240.3,22,483.27,14.9,724.63-3.73,126.13-101.1,167.67-228.17,136.07-62.81-15.61-132.13-6-198.5-6.11-206.67-.29-413.36,1.94-619.95-1.66C171.86,2569.47,145.75,2540.44,74.89,2497.94Z"/><path class="cls-1" d="M1535.58,2497.53l852.41-176c-28.54-136.13-56.46-263.43-81.46-391.3-11.08-56.69-22.39-114.48-22.84-171.85-.89-114.17,55.9-196.6,169.31-215.25,114.45-18.82,213.48,41.45,221.68,152.81,19.25,261.56,26.1,525.53,12.91,787.27-5.63,111.6-124.14,127.41-212.53,90-78.39-33.18-139.51-15.22-216.71-6.76-199.6,21.86-403.27,9.37-605.16,4.37C1623.39,2570,1594.41,2535.45,1535.58,2497.53Z"/><path class="cls-1" d="M739.52,1375.84,499,1657.4c-84.39-249.84-167.32-491.9-247.84-734.75C166.43,667.1,80.78,411.75,3.62,153.89-9.68,109.44,17.32,52.93,25.7,2,66.81,32.24,126.89,53.5,146.13,94.1,347,518,541.23,944.93,739.52,1375.84Z"/><path class="cls-1" d="M1945,1658.6c-171.11-519.26-340.2-1027.8-503.36-1538.23-10.42-32.62,25.07-79.91,39.2-120.37,35.61,23.42,88.17,38.57,104.25,71.52Q1887,690.18,2177.51,1314.33c11.65,24.92,3.81,72.73-13.78,95.08C2099.65,1490.84,2027.57,1566,1945,1658.6Z"/><path class="cls-1" d="M1032.81,1377.22c-143.52-1.89-253.44-117.54-253.41-266.64,0-156.5,118.64-277,266.43-270.75,137.55,5.86,252,133.25,247.88,275.92C1289.5,1261.75,1172.46,1379.05,1032.81,1377.22Z"/><path class="cls-1" d="M2740.33,1108.72c.92,149-109.37,267.39-250.82,269.31s-257.73-113.8-261.32-260c-3.75-152.61,115.35-280.52,259.6-278.81C2627.38,840.91,2739.4,960.45,2740.33,1108.72Z"/></g></g></g></g></svg>