<svg xmlns="http://www.w3.org/2000/svg" viewBox="0 0 72.05 96.36"><defs><style>.cls-1,.cls-2{fill:#fff;}.cls-1{fill-rule:evenodd;}</style></defs><title>parachutisme-white</title><g id="Calque_2" data-name="Calque 2"><g id="Calque_1-2" data-name="Calque 1"><path class="cls-1" d="M52.09,39.64c.6-5.2,1.4-10.5,1.7-15.7.1-2.2-.5-6.3-1-6.4-3.3-.2-7-.3-9.8,1-1.8.9-3.5,4.6-3.1,6.7,1.5,7.6,3.9,14.9,5.9,22.4.5,1.9.8,3.8,1.3,5.7-.5.1-1,.2-1.4.3-2.2-7.8-4.6-15.5-6.6-23.4-.9-3.5-2.5-6.4-6.1-5.6a21.49,21.49,0,0,0-9.4,5.3c-2.7,2.6-.2,5.3,1.9,7.6a211.55,211.55,0,0,1,17.6,21.1,49.51,49.51,0,0,1-4.3-3.7c-5.4-5.8-10.4-12-16.2-17.4-1.9-1.8-6-3.3-8-2.4-3,1.3-5.2,4.6-7.2,7.5-.3.5,1.5,3.4,2.9,4.1,5.4,2.8,11,5.2,16.5,7.8,1.6.7,3,1.6,5.9,3.2-16.8-2-29.9-12.2-32.2-24-2.7-13.6,6.1-28.1,19.7-32.4,13.4-4.3,29,2.1,34.8,14.4a8.34,8.34,0,0,1,1.1,3.7c-.6,6.8-1.4,13.6-2.1,20.5A6.8,6.8,0,0,0,52.09,39.64Z"/><path class="cls-1" d="M33.59,57.24a17.56,17.56,0,0,1,4,.6c4.9,2,9.8,4.2,14.7,6.4a6.58,6.58,0,0,1,3.3,2.8c2,5.1,3.8,9.8,9.8,12.2,1.9.8,1.2,6.3,1.2,9.8-.2,14.6-1.5,3.1-1.7,1.6l-.2-1.7c-.4-4.2-5.6-7.8-10.1-9.8a6.26,6.26,0,0,1-3.3-4c-1.5-7.3-6.4-10.6-12.9-12.7-2-.7-3.8-2.2-5.6-3.4C33,58.54,33.29,57.84,33.59,57.24Z"/><path class="cls-1" d="M60.39,73c3.3.7,7.9.2,9.8,2.3,2.4,2.6,1.8,9.3,1.8,12.9-.6,5.7-1.6-1.9-1.6-2-.4-6.6-4.6-10.1-10.8-12A8.34,8.34,0,0,1,60.39,73Z"/><circle class="cls-2" cx="49.99" cy="57.84" r="3.9"/><path class="cls-1" d="M52,41.14h1.7s.9,9.5-.9,11.1l-3.1-.5A23,23,0,0,1,52,41.14Z"/><path class="cls-1" d="M54.59,61.54v2.8a19.86,19.86,0,0,1,3.6,6.4l1.2,1.9,1.7-1.2a88.47,88.47,0,0,0-5.4-11.6,4.83,4.83,0,0,1-.9-3.1l-.2,4.8Z"/></g></g></svg>