<svg xmlns="http://www.w3.org/2000/svg" viewBox="0 0 165.54 364.27"><defs><style>.cls-1{fill:#fff;}</style></defs><title>patinage-artistique-et-danse-sur-roulettes-white</title><g id="Calque_2" data-name="Calque 2"><g id="Calque_1-2" data-name="Calque 1"><path class="cls-1" d="M49.16,0c26.06,7.61,44.68,25.73,63.72,44.21,2.52-1.81,4.83-3.6,7.27-5.2a29.19,29.19,0,0,1,40.26,7.47,28.86,28.86,0,0,1-8.09,40.69c-4.45,2.84-7.69,5.12-8.77,11.1-1.5,8.24-12.36,9.92-19.87,3.13a72.53,72.53,0,0,1-11.49-14c-6.25-9.61-12.25-19.49-18-29.44C81.94,36.59,67.72,16.79,49.16,0Z"/><path class="cls-1" d="M69.72,157.08c13.22-3.17,22.54,1.83,23.56,15.83a362.3,362.3,0,0,1-.21,58c-3.2,36.46-8,72.77-12.27,109.14a11.17,11.17,0,0,1-3.75,7.38c-1.68-12.83-3.69-25.63-5-38.51q-5.4-53.75-10.25-107.56c-.66-7.23-1.45-14.67-.42-21.75s4.31-14.12,6.59-21.15Z"/><path class="cls-1" d="M69.72,157.08,68,158.46c-28.27,5-64-32.68-66.82-61.88-3-30.61-1.25-60,17.2-86.19A13.45,13.45,0,0,1,24.82,5c-1.6,10.28-4.42,20.55-4.53,30.85-.17,16.24-.87,33.12,3.19,48.53C26.11,94.38,36.31,102.74,44,111c4.25,4.51,10.44,7.18,15.71,10.75C76.54,133.09,78.38,139.66,69.72,157.08Z"/><path class="cls-1" d="M121.83,346.37c-1.83,12.4-8.36,17.11-17.7,17.61-10.85.57-21.76.13-33.42.13-.28-3.1-.5-5.55-.79-8.79,10.71,0,20.71.6,30.59-.28,4.12-.37,7.87-4.07,12-5.89C115.09,348,118,347.47,121.83,346.37Z"/></g></g></svg>