<svg xmlns="http://www.w3.org/2000/svg" xmlns:xlink="http://www.w3.org/1999/xlink" viewBox="0 0 250.02 250.01"><defs><style>.cls-1{fill:#fff;}.cls-2{clip-path:url(#clip-path);}</style><clipPath id="clip-path" transform="translate(0.01)"><rect class="cls-1" width="250.01" height="250.01"/></clipPath></defs><title>patinage-de-course 1-white</title><g id="Calque_2" data-name="Calque 2"><g id="Calque_1-2" data-name="Calque 1"><rect class="cls-1" x="0.01" width="250.01" height="250.01"/><g class="cls-2"><path class="cls-1" d="M0,96.16c6.54-2.22,13.09-4.38,19.61-6.66,4.74-1.66,11.42-2.18,13.61-5.56,2.43-3.75.67-10.18.86-15.44.24-6.56.06-13.21,1.06-19.67,1.33-8.66,7.31-12.27,15.69-9.35,5.78,2,11.71,4.62,16.48,8.36Q86.18,62.61,104,78.72c6.77,6.12,7.62,11,3.14,18.69-10.38,17.77-22.58,34.23-38,48.11-.2.18-.66.06-1.91.13l24.1-53.41L53.77,72.45c-1.05,5.14-1.94,9.9-3,14.62C49,94.82,44.68,99.71,36.34,100.65c-12.13,1.37-24.23,3-36.35,4.56Z" transform="translate(0.01)"/><path class="cls-1" d="M148.65,169l-20.08-12.5c-1.15,5.68-2,10.4-3.08,15.06-1.9,8.18-6.67,13-15.43,14C94,187.44,78,189.84,62,191.91a18.64,18.64,0,0,1-8.31-1,56.64,56.64,0,0,1,6-3.09c14.72-5.66,29.42-11.41,44.27-16.71,3.58-1.28,5.11-2.6,4.93-6.58-.35-7.52-.16-15.07-.06-22.61a43.89,43.89,0,0,1,.8-7.84c1.89-9.54,8.07-13.68,16.86-9.65A140.29,140.29,0,0,1,152,139.77c9.17,6.88,17.58,14.81,26,22.65,7.44,7,8,11.53,3.48,20.6-6.47,13.12-26.87,38.33-39.39,47.22l24.28-54-17.72-7.39Z" transform="translate(0.01)"/><path class="cls-1" d="M38.62,21.23c14.74,1.74,29.5,3.23,44.19,5.3,13.2,1.86,26.34,4.19,39.43,6.67,6.09,1.15,8.79,4.93,8,9.69a9.28,9.28,0,0,1-10.54,7.36c-29.08-3.52-55.48-15-81.52-27.37Z" transform="translate(0.01)"/><path class="cls-1" d="M113.33,105.9c15.3,1.81,30.64,3.38,45.9,5.51,12.28,1.7,24.49,3.91,36.68,6.23,6.91,1.31,9.57,4.47,9,9.41s-4.69,8.54-11.26,7.5c-10.34-1.65-20.81-3.54-30.69-6.89-17-5.76-33.57-12.73-50.32-19.19Z" transform="translate(0.01)"/><path class="cls-1" d="M224.5,126.82c-10.82.06-19.07-7.81-19-18.13.06-9.46,8.52-17.7,18.35-17.9,10.21-.21,19.31,8.31,19.36,18.13S234.9,126.76,224.5,126.82Z" transform="translate(0.01)"/><path class="cls-1" d="M148.91,42.31c-10.41-.41-18.36-8.57-18.08-18.55s9.3-17.93,19.82-17.42c10.14.49,18.35,9.17,17.87,18.87S159.1,42.71,148.91,42.31Z" transform="translate(0.01)"/><path class="cls-1" d="M99.88,153.05c1.22,4-.1,5.26-3.7,5.22q-19.79-.18-39.58,0c-3.89,0-5.14-1.31-3.77-5.23Z" transform="translate(0.01)"/><path class="cls-1" d="M127.35,237.73h46.91c.77,4.93.77,5.08-3.48,5.1-13.18.08-26.35,0-39.52.07C127.85,242.93,126.18,241.92,127.35,237.73Z" transform="translate(0.01)"/><path class="cls-1" d="M56.39,225.79c-1.53-1-3.9-1.71-4.45-3.12-5.27-13.42-10.23-27-15.42-40.87l5-2.49c5.6,15.14,11,29.82,16.47,44.51Z" transform="translate(0.01)"/><path class="cls-1" d="M87.86,168.78v5H81.39C80.3,167.86,80.72,167.52,87.86,168.78Z" transform="translate(0.01)"/><path class="cls-1" d="M148.53,168.85c-.43,1.57-.85,3.13-1.37,5-1,.09-2,.24-3.12.27-.92,0-1.85-.1-3.2-.19-.16-1.62-.31-3.2-.58-5.9l8.39.91Z" transform="translate(0.01)"/><path class="cls-1" d="M237.07,168.59v5.3h-6.21C229.39,168,229.69,167.67,237.07,168.59Z" transform="translate(0.01)"/><path class="cls-1" d="M28,168.06v5.78H21.5l-.37-5.44Z" transform="translate(0.01)"/><path class="cls-1" d="M58,174H51.4v-5.52h6.26Z" transform="translate(0.01)"/><path class="cls-1" d="M207,168v5.79h-6.39c-.12-1.6-.24-3.17-.41-5.37Z" transform="translate(0.01)"/></g></g></g></svg>