<svg width="251" height="251" viewBox="0 0 251 251" fill="none" xmlns="http://www.w3.org/2000/svg">
<g clip-path="url(#clip0)">
<path d="M-9.76585e-06 96.1599C6.53999 93.9399 13.09 91.7799 19.61 89.4999C24.35 87.8399 31.03 87.3199 33.22 83.9399C35.65 80.1899 33.89 73.7599 34.08 68.4999C34.32 61.9399 34.14 55.2899 35.14 48.8299C36.47 40.1699 42.45 36.5599 50.83 39.4799C56.61 41.4799 62.54 44.0999 67.31 47.8399C79.89 57.6866 92.12 67.9799 104 78.7199C110.77 84.8399 111.62 89.7199 107.14 97.4099C96.76 115.18 84.56 131.64 69.14 145.52C68.94 145.7 68.48 145.58 67.23 145.65L91.33 92.2399L53.77 72.4499C52.72 77.5899 51.83 82.3499 50.77 87.0699C49.04 94.8199 44.68 99.7099 36.34 100.65C24.21 102.02 12.11 103.65 -0.0100098 105.21L-9.76585e-06 96.1599Z" fill="black"/>
<path d="M148.65 169L128.57 156.5C127.42 162.18 126.57 166.9 125.49 171.56C123.59 179.74 118.82 184.56 110.06 185.56C93.9999 187.44 77.9999 189.84 61.9999 191.91C59.1899 192.213 56.3479 191.871 53.6899 190.91C55.6288 189.765 57.6321 188.733 59.6899 187.82C74.4099 182.16 89.1099 176.41 103.96 171.11C107.54 169.83 109.07 168.51 108.89 164.53C108.54 157.01 108.73 149.46 108.83 141.92C108.861 139.288 109.129 136.664 109.63 134.08C111.52 124.54 117.7 120.4 126.49 124.43C135.504 128.624 144.045 133.767 151.97 139.77C161.14 146.65 169.55 154.58 177.97 162.42C185.41 169.42 185.97 173.95 181.45 183.02C174.98 196.14 154.58 221.35 142.06 230.24L166.34 176.24L148.62 168.85L148.65 169Z" fill="black"/>
<path d="M38.6199 21.23C53.3599 22.97 68.1199 24.46 82.8099 26.53C96.0099 28.39 109.15 30.72 122.24 33.2C128.33 34.35 131.03 38.13 130.24 42.89C129.771 45.239 128.413 47.316 126.449 48.6875C124.485 50.0589 122.067 50.6187 119.7 50.25C90.6199 46.73 64.2199 35.25 38.1799 22.88L38.6199 21.23Z" fill="black"/>
<path d="M113.33 105.9C128.63 107.71 143.97 109.28 159.23 111.41C171.51 113.11 183.72 115.32 195.91 117.64C202.82 118.95 205.48 122.11 204.91 127.05C204.34 131.99 200.22 135.59 193.65 134.55C183.31 132.9 172.84 131.01 162.96 127.66C145.96 121.9 129.39 114.93 112.64 108.47L113.33 105.9Z" fill="black"/>
<path d="M224.5 126.82C213.68 126.88 205.43 119.01 205.5 108.69C205.56 99.2299 214.02 90.9899 223.85 90.7899C234.06 90.5799 243.16 99.0999 243.21 108.92C243.26 118.74 234.9 126.76 224.5 126.82Z" fill="black"/>
<path d="M148.91 42.3099C138.5 41.8999 130.55 33.7399 130.83 23.7599C131.11 13.7799 140.13 5.82989 150.65 6.33989C160.79 6.82989 169 15.5099 168.52 25.2099C168.04 34.9099 159.1 42.7099 148.91 42.3099Z" fill="black"/>
<path d="M99.8799 153.05C101.1 157.05 99.7799 158.31 96.1799 158.27C82.9866 158.15 69.7932 158.15 56.5999 158.27C52.7099 158.27 51.4599 156.96 52.8299 153.04L99.8799 153.05Z" fill="black"/>
<path d="M127.35 237.73H174.26C175.03 242.66 175.03 242.81 170.78 242.83C157.6 242.91 144.43 242.83 131.26 242.9C127.85 242.93 126.18 241.92 127.35 237.73Z" fill="black"/>
<path d="M56.39 225.79C54.86 224.79 52.49 224.08 51.94 222.67C46.67 209.25 41.71 195.67 36.52 181.8L41.52 179.31C47.12 194.45 52.52 209.13 57.99 223.82L56.39 225.79Z" fill="black"/>
<path d="M87.86 168.78V173.78H81.39C80.3 167.86 80.72 167.52 87.86 168.78Z" fill="black"/>
<path d="M148.53 168.85C148.1 170.42 147.68 171.98 147.16 173.85C146.16 173.94 145.16 174.09 144.04 174.12C143.12 174.12 142.19 174.02 140.84 173.93C140.68 172.31 140.53 170.73 140.26 168.03L148.65 168.94L148.53 168.85Z" fill="black"/>
<path d="M237.07 168.59V173.89H230.86C229.39 168 229.69 167.67 237.07 168.59Z" fill="black"/>
<path d="M27.9999 168.06V173.84H21.4999L21.1299 168.4L27.9999 168.06Z" fill="black"/>
<path d="M57.9999 174H51.3999V168.48H57.6599L57.9999 174Z" fill="black"/>
<path d="M207 168V173.79H200.61C200.49 172.19 200.37 170.62 200.2 168.42L207 168Z" fill="black"/>
</g>
<defs>
<clipPath id="clip0">
<rect width="250.01" height="250.01" fill="white"/>
</clipPath>
</defs>
</svg>
