<svg xmlns="http://www.w3.org/2000/svg" viewBox="0 0 1475.37 1603.02"><defs><style>.cls-1{fill:#fff;}</style></defs><title>pentatlhon-white</title><g id="Calque_2" data-name="Calque 2"><g id="Calque_1-2" data-name="Calque 1"><g id="Calque_2-2" data-name="Calque 2"><g id="Calque_1-2-2" data-name="Calque 1-2"><path class="cls-1" d="M352.35,775l99.89,152,114.1-57.72q-2.24-11.28-4.46-22.61c-37.15-7.59-74.2-15.7-111.47-22.62-38.19-7.1-50.58-27.11-32.13-62.3,17.48-33.33,32-69.66,56.14-97.5,13.45-15.53,43.77-16.46,66.49-24,2.4,24.21,11.12,50.07,5.35,72.14-5.3,20.24-26.22,36.39-44.73,60L585.27,809c59.29-95.68,137.4-154,250.05-162.78,16.82-1.31,30.86-38.19,52.36-66.84,31.08,92.87,62,183.8,91.21,275.27,2.17,6.79-6,23.14-12.17,24.89-9.38,2.64-24.91-.1-31.47-6.79-29.16-29.76-56.06-61.74-85.1-94.4-69.89,47-84.55,108.52-97.89,181.65,42.94-7.44,75.57-18.19,107.6-16.63,17.65.87,47.91,21.17,49.17,34.87,8.48,91.86-62.17,180.54-169.08,197.23,15.79-19.83,28.9-53.16,47.87-56.91,52.47-10.38,45.51-43.06,48.13-85.93-71.05,30.73-134.38,57.28-197,85.4-97.78,44-199.75,69.47-305.17,43.17-62.35-15.55-120.42-48.3-180.41-73.31q1.71-12.32,3.41-24.64L352.17,969.6c-19.38-46.26-43.21-86.29-50.65-129.17C298.56,823.37,331.87,800,352.35,775Z"/><path class="cls-1" d="M994.05,1262.83c4.89-16.58,8-33.95,15-49.61,57.71-130,117.19-259.21,173.79-389.66,22.11-50.95,52.08-66.86,103-39.94,46.2,24.45,96,43.06,139.25,71.69,15.84,10.47,31.17,51.32,23.49,63-50.58,76.56-107.38,149-162.75,222.38-2.74,3.62-11,3.07-28,7.23,10.9-85.58,68.89-144.27,93.76-215.76-76-49.19-88.9-46.27-135.37,28.32q-83,133.17-166.8,265.81c-10.4,16.41-23.5,31.12-35.35,46.61Z"/><path class="cls-1" d="M707.34,116.68,684,68,499.43,132.36q-4.76-9.63-9.52-19.24C497.84,103.19,503.85,90,514.07,84c30.46-18.13,61.6-35.89,94.31-49.28C643.65,20.25,699.17-9.85,714.08,3.2c47.21,41.31,87.6,95.7,115.09,152.54,21.31,44.08-48.83,93.66-107.36,89.09-63.79-5-128.29-1-192.47-1H355.56q-2.07-14.57-4.13-29.13Z"/><path class="cls-1" d="M1321.74,1333.94c-84.34,40.13-156.74,72.19-226.64,109-27.4,14.44-47.28,42.71-74.08,58.86-22.45,13.53-51.87,15.21-75,28-170.14,93.88-169.9,94.39-346.44,19.18-40-17-63.66-43.66-40.6-87.94,22-42.26,55.38-37,90-14.72,12.3,7.93,25,15.25,37.4,23,122.25,76.77,166.52,72.35,291-16,22.74-16.14,62-6.89,89.65-18.63,76.87-32.58,151.64-70.12,227.41-105.33C1297.37,1328.06,1302.12,1330.54,1321.74,1333.94Z"/><path class="cls-1" d="M185.38,475.62c-29.94,45.93-40.74,72.09-59.58,89.58-53.46,49.63-61,102.89-27.26,166.5,12.5,23.59,18.62,51.07,24.25,77.5,2,9.29-6.2,20.74-9.73,31.2-9.84-5.45-24.62-8.47-28.71-16.76q-42.93-87-81.52-176.21c-4.33-10-3.52-25.52,1.23-35.48,22.47-47.09,44.7-94.65,72.45-138.62,8.54-13.53,34.55-22.85,52-22.09C147.69,452.07,166.23,466.79,185.38,475.62Z"/><path class="cls-1" d="M240,430.94c98.16,0,183.49.7,268.78-.53,19.93-.28,47.49-.15,58.36-12.15,59.44-65.58,129.78-26.76,194.81-35q2,8.33,4,16.65c-11.25,4-22.41,11.3-33.76,11.59-55.29,1.45-113.32-9.28-151.58,48.32-5.14,7.74-22.85,8.3-35,10-92.6,13.07-185.27,25.61-281.17,38.76C257,484.94,249.68,461.83,240,430.94Z"/><path class="cls-1" d="M1116.14,819.05c-51.53-133.81,2.12-265.39,119.79-306.41,14.67-5.12,44.43,3,51.55,14.54,7.41,12.05-4.06,35.79-7.61,54.35-.29,1.51-3,3.32-4.89,3.64-119,20.61-135.61,110.16-141.11,207.88C1133.5,799.49,1125.66,805.51,1116.14,819.05Z"/><path class="cls-1" d="M489,1250.34l-65.07,171.38,75,5.59-28.06,81.9c-7.13,1.84-11.26,4.14-15.06,3.7-142.29-16.72-142.62-16.94-73.57-141.1,25.39-45.67,52.77-90.22,79.25-135.29Z"/><path class="cls-1" d="M828.19,183.06c41.23-32.91,62.25-62.73,87.42-66.78,39.68-6.39,71,24.41,62,64.2-5.63,24.83-36.42,57.3-59.75,60.79C897,244.4,870.86,212.53,828.19,183.06Z"/><path class="cls-1" d="M1377.4,650.14l83.6-97.29,14.37,8.6c-2.16,12-.93,26.28-7.06,35.74-28.25,43.55-57.55,86.53-88.89,127.88-7,9.23-26.55,18-35.21,14.51-9.72-4-19.71-22.57-18.92-34.07,2.26-32.92,9.93-65.47,16.83-106.2Z"/><path class="cls-1" d="M204.32,279.9c13.83,24.23,40.75,50.2,37.84,72.23-2.95,22.29-33.13,54-55.44,57.83-38.36,6.53-64.31-25.1-55.53-63.43,5.72-25,30.71-45.54,47.07-68.07Z"/><path class="cls-1" d="M1325.81,510.53c-15.4-22.86-45-47.56-42.35-68.08,2.85-22.07,33.58-50.76,56.83-56.07,13.75-3.15,50.5,32.53,51.67,52.25,1.36,22.85-25,47.35-39.26,71.14Z"/><path class="cls-1" d="M686.36,595.81l-63.19,3.59c1.69,18.94,3.2,36,4.76,53.52-3.27-.28-8,.71-9.43-1-16.82-20-39.18-38.21-47.58-61.43-6.06-16.71,1.69-54.1,12.05-57.82,21.41-7.68,51.93-5.43,72.45,5C670.2,545.21,674.87,572.6,686.36,595.81Z"/><path class="cls-1" d="M1174.68,234.15H997.34l17.31-59.56,161.67,40.13Q1175.49,224.44,1174.68,234.15Z"/><path class="cls-1" d="M659.73,1258c10.95,24.63,30.74,49.39,30.38,73.85-.37,24.7-20.72,49.1-32.32,73.63l-17.89-6.94V1267.63Z"/><path class="cls-1" d="M605,1264.68v128.09c-69.18-2.15-47.87-52.76-47.41-86.79.25-18.29,17.53-36.34,27.13-54.5Z"/></g></g></g></g></svg>