<svg xmlns="http://www.w3.org/2000/svg" viewBox="0 0 3632.16 3893.28"><defs><style>.cls-1{fill:#fff;}</style></defs><title>Fichier 38</title><g id="Calque_2" data-name="Calque 2"><g id="Calque_1-2" data-name="Calque 1"><path d="M1833.75,2906.05C1291,2686.39,732.62,2540.24,155.07,2462.87c-67-9-194.81,24.72-143-164.68C320,2356.81,633.37,2403.3,939.74,2478.47c308,75.57,609,179.68,926.11,275.24,22.28-373.31,252.29-658.46,405.67-975.81,83.11-172,225.19-219.59,347.23-137.43,120.46,81.11,132.64,237.25,27.94,379.68-43.85,59.65-90.9,116.95-141.36,181.55l378.21,484.58c69.21-19.27,135.6-54.64,199.72-50.94,67.07,3.87,164.21,28.41,188.66,75.1,24,45.91-5.32,153.44-48.64,194.53-118.25,112.18-256.23,203.57-400.38,313.91l809.26,492.94c-22.93,127.62-77.83,112.95-156,64.51-226.19-140.13-457.62-271.85-682.57-413.89-84.86-53.58-147-48.85-227.79,10.18-141.58,103.44-292,195.14-440.91,288.16-184.33,115.12-383,123.81-582.44,53-108.91-38.67-126.68-149.08-35.93-169.4,308.12-69,308-306.68,328-540.16,1.81-21.09,4.35-42.11,5.9-63.22C1840.8,2935.88,1838.58,2930.56,1833.75,2906.05Zm483.63-528.93L2076,2835.35c314.6,204.18,415.41,192.29,638.4-52-24.32-27-47.87-55.38-73.66-81.51C2547.67,2607.56,2453.84,2514,2317.38,2377.12Zm-326.47,888.3L2263.29,3091l-203.55-86.75C2037.63,3088.2,2019.66,3156.35,1990.91,3265.42Z"/><path d="M2307.8,880.74c400.7,41.38,761.81,194.37,1107.39,388.53,27.63,15.52,35.18,66.79,52.06,101.45-35.81,14.74-70.9,31.92-107.82,42.89-12.8,3.79-30.89-6.19-45.33-12.64-317.74-141.91-647.12-189.12-994-145-133.62,17-223.62-79.9-212.51-198.54S2187.16,876.34,2307.8,880.74Z"/><path d="M1682.38,1214.46c-131.06-3.67-243.41-132.29-235.23-269.3,8.3-139,112.89-238.7,247.48-235.95C1831.94,712,1937.84,830.6,1930,972.76,1922.7,1104.26,1806.27,1217.92,1682.38,1214.46Z"/><path d="M2233.7,720.22l-279.44,43.15c-144-204.82-289.59-405.35-426.11-611.87C1503,113.43,1514.46,51.12,1509,0c44,17.88,100.8,24,130,55.54C1834.59,267.42,2024.32,484.71,2233.7,720.22Z"/><path d="M2335.13,3845.09c-43.06,17.78-87.82,52-128.62,47.84-29.68-3.06-76.87-58.43-74.94-87.76,2.22-33.71,45.07-75,80.31-91.37,14.73-6.84,55.35,42.09,84.19,65.66Z"/><path class="cls-1" d="M2317.38,2377.12c136.46,136.89,230.29,230.44,323.36,324.74,25.79,26.13,49.34,54.47,73.66,81.51-223,244.27-323.8,256.16-638.4,52Z"/><path class="cls-1" d="M1990.91,3265.42c28.75-109.07,46.72-177.22,68.83-261.13L2263.29,3091Z"/></g></g></svg>