<svg xmlns="http://www.w3.org/2000/svg" viewBox="0 0 3289.37 4335.37"><title>Fichier 36</title><g id="Calque_2" data-name="Calque 2"><g id="Calque_1-2" data-name="Calque 1"><path d="M1935.84,3458.28c393.23,220.19,796.47,444,1197,672.56,55.38,31.6,97.45,86.54,144.14,129.27-13.76,21.58-20.31,39.72-25.87,39.43-134.91-7.22-286.32-59.19-400.53-14.88-159.26,61.8-279,50.53-400.78-46.28-211.82,126.83-246.44,127-465.69,0-140.44,121.91-290.74,131.15-442.63-1.91-43.13,25.53-81.74,54.58-124.91,72.85-161.09,68.16-322.78-.39-351.26-172.07-42.53-256.46-58.78-517.28-90.26-814.5-130.37-35.13-302.86-104.25-479.94-119.26-81.89-7-171.16,94.61-260,141.51C158.91,3385.29,78.55,3417.79,0,3453.72c.72-86.41-1.07-172.94,3.38-259.16,1.85-35.89,7.45-78.5,28.06-105.14,50-64.62,109.79-121.66,165.63-181.76L312.4,3091.1,1530,3388.91c-196-288-449.27-396.47-772.27-339.49-149.66,26.41-205.32-52.33-223.54-185.86,445.48,30,840,156.63,1147,572.76l949.93-3426L2673.69,0c64.65,133.11,138.58,262.57,192.43,399.91,368.47,939.75,467.76,1917.53,406.34,2918-6.91,112.7-56,143.24-161.5,142.12C2709.38,3455.75,2307.74,3458.28,1935.84,3458.28Z"/><path d="M906.82,3402.22c22.78,288.63-9.27,350.92-245.16,394.7-64.5,12-176.12-42.64-210.95-100.12-58.33-96.25-3.57-191.61,107.76-223.9C667.59,3441.26,781.71,3426.81,906.82,3402.22Z"/><path d="M192.65,2418.53c80.52,107.94,168.78,175.84,159.91,226.86C341,2712,252.47,2765.14,197.07,2824.08,146.08,2768.2,61,2716.22,54,2655.3,47.36,2597.6,122.72,2530.52,192.65,2418.53Z"/></g></g></svg>