<svg xmlns="http://www.w3.org/2000/svg" viewBox="0 0 864.07 926.2"><defs><style>.cls-1{fill:#fff;}</style></defs><title>planche-a-roulettes-white</title><g id="Calque_2" data-name="Calque 2"><g id="Calque_1-2" data-name="Calque 1"><g id="Calque_2-2" data-name="Calque 2"><g id="Calque_1-2-2" data-name="Calque 1-2"><g id="Calque_2-2-2" data-name="Calque 2-2"><g id="Calque_1-2-2-2" data-name="Calque 1-2-2"><path class="cls-1" d="M436.23,691.35A1638.59,1638.59,0,0,0,36.88,585.91c-15.94-2.14-46.35,5.89-34-39.17,73.26,13.94,147.81,25,220.69,42.89,73.27,18,144.88,42.74,220.32,65.47,5.3-88.81,60-156.64,96.51-232.14C560.15,382,594,370.72,623,390.27c28.65,19.29,31.55,56.44,6.64,90.32C619.2,494.78,608,508.41,596,523.78l90,115.28c16.46-4.58,32.26-13,47.51-12.12,16,.93,39.07,6.76,44.88,17.87,5.71,10.92-1.26,36.5-11.57,46.28-28.13,26.69-60.95,48.43-95.25,74.68L864.07,883c-5.45,30.36-18.51,26.87-37.11,15.35C773.15,865,718.1,833.67,664.58,799.88c-20.19-12.75-35-11.62-54.19,2.42-33.68,24.7-69.47,46.47-104.89,68.6-43.86,27.38-91.12,29.45-138.57,12.6-25.9-9.2-30.13-35.46-8.54-40.3,73.3-16.41,73.27-73,78-128.5.43-5,1-10,1.4-15C437.91,698.44,437.38,697.18,436.23,691.35ZM551.29,565.51l-57.42,109c74.84,48.57,98.82,45.74,151.87-12.37-5.79-6.43-11.39-13.18-17.52-19.39C606.08,620.34,583.75,598.08,551.29,565.51ZM473.62,776.84l64.8-41.49L490,714.71c-5.26,20-9.54,36.18-16.38,62.13Z"/><path class="cls-1" d="M549,209.53c95.33,9.84,181.23,46.24,263.45,92.43,6.57,3.69,8.37,15.89,12.38,24.13-8.52,3.51-16.86,7.6-25.65,10.21-3,.9-7.35-1.48-10.78-3-75.59-33.76-153.95-45-236.47-34.5-31.79,4-53.2-19-50.56-47.23S520.31,208.48,549,209.53Z"/><path class="cls-1" d="M400.22,288.92c-31.17-.87-57.9-31.47-56-64.07,2-33.07,26.86-56.78,58.88-56.13,32.66.66,57.86,28.88,56,62.7C457.4,262.7,429.7,289.74,400.22,288.92Z"/><path class="cls-1" d="M531.38,171.34,464.9,181.6C430.65,132.88,396,85.17,363.53,36c-6-9.06-3.25-23.88-4.55-36,10.46,4.25,24,5.71,30.92,13.21C436.43,63.62,481.57,115.31,531.38,171.34Z"/><path class="cls-1" d="M555.51,914.74c-10.24,4.23-20.89,12.37-30.6,11.38-7.06-.72-18.28-13.9-17.82-20.87.52-8,10.72-17.85,19.1-21.74,3.51-1.63,13.17,10,20,15.62Z"/></g></g></g></g></g></g></svg>