<svg xmlns="http://www.w3.org/2000/svg" viewBox="0 0 3513.81 3609.57"><defs><style>.cls-1{fill:#fff;}</style></defs><title>plongeon-white</title><g id="Calque_2" data-name="Calque 2"><g id="Calque_1-2" data-name="Calque 1"><g id="Calque_2-2" data-name="Calque 2"><g id="Calque_1-2-2" data-name="Calque 1-2"><path class="cls-1" d="M1529,577c89-52,169.44-139.51,245-135.51,236.21,12.47,475,42.3,703.84,100.39,114.93,29.17,134.07,164.88,94.14,276.6-42.79,119.71-143.84,163.25-261.67,129.09-124.83-36.2-244.49-90.52-365.8-138.44-165.16-65.23-411.79,72-441.8,250.74-8.8,52.4-1.36,107.53-1.36,182.44L1865.72,962l182.1,199c-145.57,75.67-286.32,151.67-429.68,222.37-95.76,47.23-138.61,111.94-141.73,225.42-8.75,317.88-29.55,635.6-54.24,952.71-3.82,49-53.2,94.42-81.51,141.49-28-43.38-76.52-84.79-80.92-130.44-70.68-734.76-135.82-1470.05-201.84-2205.26a638.67,638.67,0,0,1-1.73-85.16C1063.72,113,1158.46.45,1292.73,0c137.48-.46,230.93,108.3,235.75,279.06C1531.29,378.47,1529,478,1529,577Z"/><path class="cls-1" d="M.1,3609.53c-4.39-169,132.92-255.4,277.2-215.61,95.32,26.29,204.05,6.25,306.62,2.63,31-1.1,73.32-34.27,90.27-22.83,134.89,91,263.37,88.12,397.85-.6,16.61-11,57.72,22.43,87.86,23.42,102.44,3.37,205.06,1.45,307.61,1.48,192.53.06,385.1-2.1,577.55,2,37.42.79,79.44,44.78,110.63,36.41,177.5-47.68,353.17-7.74,527.87-11.15,120.79-2.36,234.11-46,361,8,50.26,21.37,130.92-14.2,192.7-37.32,144-53.93,287.68,46.8,275.87,213.61Z"/><path class="cls-1" d="M2585.79,1501.6c1.79,159.21-121.13,291.53-271.11,291.88-147.79.33-273.85-134.79-272.15-291.72,1.64-151.72,117.76-274.34,263.9-278.67C2462.28,1218.47,2584,1339.79,2585.79,1501.6Z"/></g></g></g></g></svg>