<svg xmlns="http://www.w3.org/2000/svg" viewBox="0 0 3362.74 4432.34"><title>Fichier 20</title><g id="Calque_2" data-name="Calque 2"><g id="Calque_1-2" data-name="Calque 1"><path d="M2472,2503.93c135.73,33.49,283.29,51.39,412.9,109.39,68.83,30.8,128.6,124.43,152.25,202,25,82-8,179.73,2.2,268.53,37.83,328.58-126.65,535.27-410.4,690.93-51.57-151.88-54.37-269.19,114-355.53,207.75-106.5,50.57-282.63,51.09-424.84.11-30.76-117.88-79.43-185.8-88.94-107.48-15.06-218.61-4-320.3-4-174.64,562.71-213.74,940.52-159.89,1507.3-164.88,57.05-240.48,15.26-236.94-175.14,8.1-435.35,2.56-870.95,2.56-1329.61C1057.43,2917.64,287.73,2831.79,0,1850H856.4V1558.51c233-33.06,406.22,79.68,577.5,213.84,166.35,130.3,248.75,112.49,352.55-67.91-67-32.68-129.93-76-199.55-95.2-315.08-86.68-478-340.27-651.15-582.61C858.53,918.57,867.41,809.87,982,739c120.13-74.26,216.91-17.51,270.54,99.46,138.92,303,323.35,562.39,590.73,682.37,276.6-123.56,522.64-238.34,773.31-341.92,60.68-25.07,139.76-28.57,205-15.39,205,41.4,402.63,80.91,489.66-221.66l51.47,52.2C3342.4,1403.47,3323.6,1813,3298.22,2222c-1.68,27-56.79,74.35-81.22,70.91-38.77-5.47-89.23-38-105.71-72.78-76.48-161.51-143-327.77-212.43-490.89C2629.67,1823.43,2453.09,2146.78,2472,2503.93Z"/><path d="M1356.57,329.61H769.45c36.21-112,69.29-214.22,106.6-329.61h382.83Z"/></g></g></svg>