<svg xmlns="http://www.w3.org/2000/svg" viewBox="0 0 284.18 374.57"><title>zef</title><g id="Calque_2" data-name="Calque 2"><g id="Calque_1-2" data-name="Calque 1"><path d="M208.91,211.6c11.47,2.83,23.94,4.35,34.89,9.25,5.82,2.6,10.87,10.51,12.87,17.06,2.11,6.93-.68,15.19.18,22.7,3.2,27.77-10.7,45.23-34.68,58.39-4.36-12.84-4.6-22.75,9.64-30.05,17.55-9,4.27-23.88,4.31-35.9,0-2.6-10-6.71-15.7-7.52-9.08-1.27-18.47-.34-27.07-.34-14.76,47.56-18.06,79.49-13.51,127.38-13.93,4.83-20.32,1.29-20-14.8.68-36.79.21-73.6.21-112.36-70.67,1.16-135.71-6.1-160-89.07H72.37V131.71c19.69-2.8,34.33,6.73,48.81,18.07,14,11,21,9.5,29.79-5.74-5.66-2.76-11-6.43-16.86-8-26.63-7.32-40.39-28.75-55-49.23C72.55,77.63,73.3,68.44,83,62.45c10.15-6.27,18.33-1.48,22.86,8.41,11.74,25.6,27.33,47.53,49.92,57.67,23.38-10.45,44.17-20.15,65.35-28.9,5.13-2.12,11.82-2.41,17.33-1.3,17.32,3.5,34,6.84,41.38-18.73L284.18,84c-1.72,34.6-3.31,69.2-5.45,103.77-.14,2.28-4.8,6.28-6.87,6-3.27-.46-7.54-3.21-8.93-6.15-6.46-13.65-12.08-27.7-18-41.48C222.23,154.09,207.31,181.42,208.91,211.6Z"/><path d="M114.64,27.85H65L74,0h32.36C109.12,9.24,111.56,17.45,114.64,27.85Z"/></g></g></svg>