<svg xmlns="http://www.w3.org/2000/svg" viewBox="0 0 451.95 468.14"><defs><style>.cls-1{fill:#fff;}</style></defs><title>randonnee-pedestre-white</title><g id="Calque_2" data-name="Calque 2"><g id="Calque_1-2" data-name="Calque 1"><path class="cls-1" d="M18,468.14l-9.44-4.87c2-4,3.65-7.65,5.56-11.18,20.78-38.38,41.46-76.81,62.54-115,3.33-6,3.19-10.54-.09-16.46-18.4-33.25-36.27-66.79-54.69-100-1.89-3.4-5.84-6.42-9.53-7.9-13.84-5.6-16.77-19.68-5.21-29.45,9.19-7.77,19.09-14.7,28.69-22l79.22-60C137.48,84.38,159.48,85,180.82,103c16.11,13.6,32.16,27.29,48,41.24,3.54,3.12,7.65,7.1,8.66,11.36,5.1,21.45,7,43.29-.8,64.45-4.43,12-14.44,17.66-28.64,17.85,0-16.53-1.53-32.8.4-48.65,2.3-18.87-6.62-29.46-23.11-38.31V257h-75.8V146.78L34.38,203.62,91.84,310c7.41-15,13.84-28.11,20.91-42.48h67l60.53,112,60.4-111.68H368c5.45,10.56,10.2,20.64,15.72,30.27,16.26,28.4,33.39,56.32,49.06,85,7.67,14.07,12.87,29.49,19.19,44.29v15.83q-9,12.44-18.08,24.86h-2.26a30.44,30.44,0,0,0-1.72-5.17q-46.08-85.23-92.29-170.38c-1-1.83-2.54-3.34-4.3-5.61-22.45,41.4-44.66,81.89-66.25,122.71-2.64,5-3.36,11.94-2.55,17.64,2.55,18-4.21,33-18.9,38.8l-6.07-7.74-18.1,9.75H203.35c-2.41-1.95-4.81-3.91-7.29-5.93,6.63-12.62,13.16-24.45,19-36.61,1.55-3.22,2.61-8.32,1.14-11.11C193.85,372,171,329.84,147.32,285.74c-6.14,11.24-10.24,22-17.07,30.57-17.29,21.74-16,41.22-.51,64.19,16.45,24.38,28.62,51.65,42.9,78.1l-14.5,9.51h-2.26l-53.15-99.64c-2.69,4.67-4.55,7.77-6.29,10.93-11.16,20.39-22.88,40.5-33.22,61.29-6.54,13.18-15.4,22.77-29.38,27.45Z"/><path class="cls-1" d="M250.38,233.78c13.3-13.42,26.63-26.13,39-39.75a28.69,28.69,0,0,0,7-16.44c.92-16.53.26-33.13.35-49.71s9.83-31.47,23.66-36.46c15.42-5.56,33.71-1.22,43.17,13.35q35.88,55.38,69.58,112.2c8,13.36,2.44,29-12.21,40.09q-23.85-37.93-47.61-75.76l-2.38.66v75.17h-74V234.66C280.45,244.45,265.26,247.55,250.38,233.78Z"/><path class="cls-1" d="M128.76,74.84a37.54,37.54,0,0,1-37.93-38C91,17.2,108,.5,128,.32a37,37,0,0,1,37.64,37,36.78,36.78,0,0,1-36.92,37.57Z"/><path class="cls-1" d="M319.27,74.8c-20.87-.25-36.9-16.65-36.75-37.6a37.17,37.17,0,1,1,74.33.83C356.51,59.11,340.23,75,319.27,74.8Z"/></g></g></svg>