<svg width="453" height="469" viewBox="0 0 453 469" fill="none" xmlns="http://www.w3.org/2000/svg">
<path d="M18.9871 468.241L9.54711 463.371C11.5471 459.371 13.1971 455.721 15.1071 452.191C35.8871 413.811 56.5671 375.381 77.6471 337.191C80.9771 331.191 80.8371 326.651 77.5571 320.731C59.1571 287.481 41.2871 253.941 22.8671 220.731C20.9771 217.331 17.0271 214.311 13.3371 212.831C-0.502894 207.231 -3.43289 193.151 8.12711 183.381C17.3171 175.611 27.2171 168.681 36.8171 161.381C63.2171 141.381 89.6238 121.381 116.037 101.381C138.447 84.481 160.447 85.071 181.787 103.071C197.897 116.671 213.947 130.361 229.787 144.311C233.327 147.431 237.437 151.411 238.447 155.671C243.547 177.121 245.447 198.961 237.647 220.121C233.217 232.121 223.207 237.781 209.007 237.971C209.007 221.441 207.477 205.171 209.407 189.321C211.707 170.451 202.787 159.861 186.297 151.011V257.071H110.497V146.881L35.3471 203.721L92.8071 310.121C100.217 295.121 106.647 282.011 113.717 267.641H180.717L241.247 379.641L301.647 267.961H368.947C374.397 278.521 379.147 288.601 384.667 298.231C400.927 326.631 418.057 354.551 433.727 383.231C441.397 397.301 446.597 412.721 452.917 427.521V443.351C446.917 451.644 440.89 459.931 434.837 468.211H432.577C432.158 466.44 431.582 464.71 430.857 463.041C400.137 406.221 369.374 349.428 338.567 292.661C337.567 290.831 336.027 289.321 334.267 287.051C311.817 328.451 289.607 368.941 268.017 409.761C265.377 414.761 264.657 421.701 265.467 427.401C268.017 445.401 261.257 460.401 246.567 466.201L240.497 458.461L222.397 468.211H204.317C201.907 466.261 199.507 464.301 197.027 462.281C203.657 449.661 210.187 437.831 216.027 425.671C217.577 422.451 218.637 417.351 217.167 414.561C194.817 372.131 171.997 329.941 148.287 285.841C142.147 297.081 138.047 307.841 131.217 316.411C113.927 338.151 115.217 357.631 130.707 380.601C147.157 404.981 159.327 432.251 173.607 458.701L159.107 468.211H156.847L103.697 368.571C101.007 373.241 99.1471 376.341 97.4071 379.501C86.2471 399.891 74.5271 420.001 64.1871 440.791C57.6471 453.971 48.7871 463.561 34.8071 468.241H18.9871Z" fill="black"/>
<path d="M251.347 233.881C264.647 220.461 277.977 207.751 290.347 194.131C294.368 189.534 296.82 183.775 297.347 177.691C298.267 161.161 297.607 144.561 297.697 127.981C297.787 111.401 307.527 96.5107 321.357 91.5207C336.777 85.9607 355.067 90.3007 364.527 104.871C388.447 141.791 411.64 179.191 434.107 217.071C442.107 230.431 436.547 246.071 421.897 257.161C405.997 231.874 390.127 206.621 374.287 181.401L371.907 182.061V257.231H297.907V234.761C281.417 244.551 266.227 247.651 251.347 233.881Z" fill="black"/>
<path d="M129.727 74.9406C124.725 74.9943 119.763 74.0475 115.132 72.156C110.501 70.2645 106.296 67.4663 102.762 63.926C99.228 60.3857 96.4376 56.1746 94.5546 51.5404C92.6716 46.9062 91.734 41.9423 91.7969 36.9406C91.9269 17.3006 108.957 0.600575 129.007 0.420575C133.915 0.335659 138.791 1.22832 143.351 3.04656C147.911 4.86479 152.064 7.57225 155.567 11.0112C159.07 14.4501 161.854 18.5518 163.756 23.0773C165.658 27.6028 166.641 32.4615 166.647 37.3706C166.751 42.2781 165.872 47.1569 164.062 51.7194C162.251 56.282 159.546 60.4362 156.106 63.9373C152.665 67.4384 148.559 70.2156 144.028 72.1053C139.498 73.995 134.636 74.959 129.727 74.9406V74.9406Z" fill="black"/>
<path d="M320.237 74.9007C299.367 74.6507 283.337 58.2507 283.487 37.3007C283.483 32.3819 284.455 27.5112 286.347 22.9708C288.239 18.4305 291.014 14.3109 294.51 10.8507C298.006 7.3906 302.154 4.65876 306.713 2.81356C311.273 0.968369 316.153 0.0465163 321.072 0.101438C325.99 0.156361 330.849 1.18696 335.366 3.13352C339.884 5.08007 343.97 7.90385 347.388 11.4412C350.805 14.9785 353.487 19.1591 355.277 23.7405C357.068 28.322 357.931 33.2132 357.817 38.1307C357.477 59.2107 341.197 75.1407 320.237 74.9007Z" fill="black"/>
</svg>
