<?xml version="1.0" encoding="utf-8"?>
<!-- Generator: Adobe Illustrator 24.0.3, SVG Export Plug-In . SVG Version: 6.00 Build 0)  -->
<svg version="1.1" id="Calque_1" xmlns="http://www.w3.org/2000/svg" xmlns:xlink="http://www.w3.org/1999/xlink" x="0px" y="0px"
	 viewBox="0 0 3377 1765.4" style="enable-background:new 0 0 3377 1765.4;" xml:space="preserve">
<style type="text/css">
	.st0{fill:#FFFFFF;}
</style>
<title>sambo-white</title>
<g id="Calque_2_1_">
	<g id="Calque_1-2">
		<g id="Calque_2-2">
			<g id="Calque_1-2-2">
				<path class="st0" d="M851.2,1740.7c26.6-152.6,31.2-313.4,85-455.7c74.6-197.3-0.5-314.6-163.1-423.4
					c-204.8,260.8-410.3,522.4-616.3,784.7c-22.9,29.2-43,62.6-71.6,84.7c-17.2,13.3-50.4,15.3-72.3,8.7c-9.7-2.9-15.6-41.1-11.6-61
					c5.3-26.5,19.9-51.9,33.8-75.9c197.1-342.2,392.2-685.6,593.5-1025.3c95-160.3,187.2-142.6,304.8,3.2
					c231,286.6,279.7,579.2,101,907.6c-46.9,86.2-71.5,184.5-106.4,277.2L851.2,1740.7z"/>
				<path class="st0" d="M2595,918.9c-149.7,87.8-238.7,189.4-244.4,359.7c-4.3,128.9-37.2,257.4-64.9,384.5
					c-7.1,32.8-42.6,59.3-65.1,88.8c-14.1-30.3-40.9-61-40.1-90.9c5.6-204.6,8-410,31.6-612.8c8.2-70.1,66.4-139.8,115.3-198.4
					c74.3-89,156.6-172.2,242.3-250.5c109.1-99.6,220.7-61.4,258.7,82.9c5.9,22.5,15.4,46.1,13.3,68.2
					c-28.4,297.9,121.3,506.4,333.6,689.1c73.4,63.1,133.8,142.4,193.9,219.2c14.5,18.5,4.3,56.3,5.4,85.3
					c-25.8-2.2-59.8,5.4-76.1-8.2c-195.9-164.3-399.6-321.4-577.8-503.4C2649.9,1160,2637.2,1030.6,2595,918.9z"/>
				<path class="st0" d="M1408.5,863.7c94.8,17,189.2,41.2,284.7,47.1c35.9,2.2,85.8-29,109.9-60.1
					c136.2-175.9,266.5-356.3,398.7-535.3c27.6-37.3,46.9-91.8,83.6-108.7c49.9-22.9,113-17.2,170.4-23.8
					c4,58.7,35.1,143.9,7.8,171.9c-211,215.4-412,452.7-661,613.8c-127.2,82.3-348.3,36.9-523.8,18.9
					c-78.7-8.1-114.1-549.2-42.2-603.2c28.6-21.5,84.8-35.2,112.7-21.1c34.3,17.4,72.2,66.8,73.3,103.4
					C1426.6,591,1415.1,716,1408.5,863.7z"/>
				<path class="st0" d="M2180.4,169.6c-10,92.6-58.3,155.7-159,152.1c-100.2-3.6-149.7-69.4-147.8-166
					C1875.6,57,1934-2.5,2031.6,0.1C2130.4,2.7,2178.2,67.6,2180.4,169.6z"/>
				<path class="st0" d="M1612.3,662.1c-39.3-62.1-102.9-120.7-112.2-187c-12.9-91.9,52.4-159.9,152.3-157.5
					c98.6,2.4,164.2,72.3,149.4,162.7c-10.8,65.9-79,122.3-121.5,183L1612.3,662.1z"/>
			</g>
		</g>
	</g>
</g>
</svg>
