<svg xmlns="http://www.w3.org/2000/svg" viewBox="0 0 1528.12 1151.35"><defs><style>.cls-1{fill:#fff;}</style></defs><title>saut_1-white</title><g id="Calque_2" data-name="Calque 2"><g id="Calque_1-2" data-name="Calque 1"><g id="Calque_2-2" data-name="Calque 2"><g id="Calque_1-2-2" data-name="Calque 1-2"><path class="cls-1" d="M1521.89,281.63l-63.28-12.3C1190,186.2,699.39,90.79,233.37,31a399.72,399.72,0,0,1-55.52-11.43c-10.14-2.83-25.2-11.07-23.41-12.91C158,3.12,170,.55,181.74.87s27.33,5.64,41.47,7.3C640,57.12,1061.84,138.64,1467.59,250.31,1501.07,259.52,1544.42,262.1,1521.89,281.63Z"/><path class="cls-1" d="M323.62,574c40.59-51.43,95.73-52.91,119.58-11C504.43,670.66,584,771.29,568.76,909c-7.32,66.23,2.31,134.21,1.2,201.35-.22,13.78-14.08,27.34-21.65,41-9.71-12.59-25.59-24-28.09-37.93-14.72-81.76-23.35-164.71-40.33-245.93-7.47-35.77-25.48-71.39-46.38-101.8-28.87-42-69.18-76.42-96.31-119.33C322.91,623.84,326.23,590.12,323.62,574Z"/><path class="cls-1" d="M218.45,161.85c53.83,79.39-18.8,127.25-32.54,168.74-9.43-96.78-20.47-210-31.51-323.2l17-7.39c31,36.62,62.23,73.05,93,109.9,88.29,105.81,88.34,105.92,49.68,239-9.38,32.29-18.94,64.57-30.13,96.25-12.84,36.38-41.63,50.34-75.9,37.14-35.55-13.68-44.28-44.86-28.27-79.18,18.67-40,35.93-81.72,61.22-117.44C275.89,236.28,264,198.7,218.45,161.85Z"/><path class="cls-1" d="M502.45,592.81C628.73,676.07,755.31,758.9,880.73,843.46c9.36,6.31,10.44,24.92,15.37,37.82-12.68.73-27.82,6.38-37.65,1.45-93.17-46.82-190.08-88.56-276-146.5-41.31-27.86-61.34-87.26-91-132.38Z"/><path class="cls-1" d="M22.61,306.78c28.59-27.18,74.81-27.35,101.17-.37,25.35,25.95,23.32,74.3-4.25,101.11-28.76,28-72.83,27.66-100-.69S-6.33,334.31,22.61,306.78Z"/></g></g></g></g></svg>