<svg xmlns="http://www.w3.org/2000/svg" viewBox="0 0 3564.9 3784.09"><title>Fichier 22</title><g id="Calque_2" data-name="Calque 2"><g id="Calque_1-2" data-name="Calque 1"><path d="M0,2426l920.31-452.56c-112.89-182.59-383.89-272.12-299.07-529.8,33.9-103,128-186.22,220-313.53l450.11,675.24c165.32-130.06,408.06-113.3,496.18-371.75-175.9-27.23-328-49.93-479.83-74.47-213.66-34.54-256.47-110.89-161-308.11,68-140.58,146.66-276.26,225-411.57,70-121,173-183.58,298.82-90.5,119.26,88.23,106.76,205.89,20.5,318.36-60,78.23-119.56,156.78-199.1,261.14l355,139.6c122.71-143.9,219.9-299.79,355.88-406C2350.09,747,2524.82,642.2,2703.66,598.32c215.51-52.88,429.88-59.53,392.55-402.94l68.33,36.71Q3293.89,592,3423.1,951.85c47.83,133.87,103.42,266,137.39,403.33,15.34,62-13.54,135-22.36,203-58.59-22-135.35-27.75-172.4-69.08-113.82-127-212.42-267.54-320.74-407.76-313.35,256.64-397.82,521.38-433.44,838.32,173-32.52,322.93-66.4,474.64-87.76,182.55-25.7,252.9,39.16,212,208.74-48.16,199.92-76.6,424-190,583.08-103.66,145.32-309.38,217.84-486.25,300.88-6.11-180.49,12.72-317.34,219.75-346.42,205.06-28.82,100.21-206,162.83-360.83-333.29,152.94-622.87,283-910,418.23-465.18,219.09-946.9,298.21-1452.6,178.13C396,2755.26,182.45,2640.68,0,2426Z"/><path d="M2293,338.54l-275.82,13.37L2050,609.69l-38.24,15.8c-24.55-67-36.67-143-77.23-198.26-38.83-52.86-107.19-84-214-162.48C1779,187.19,1829,48.36,1916.34,18.43,2166.3-67.23,2203.55,163.84,2293,338.54Z"/><path d="M3288.31,3199.06c-80.72,55-136.76,122.77-183.29,116.77-48.32-6.22-130.44-96.61-121.26-127.4,16.82-56.46,85-123.29,141.17-133.35C3162.53,3048.34,3216.35,3132.14,3288.31,3199.06Z"/><path d="M3119.68,3454.65c56.39,87.79,127.17,151.67,115.44,190.82-16.7,55.73-94,93.29-145.41,138.62-38-51.36-105-102.34-105.64-154.19C2983.45,3582.45,3054.42,3534.06,3119.68,3454.65Z"/></g></g></svg>