<svg xmlns="http://www.w3.org/2000/svg" viewBox="0 0 1235.58 694.09"><defs><style>.cls-1{fill:#fff;}</style></defs><title>saut-white</title><g id="Calque_2" data-name="Calque 2"><g id="Calque_1-2" data-name="Calque 1"><g id="Calque_2-2" data-name="Calque 2"><g id="Calque_1-2-2" data-name="Calque 1-2"><path class="cls-1" d="M710.07,398.37c32.08-7.35,60-12.49,87.22-20.34,30.88-8.92,52.8-1.92,69.05,27.18,45,80.63,92.13,160.09,136.09,241.27,6.74,12.45,1.17,31.57,1.3,47.61-14.42-6.48-33.48-9.15-42.48-20.1Q891.88,589.6,827.36,501.27c-16.31-22.44-30.66-27.44-56.55-16.95-57,23.11-115.55,42.56-173.16,64.29-35.28,13.31-67.94,13.43-90.95-20.39-21.71-31.91-10.8-62.34,12.51-88.64,55.87-63.05,110.71-127.21,170.09-186.81,14.48-14.53,48-23.43,67.4-17.49,105.23,32.17,209.09,69,312.51,106.68,12,4.39,18.43,24.19,27.43,36.85-13.54,5.16-28.29,16.72-40.45,14.45-82.75-15.47-166-30-247-52.63C755.12,325.53,728.2,342.64,710.07,398.37Z"/><path class="cls-1" d="M157.87,308.48c43.24-16.65,77.19-30.76,111.85-42.81,40.75-14.17,75.64,1.29,86.64,36.53,13,41.79-7.87,78.84-53.4,87-63.55,11.35-127.58,20.44-191.69,28-41.37,4.88-60.94-20.42-45.59-60.69,29.06-76.2,60.58-151.51,93.12-226.3,4.83-11.08,20.8-17.31,31.61-25.79,3.54,13.27,12.33,27.7,9.7,39.62C188.58,196.41,173.74,248.07,157.87,308.48Z"/><path class="cls-1" d="M449.56,294.93l-58.45-74.76c97.23-72.42,195-145.68,293.6-217.71,6.83-5,20.34-.81,30.75-.89-3.62,13.17-3,30.88-11.52,38.83-87.17,81.38-175.81,161.18-264.05,241.42Z"/><path class="cls-1" d="M305.05,74.48c38.83.78,72.16,38.09,70.6,79-1.53,40.25-33.16,71.51-71.91,71.05-41-.49-71.58-34.49-69.84-77.7C235.52,106.92,268.13,73.74,305.05,74.48Z"/><path class="cls-1" d="M3.89,453.45H169.35q496.85,0,993.69.08c16.77,0,34.16-1.78,50,1.37,9.27,1.85,23.71,13.22,22.47,17.92-2.42,9.13-12.38,19.63-22.68,23.89s-24.61,1.63-37.17,1.63Q616,498.21,56.24,498C25.59,498-12.35,504.74,3.89,453.45Z"/></g></g></g></g></svg>