<svg xmlns="http://www.w3.org/2000/svg" viewBox="0 0 1036.17 694.08"><title>saut2</title><g id="Calque_2" data-name="Calque 2"><g id="Calque_1-2" data-name="Calque 1"><path d="M649.6,398.36c32.07-7.35,60-12.49,87.22-20.34,30.87-8.92,52.79-1.92,69,27.18C850.88,485.83,898,565.29,942,646.47c6.75,12.45,1.18,31.57,1.31,47.61-14.42-6.48-33.48-9.15-42.48-20.1-46.25-56.26-91.06-113.82-133.89-172.72-16.32-22.44-30.66-27.44-56.56-16.95-57,23.11-115.55,42.56-173.15,64.29-35.28,13.31-67.94,13.43-90.95-20.39-21.72-31.91-10.8-62.34,12.51-88.64,55.87-63.05,110.71-127.21,170.09-186.81,14.47-14.53,48-23.43,67.4-17.49,105.23,32.17,209.09,69,312.51,106.68,12,4.39,18.42,24.19,27.43,36.85-13.55,5.16-28.29,16.72-40.45,14.45-82.75-15.47-166-30-247-52.63C694.65,325.52,667.73,342.63,649.6,398.36Z"/><path d="M97.4,308.47c43.24-16.65,77.18-30.76,111.84-42.81,40.76-14.17,75.65,1.29,86.65,36.53,13,41.79-7.87,78.84-53.4,87-63.55,11.35-127.58,20.44-191.7,28-41.36,4.88-60.93-20.42-45.58-60.69C34.27,280.28,65.79,205,98.33,130.18c4.82-11.08,20.79-17.31,31.61-25.79,3.53,13.27,12.32,27.7,9.7,39.62C128.1,196.4,113.27,248.06,97.4,308.47Z"/><path d="M389.09,294.92l-58.45-74.76c97.22-72.42,195-145.68,293.6-217.71,6.82-5,20.34-.81,30.74-.89-3.62,13.17-3,30.88-11.51,38.83-87.17,81.38-175.82,161.18-264,241.42Z"/><path d="M244.58,74.47c38.83.78,72.15,38.09,70.6,79C313.65,193.76,282,225,243.26,224.56c-41-.49-71.58-34.49-69.83-77.7C175,106.91,207.65,73.73,244.58,74.47Z"/></g></g></svg>