<svg width="440" height="344" viewBox="0 0 440 344" fill="none" xmlns="http://www.w3.org/2000/svg">
<path d="M439.626 156.107C421.516 160.337 403.126 164.197 388.826 177.227C383.496 182.087 379.246 188.227 374.916 194.047C369.196 201.787 364.456 210.297 358.276 217.627C346.336 231.807 329.956 237.917 312.146 240.847C303.796 242.227 295.436 243.547 287.146 245.127C268.456 248.707 254.586 259.337 244.146 274.907C235.896 287.177 227.676 299.467 219.146 311.537C208.596 326.467 194.596 336.237 176.056 338.197C167.636 339.077 159.056 338.687 150.686 339.627C143.826 340.387 137.116 342.437 130.276 343.527C128.416 343.827 126.276 342.747 124.346 342.307C124.936 340.147 124.956 337.497 126.276 335.967C127.766 334.227 130.426 333.487 132.916 332.127C113.546 327.577 94.5764 323.127 75.5964 318.657C68.4964 316.997 61.2964 315.657 54.2964 313.657C37.5364 308.887 30.6264 300.327 28.8764 286.067C28.7364 284.917 28.3064 283.467 28.7964 282.637C29.7017 281.005 31.0232 279.642 32.6264 278.687C33.3464 278.317 35.4964 279.457 36.1264 280.457C37.3972 282.39 38.2739 284.555 38.7064 286.827C40.2464 296.527 46.5264 301.507 55.4064 303.737C69.7064 307.337 84.0764 310.667 98.4064 314.137C115.326 318.217 132.24 322.311 149.146 326.417C149.926 326.607 150.746 326.617 150.546 325.757L164.266 307.457L163.916 307.217C157.476 312.477 151.043 317.744 144.616 323.017L143.526 322.147C144.866 319.427 146.136 316.657 147.576 313.997C170.276 272.131 193.01 230.277 215.776 188.437C219.54 181.603 223.732 175.013 228.326 168.707C232.476 162.997 237.846 158.527 245.126 157.027C255.266 154.937 261.996 161.147 260.666 171.537C260.256 174.737 259.526 177.887 258.856 181.537C263.276 177.627 267.036 173.887 271.226 170.717C276.526 166.57 283.202 164.587 289.906 165.167C296.346 165.687 301.086 169.917 300.746 176.407C300.486 181.407 299.836 187.017 297.386 191.207C291.386 201.467 285.576 212.357 277.386 220.697C245.686 252.707 212.035 282.725 176.626 310.577C170.526 315.407 163.626 319.207 157.146 323.577C156.081 324.45 155.103 325.424 154.226 326.487C155.386 327.177 156.486 328.317 157.726 328.487C174.836 330.977 190.806 328.297 203.056 315.247C210.616 307.187 216.816 297.827 223.376 288.867C227.106 283.787 230.376 278.387 233.756 273.037C248.186 249.977 268.846 237.037 295.926 233.937C304.126 232.997 312.236 230.987 320.316 229.187C337.086 225.437 349.746 215.857 358.876 201.437C360.656 198.627 362.646 195.947 364.246 193.047C377.096 169.657 397.476 156.627 422.786 150.337L439.626 146.127V156.107Z" fill="black"/>
<path d="M234.207 123.677L250.787 125.997C250.397 129.197 250.077 131.917 249.657 135.397L0.986572 146.197V140.577C12.7866 139.827 24.5266 139.007 36.2666 138.357C66.4466 136.677 96.6366 135.087 126.807 133.357C128.6 133.272 130.352 132.791 131.937 131.947C142.147 126.087 152.177 119.887 162.517 114.267C164.687 113.077 167.957 113.367 170.627 113.717C178.187 114.717 185.717 115.927 193.227 117.287C194.827 117.636 196.488 117.593 198.069 117.163C199.649 116.733 201.103 115.928 202.307 114.817C215.067 104.177 227.717 93.3771 240.947 83.3571C248.267 77.8071 256.567 73.4871 264.637 68.9871C266.987 67.6871 270.047 67.3171 272.807 67.1871C282.247 66.7371 288.147 74.9571 283.917 83.4971C281.537 88.3071 277.167 92.1371 274.187 95.8071C273.747 95.9071 274.687 95.8071 275.547 95.4971C289.867 90.2771 304.067 84.6871 318.547 79.9371C324.907 77.8471 331.787 77.1971 338.487 76.4071C340.777 76.1371 343.437 77.0471 345.617 78.0771C354.187 82.0771 355.487 89.8771 348.717 96.4671C342.122 102.891 333.812 107.274 324.787 109.087C308.087 112.507 291.257 115.317 274.417 118.087C261.497 120.127 248.497 121.697 234.207 123.677ZM202.307 128.677L202.437 127.757C192.347 126.207 182.247 124.617 172.137 123.167C170.077 122.867 167.657 122.457 165.907 123.227C161.297 125.227 156.957 127.887 152.517 130.287L152.787 131.047L202.307 128.677Z" fill="black"/>
<path d="M312.137 64.2271C294.547 64.2971 279.867 50.0171 279.617 32.5971C279.377 15.7571 294.687 0.597112 311.947 0.667112C329.737 0.667112 344.847 15.4371 344.797 32.6671C344.757 49.6871 329.777 64.1571 312.137 64.2271Z" fill="black"/>
</svg>
