<svg xmlns="http://www.w3.org/2000/svg" viewBox="0 0 438.64 342.91"><defs><style>.cls-1{fill:#fff;}</style></defs><title>ski-nautique-classique-white</title><g id="Calque_2" data-name="Calque 2"><g id="Calque_1-2" data-name="Calque 1"><path class="cls-1" d="M438.64,155.44c-18.11,4.23-36.5,8.09-50.8,21.12-5.33,4.86-9.58,11-13.91,16.82-5.72,7.74-10.46,16.25-16.64,23.58-11.94,14.18-28.32,20.29-46.13,23.22-8.35,1.38-16.71,2.7-25,4.28-18.69,3.58-32.56,14.21-43,29.78-8.25,12.27-16.47,24.56-25,36.63-10.55,14.93-24.55,24.7-43.09,26.66-8.42.88-17,.49-25.37,1.43-6.86.76-13.57,2.81-20.41,3.9-1.86.3-4-.78-5.93-1.22.59-2.16.61-4.81,1.93-6.34,1.49-1.74,4.15-2.48,6.64-3.84L74.61,318c-7.1-1.66-14.3-3-21.3-5-16.76-4.77-23.67-13.33-25.42-27.59-.14-1.15-.57-2.6-.08-3.43a10.67,10.67,0,0,1,3.83-4c.72-.37,2.87.77,3.5,1.77a17.54,17.54,0,0,1,2.58,6.37c1.54,9.7,7.82,14.68,16.7,16.91,14.3,3.6,28.67,6.93,43,10.4q25.38,6.12,50.74,12.28c.78.19,1.6.2,1.4-.66l13.72-18.3-.35-.24q-9.66,7.89-19.3,15.8l-1.09-.87c1.34-2.72,2.61-5.49,4.05-8.15q34-62.81,68.2-125.56A186.27,186.27,0,0,1,227.34,168c4.15-5.71,9.52-10.18,16.8-11.68,10.14-2.09,16.87,4.12,15.54,14.51-.41,3.2-1.14,6.35-1.81,10,4.42-3.91,8.18-7.65,12.37-10.82a26.59,26.59,0,0,1,18.68-5.55c6.44.52,11.18,4.75,10.84,11.24-.26,5-.91,10.61-3.36,14.8-6,10.26-11.81,21.15-20,29.49a1091.28,1091.28,0,0,1-100.76,89.88c-6.1,4.83-13,8.63-19.48,13a21.13,21.13,0,0,0-2.92,2.91c1.16.69,2.26,1.83,3.5,2,17.11,2.49,33.08-.19,45.33-13.24,7.56-8.06,13.76-17.42,20.32-26.38,3.73-5.08,7-10.48,10.38-15.83,14.43-23.06,35.09-36,62.17-39.1,8.2-.94,16.31-3,24.39-4.75,16.77-3.75,29.43-13.33,38.56-27.75,1.78-2.81,3.77-5.49,5.37-8.39C376.11,169,396.49,156,421.8,149.67l16.84-4.21Z"/><path class="cls-1" d="M233.22,123l16.58,2.32c-.39,3.2-.71,5.92-1.13,9.4L0,145.53v-5.62c11.8-.75,23.54-1.57,35.28-2.22,30.18-1.68,60.37-3.27,90.54-5a12.11,12.11,0,0,0,5.13-1.41c10.21-5.86,20.24-12.06,30.58-17.68,2.17-1.19,5.44-.9,8.11-.55,7.56,1,15.09,2.21,22.6,3.57a10.16,10.16,0,0,0,9.08-2.47c12.76-10.64,25.41-21.44,38.64-31.46,7.32-5.55,15.62-9.87,23.69-14.37,2.35-1.3,5.41-1.67,8.17-1.8,9.44-.45,15.34,7.77,11.11,16.31-2.38,4.81-6.75,8.64-9.73,12.31-.44.1.5,0,1.36-.31,14.32-5.22,28.52-10.81,43-15.56,6.36-2.09,13.24-2.74,19.94-3.53,2.29-.27,4.95.64,7.13,1.67,8.57,4,9.87,11.8,3.1,18.39a47.75,47.75,0,0,1-23.93,12.62c-16.7,3.42-33.53,6.23-50.37,9C260.51,119.46,247.51,121,233.22,123Zm-31.9,5,.13-.92c-10.09-1.55-20.19-3.14-30.3-4.59-2.06-.3-4.48-.71-6.23.06-4.61,2-8.95,4.66-13.39,7.06l.27.76Z"/><path class="cls-1" d="M311.15,63.56c-17.59.07-32.27-14.21-32.52-31.63C278.39,15.09,293.7-.07,311,0c17.79,0,32.9,14.77,32.85,32C343.77,49,328.79,63.49,311.15,63.56Z"/></g></g></svg>