<svg xmlns="http://www.w3.org/2000/svg" viewBox="0 0 3555.42 4558.62"><title>Fichier 8</title><g id="Calque_2" data-name="Calque 2"><g id="Calque_1-2" data-name="Calque 1"><path d="M3116.63,4482.68c-21.26,26.49-48,78.92-63.8,75.8-43-8.48-97.26-30.43-118.83-64.77-140.27-223.33-309.14-437.88-400-681-145.41-389-498.57-417.92-804.41-534.44-37.49-14.28-110.89,37.38-155.2,73.67C1113.22,3729.68,656.16,4112.4,193,4487.56,145.21,4526.24,65.1,4525,0,4542.24c21.51-65.09,30.21-139,67.61-193.14,52.93-76.58,122.75-143.31,192.81-205.9,403.91-360.77,768.27-751.52,1057.41-1216C1513.08,2613.56,1595.6,2637,1916.44,2805c480.39,251.61,814.45,604,965.55,1132.11C2935,4122.47,3034.18,4294.59,3116.63,4482.68Z"/><path d="M1295.28,0c25.44,55.88,68.48,110.93,71.16,167.88,2.5,53-28.27,147.14-61.3,155.38-149,37.15-106.94,138.16-105,235.1,6.45,325.69,86.13,628.36,258.31,907.23,42.16,68.28,69.94,147.48,93,225,37.79,127-6.08,228.65-132.61,270.41-122.23,40.35-215.82-20.6-247-138.72-60.63-229.55-129.94-460.76-152.3-695.41-24.81-260.53-16.47-527.13,8.73-788.07,10.2-105.59,103.2-203.19,158.52-304.43Z"/><path d="M3489.92,2256.06c-459.52-470.57-974.3-232.7-1485.08-134.25-18.55-119.35-34.72-223.33-54-347.28,453.45,0,898-13.82,1341.18,5.36C3544.14,1790.8,3626.54,1976.77,3489.92,2256.06Z"/><path d="M1786.11,1675.58c-140.52-14.15-242-146.17-227.17-295.57,13.83-139.46,134.72-248.56,265.73-239.81,146.8,9.8,255.81,151.39,235.92,306.44C2042.8,1585.23,1918.51,1688.91,1786.11,1675.58Z"/></g></g></svg>