<svg xmlns="http://www.w3.org/2000/svg" viewBox="0 0 3975.91 3101.45"><defs><style>.cls-1{fill:#fff;}</style></defs><title>Fichier 5</title><g id="Calque_2" data-name="Calque 2"><g id="Calque_1-2" data-name="Calque 1"><path d="M1795.89,2418.07C1353.13,2293.33,945.86,2485,571.73,2801c-128.57,108.59-273.14,199.63-417.15,287.64-38.81,23.72-102.38,6.92-154.58,8.73,9.57-56.22-1.31-133.78,31.76-165.49Q897.89,2101.42,1775.51,1283c138.81-128.92,296.42-109.06,402.42,48.69,173.87,258.74,337.35,525.2,491.46,796.21,92.52,162.71,18.52,282-169,288.44C2286.1,2423.68,2071.33,2418.07,1795.89,2418.07Zm94.41-525-295,206.8,22.4,42.7,477.61-49,27.79-44.25Z"/><path d="M3285.49,1295.27c190.9-82.58,360.46-161.11,534.59-227.69,44.51-17,103.49,3.8,155.83,7.24-24.16,45.63-36.66,108.4-74.4,134-203.67,138.46-413.1,268.5-621.58,399.78-93.19,58.69-174.16,42.73-231.15-53.61C2926.67,1348.65,2800,1144.5,2688.34,932.51c-84.65-160.71-32.6-325.18,101.58-384.43,141.26-62.38,271.91,10.25,334.91,199C3182,918.25,3226.93,1093.47,3285.49,1295.27Z"/><path d="M2782.71,395.36l-347.54,246c-130.77-283.16-328.66-166.27-526.51-84.85C1789.35,605.6,1665.83,645.6,1541.72,681c-27.62,7.88-65.65-20.78-98.89-32.62,14.21-32.22,19.46-80.35,44-94.21C1729,417.53,1972.72,283.59,2220.3,157.27,2258,138,2324.4,147.69,2365.76,168,2503.2,235.42,2635.27,313.8,2782.71,395.36Z"/><path d="M3430.55,596.37c-153.09-5.21-271.55-137.24-269.92-300.85,1.6-162,126.7-295,277.84-295.52,159.31-.49,286.42,141.59,279.78,312.73C3712,474.81,3583.38,601.57,3430.55,596.37Z"/><path class="cls-1" d="M1890.3,1893.12l232.76,156.27-27.79,44.25-477.61,49-22.4-42.7Z"/></g></g></svg>