<svg width="241" height="146" viewBox="0 0 241 146" fill="none" xmlns="http://www.w3.org/2000/svg">
<path d="M117.361 145.69C118.131 128.4 118.861 111.83 119.641 94.2799C115.041 96.3899 111.241 98.3899 107.251 99.8799C103.064 101.52 98.7453 102.802 94.3412 103.71C89.9712 104.53 84.4412 104.35 83.4112 99.44C82.5612 95.44 83.4112 88.8299 86.1412 86.5599C98.2212 76.5599 112.471 71.5599 128.461 73.4299C130.679 73.5785 132.754 74.5738 134.258 76.2099C135.762 77.8461 136.58 79.9979 136.541 82.22C137.141 104.73 132.331 125.84 119.401 144.68C119.211 144.96 118.761 145.03 117.361 145.69Z" fill="black"/>
<path d="M0.221123 144.48C12.7111 139.31 25.2211 134.1 37.6911 128.97C44.9811 125.97 49.6111 120.57 52.5611 113.38C55.1211 107.11 57.7911 100.87 60.8511 94.83C62.299 91.8801 64.3419 89.2618 66.8511 87.14C71.7511 83.14 78.9611 86.14 80.2011 92.35C80.4035 93.5693 80.5006 94.8039 80.4911 96.04C80.9611 118.04 57.4011 142.97 35.6411 143.82C23.8011 144.28 11.9811 145.09 0.151123 145.74L0.221123 144.48Z" fill="black"/>
<path d="M207.701 107.9C200.701 95.9 187.861 98.39 177.161 95.59C174.801 94.98 172.351 94.74 169.931 94.32L171.231 92.64C169.231 90.4 167.561 87.51 165.091 86.03C153.091 78.85 140.791 72.17 128.781 65.03C126.051 63.4 122.941 61.03 121.971 58.22C120.921 55.22 120.891 50.09 122.741 48.34C124.591 46.59 129.651 46.81 132.741 47.85C135.831 48.89 138.381 51.85 140.951 54.25C153.361 65.71 165.261 77.79 178.251 88.56C185.251 94.4 194.531 95.56 203.731 93.11C210.471 91.34 217.111 89.04 223.951 87.9C229.851 86.9 235.491 88.38 238.901 94.16C241.991 99.4 241.271 107.03 237.121 112.16C232.971 117.29 227.541 117.35 221.951 115.35C217.951 113.91 214.101 111.93 210.181 110.2L207.701 107.9ZM202.761 96.18C208.441 104.88 215.191 108.94 222.761 111.84C226.871 113.41 231.611 113.93 233.931 109.84C235.864 106.129 236.667 101.933 236.241 97.77C235.771 93.01 231.161 90.9 226.951 91.41C219.201 92.37 211.561 94.37 202.761 96.18Z" fill="black"/>
<path d="M119.071 38.5599C116.704 38.5842 114.357 38.1346 112.166 37.2376C109.976 36.3406 107.987 35.0143 106.317 33.337C104.647 31.6596 103.33 29.665 102.443 27.4706C101.555 25.2763 101.116 22.9266 101.151 20.5599C101.196 15.9009 103.046 11.4409 106.311 8.11752C109.577 4.79418 114.004 2.86654 118.661 2.73992C128.451 2.63992 136.951 10.8299 137.121 20.5099C137.291 30.1899 129.021 38.5199 119.071 38.5599Z" fill="black"/>
<path d="M9.11108 0.969971C22.1111 4.56997 34.3211 7.70997 46.4011 11.43C57.9511 14.98 69.4011 18.91 80.7411 23.14C87.5811 25.69 91.0611 31.84 89.1011 36.25C86.9911 40.98 79.6211 42.91 73.2611 39.37C52.1611 27.37 31.2811 15.06 10.3311 2.85997C10.0311 2.67997 9.90108 2.20997 9.11108 0.969971Z" fill="black"/>
<path d="M207.701 107.9L210.171 110.15C210.271 111.37 210.461 112.6 210.471 113.82C210.471 117.72 208.401 120.75 204.661 120.02C202.171 119.53 200.211 116.36 198.011 114.39C199.914 112.155 201.944 110.031 204.091 108.03C204.811 107.42 206.471 107.91 207.701 107.9Z" fill="black"/>
</svg>
