<svg xmlns="http://www.w3.org/2000/svg" viewBox="0 0 240.66 144.77"><defs><style>.cls-1{fill:#fff;}</style></defs><title>squash-white</title><g id="Calque_2" data-name="Calque 2"><g id="Calque_1-2" data-name="Calque 1"><path class="cls-1" d="M117.21,144.72c.77-17.29,1.5-33.86,2.28-51.41-4.6,2.11-8.4,4.11-12.39,5.6a79.72,79.72,0,0,1-12.91,3.83c-4.37.82-9.9.64-10.93-4.27-.85-4,0-10.61,2.73-12.88,12.08-10,26.33-15,42.32-13.13a8.65,8.65,0,0,1,8.08,8.79c.6,22.51-4.21,43.62-17.14,62.46C119.06,144,118.61,144.06,117.21,144.72Z"/><path class="cls-1" d="M.07,143.51c12.49-5.17,25-10.38,37.47-15.51,7.29-3,11.92-8.4,14.87-15.59C55,106.14,57.64,99.9,60.7,93.86a23.81,23.81,0,0,1,6-7.69c4.9-4,12.11-1,13.35,5.21a21.69,21.69,0,0,1,.29,3.69c.47,22-23.09,46.93-44.85,47.78-11.84.46-23.66,1.27-35.49,1.92Z"/><path class="cls-1" d="M207.55,106.93c-7-12-19.84-9.51-30.54-12.31-2.36-.61-4.81-.85-7.23-1.27l1.3-1.68c-2-2.24-3.67-5.13-6.14-6.61-12-7.18-24.3-13.86-36.31-21-2.73-1.63-5.84-4-6.81-6.81-1-3-1.08-8.13.77-9.88s6.91-1.53,10-.49,5.64,4,8.21,6.4c12.41,11.46,24.31,23.54,37.3,34.31,7,5.84,16.28,7,25.48,4.55,6.74-1.77,13.38-4.07,20.22-5.21,5.9-1,11.54.48,14.95,6.26,3.09,5.24,2.37,12.87-1.78,18s-9.58,5.19-15.17,3.19c-4-1.44-7.85-3.42-11.77-5.15Zm-4.94-11.72c5.68,8.7,12.43,12.76,20,15.66,4.11,1.57,8.85,2.09,11.17-2a21.4,21.4,0,0,0,2.31-12.07c-.47-4.76-5.08-6.87-9.29-6.36C219.05,91.4,211.41,93.4,202.61,95.21Z"/><path class="cls-1" d="M118.92,37.59a17.69,17.69,0,0,1-12.75-5.22,17.78,17.78,0,0,1-3.88-5.87A17.57,17.57,0,0,1,101,19.59,18,18,0,0,1,118.51,1.77c9.79-.1,18.29,8.09,18.46,17.77S128.87,37.55,118.92,37.59Z"/><path class="cls-1" d="M9,0C22,3.6,34.17,6.74,46.25,10.46c11.55,3.55,23,7.48,34.34,11.71,6.84,2.55,10.32,8.7,8.36,13.11C86.84,40,79.47,41.94,73.11,38.4c-21.1-12-42-24.31-62.93-36.51C9.88,1.71,9.75,1.24,9,0Z"/><path class="cls-1" d="M207.55,106.93l2.47,2.25c.1,1.22.29,2.45.3,3.67,0,3.9-2.07,6.93-5.81,6.2-2.49-.49-4.45-3.66-6.65-5.63a76,76,0,0,1,6.08-6.36C204.66,106.45,206.32,106.94,207.55,106.93Z"/></g></g></svg>