<svg xmlns="http://www.w3.org/2000/svg" viewBox="0 0 3377.04 1765.43"><defs><style>.cls-1{fill:#fff;}</style></defs><title>sumo</title><g id="Calque_2" data-name="Calque 2"><g id="Calque_1-2" data-name="Calque 1"><g id="Calque_2-2" data-name="Calque 2"><g id="Calque_1-2-2" data-name="Calque 1-2"><path class="cls-1" d="M851.24,1740.73c26.57-152.59,31.21-313.45,85-455.74,74.62-197.33-.46-314.62-163.1-423.4q-307.26,391.22-616.35,784.66c-22.95,29.19-43,62.56-71.64,84.66-17.2,13.28-50.44,15.35-72.29,8.71-9.71-2.95-15.56-41.12-11.61-61,5.27-26.53,19.92-51.89,33.75-75.91C232.13,1260.52,427.16,917.08,628.46,577.38c95-160.27,187.25-142.64,304.8,3.24,231,286.58,279.74,579.2,101,907.61-46.89,86.19-71.55,184.47-106.42,277.2Z"/><path class="cls-1" d="M2595,918.87c-149.71,87.85-238.74,189.36-244.45,359.72-4.31,128.89-37.2,257.44-64.89,384.51-7.14,32.76-42.62,59.35-65.08,88.77-14.06-30.31-40.94-61-40.12-90.87,5.62-204.56,8-410,31.61-612.84,8.17-70.09,66.44-139.79,115.34-198.4,74.27-89,156.59-172.25,242.31-250.48,109.14-99.62,220.7-61.44,258.67,82.88,5.91,22.46,15.45,46.08,13.33,68.21-28.41,297.85,121.28,506.44,333.58,689.14,73.38,63.14,133.76,142.4,193.87,219.16,14.49,18.51,4.3,56.34,5.45,85.28-25.77-2.23-59.83,5.41-76.06-8.2-195.87-164.27-399.65-321.37-577.83-503.39C2649.86,1160,2637.25,1030.64,2595,918.87Z"/><path class="cls-1" d="M1408.49,863.72c94.76,16.95,189.18,41.16,284.74,47.14,35.9,2.24,85.82-29,109.88-60.1,136.2-175.91,266.55-356.34,398.75-535.34,27.58-37.34,46.89-91.79,83.64-108.65,49.93-22.9,113-17.2,170.39-23.78,4,58.69,35.11,143.91,7.75,171.85-211,215.43-412,452.73-661,613.82-127.17,82.27-348.29,36.86-523.83,18.87-78.7-8.07-114.09-549.18-42.17-603.21,28.57-21.47,84.84-35.22,112.65-21.15,34.31,17.37,72.18,66.75,73.35,103.43C1426.59,591,1415.09,716,1408.49,863.72Z"/><path class="cls-1" d="M2180.38,169.62c-10,92.61-58.3,155.68-159,152.08-100.15-3.58-149.68-69.38-147.75-166C1875.56,57,1934-2.48,2031.57.08,2130.45,2.67,2178.16,67.57,2180.38,169.62Z"/><path class="cls-1" d="M1612.35,662.08C1573,600,1509.4,541.38,1500.1,475.08c-12.89-91.9,52.36-159.9,152.26-157.49,98.62,2.37,164.19,72.3,149.43,162.67-10.76,65.87-79,122.35-121.54,183Z"/></g></g></g></g></svg>