<svg xmlns="http://www.w3.org/2000/svg" viewBox="0 0 3124.42 3487.09"><defs><style>.cls-1{fill:#fff;}</style></defs><title>taekwondo-white</title><g id="Calque_2" data-name="Calque 2"><g id="Calque_1-2" data-name="Calque 1"><g id="Calque_2-2" data-name="Calque 2"><g id="Calque_1-2-2" data-name="Calque 1-2"><path class="cls-1" d="M1122.47,3193.7c45-472.28,59.26-976.06,154-1464.21,46.79-241.14,197.31-502.42,379.3-668.87C2062.84,688.29,2517.79,368,2957.42,32c40.29-30.79,110.62-22.27,167-32-15.17,54.65-13.92,124.35-48.08,161.59-312.29,340.49-624,682-949.3,1009.92-313.9,316.52-499.25,692.42-590.36,1123.6q-106.54,504.18-230.93,1004.46c-16.94,67.78-75,125.28-114.15,187.52-23-67.81-47.52-135.18-68.21-203.7C1117.44,3263.71,1122.47,3240.72,1122.47,3193.7Z"/><path class="cls-1" d="M2173.84,96c-31.7,17.61-64.22,33.9-95,53C1742.5,358.19,1406.84,568.53,1070,776.87,978.86,833.28,892,823,832.36,730.16c-63.39-98.67-36.53-191.93,59.8-248s202.84-96.63,307.56-136.9q405-155.7,813.18-303.2c39.31-14.11,88-2,132.42-2Z"/><path class="cls-1" d="M1131.5,833.49l351,207.55-308.15,532.33-337.8-233.26C937.06,1167.48,1029.93,1008,1131.5,833.49Z"/><path class="cls-1" d="M701.78,1298.7c-102.85,138.17-192.47,265.41-289.36,386.84-101.8,127.6-171.56,118.45-225.61-29.78-64.2-176.09-121.72-354.69-178.45-533.37-11.3-35.61-6-76.5-8.36-115l54.31-21.92c76.51,137.53,153,275.07,239.7,430.91l163.52-322.11Z"/><path class="cls-1" d="M633.71,487.09c-65.4,54-80.33,69.45-98.06,80.42C382.57,662.28,384.44,748.36,539.53,838c26.13,15.1,44.15,44.22,65.91,66.86-30.66,13.63-60.28,35.52-92.16,39.57C289.87,972.8,96.42,778.67,160.71,563.73,184.89,482.9,298.15,403.48,387,376.27,444.22,358.74,530.91,437.39,633.71,487.09Z"/></g></g></g></g></svg>