<svg xmlns="http://www.w3.org/2000/svg" viewBox="0 0 809.7 774.27"><defs><style>.cls-1{fill:#fff;}</style></defs><title>tai-chi-chuan-white</title><g id="Calque_2" data-name="Calque 2"><g id="Calque_1-2" data-name="Calque 1"><path class="cls-1" d="M278.13,770c1.36-3,2.5-6.19,4.12-9.09,6.92-12.4,14-24.67,21-37,33.4-59.05,67-118,100.07-177.24,12-21.6,24.1-43.17,38.68-63.15,12.27-16.82,24.83-33.49,38.06-49.57,11.95-14.53,27.51-23.87,46.25-27,5.45-.92,11.12-.5,16.7-.59a3.44,3.44,0,0,1,2.06,1c6.2,5.89,9.17,13.31,10.28,21.65,2,14.84-2.87,28.28-8.67,41.48-8,18.26-19.58,34.08-32.9,48.85-13.77,15.26-27,31-40.59,46.43-13.94,15.81-27.88,31.61-42.1,47.18-18.62,20.43-37.45,40.66-56.25,60.93-19.51,21-38.9,42.15-58.7,62.88-9.46,9.89-19.72,19-29.74,28.37-2.26,2.11-5.06,3.64-7.61,5.43Z"/><path class="cls-1" d="M197,770.71a32.65,32.65,0,0,1-4.33-12.79q-2-14.85-3.88-29.7c-1.12-8.75-2.14-17.5-3.24-26.25s-2.26-17.62-3.37-26.44c-1-7.65-1.86-15.31-2.81-23s-1.94-15.3-2.91-23-1.89-15-2.83-22.51-1.88-14.72-2.84-22.08-1.92-14.55-2.91-21.83q-1.65-12.23-3.33-24.44c-1.23-8.85-2.56-17.7-3.73-26.6-.94-7.08-1.87-14.13-2.47-21.25-.58-6.74-1-13.52-1-20.29-.14-17.46-.22-34.94,0-52.4.19-13.49,1.59-26.89,6.64-39.55,5.83-14.65,16.19-25.62,29.09-34.34a3.22,3.22,0,0,1,2.27-.36c11.84,2.72,21,8.91,26.85,19.92a100.23,100.23,0,0,1,11.55,38.95c.74,8.5,1.24,17,1.27,25.56,0,6.38-.86,12.77-1.39,19.14-.5,6-1.1,12-1.6,18q-1.08,13-2.08,26c-.52,6.9-.93,13.8-1.48,20.7q-1,12.09-2.11,24.18c-.7,7.38-1.51,14.76-2.32,22.13s-1.68,14.74-2.49,22.13-1.57,14.76-2.37,22.13-1.66,14.74-2.48,22.13-1.59,14.61-2.38,21.91L211.85,669q-1.23,11.19-2.47,22.36c-.82,7.44-1.41,14.93-2.53,22.33-2.09,13.93-4.42,27.82-6.78,41.7C199.24,760.3,198.11,765.16,197,770.71Z"/><path class="cls-1" d="M507.54,42.28c-2.46,4.39-4.64,9-7.4,13.15q-45.47,69-91,138c-15,22.81-29.43,46-44.71,68.6-7.47,11.09-16,21.5-24.52,31.83-9.32,11.32-19,22.35-28.85,33.2-11.51,12.69-25,22.55-41.85,27a54.1,54.1,0,0,1-19.66,1.8,15.06,15.06,0,0,0-2.4.21c-5.46.34-9.23-2.41-12.09-6.71-4.05-6.09-5.53-12.87-5.32-20.11.32-11.47,4.55-21.77,9.6-31.76,7-13.85,17.2-25.27,28.13-36.09,20.53-20.3,40.79-40.92,61.7-60.86,26.36-25.11,53.22-49.71,79.94-74.45,18.71-17.32,37.33-34.77,56.41-51.68,12.16-10.78,24.17-21.84,37.95-30.65,1.11-.71,2.26-1.37,3.4-2Z"/><path class="cls-1" d="M748.79,774.27c-2.28-2.83-4.92-5.44-6.77-8.52Q702.78,700.43,663.7,635c-15.74-26.22-32-52.12-47.42-78.55-7.59-13.06-13.95-26.85-20.36-40.55-6.9-14.75-13.46-29.66-18.2-45.29a87,87,0,0,1-4.21-27.54,53.24,53.24,0,0,1,5.44-22.5c1.33-2.63,2.62-5.26,3.86-7.92,2.12-4.53,5.75-6.47,10.65-6.93,11.41-1.08,20.9,3.21,29.35,10.26,13.35,11.14,22.4,25.41,29.39,41.12,6.57,14.78,10.93,30.33,16.11,45.59,6.17,18.18,13,36.17,18.73,54.48,11.66,37,22.89,74.22,34.13,111.4,6.87,22.72,13.66,45.47,20,68.34,3.3,11.85,5.56,24,8.29,36a4.31,4.31,0,0,1,0,.88Z"/><path class="cls-1" d="M218.42,282.3A39.82,39.82,0,0,1,208,296.25c-15.65,14-31.84,27.36-49.26,39.15-22.7,15.38-46.81,27.82-73.37,35.12a53,53,0,0,1-26,1c-3.2-.72-6.2-3.26-8.8-5.52-11.6-10-19.88-22.6-26.66-36.19a231.4,231.4,0,0,1-20.5-60.2A172.64,172.64,0,0,1,.33,225.5C1.41,209.34,6.81,194.8,19,183.41c4.05-3.8,8.55-6.71,14.32-7.06,5.27-.31,10.12,1.18,14.95,3.1a14.79,14.79,0,0,1,9.27,9.67,163.06,163.06,0,0,1,7.56,28.43c.81,5.22,1,10.54,1.46,15.81q1,12.44,2.08,24.86c.49,6,.93,12,1.48,18,.62,6.81,1.27,13.62,2,20.41C73,304.1,74,311.53,74.94,319a51.16,51.16,0,0,1,.8,5.43c0,1.92,1,2.22,2.52,2.17a29.41,29.41,0,0,0,13.21-3.05c20.38-10.68,42.42-16.44,64.43-22.47,12-3.29,23.6-8,35.48-11.75,8.24-2.58,16.65-4.6,25-6.85a12.64,12.64,0,0,1,2-.14Z"/><path class="cls-1" d="M682.34,453.32a95.47,95.47,0,0,1,6-7.78c8.93-9.4,18.12-18.56,27-28a268.73,268.73,0,0,0,38.35-51.9c6-10.56,6.33-21.14,2.65-32.23-5.51-16.63-14.16-31.62-24.62-45.56-6.13-8.17-12.91-15.86-19.31-23.85-3.91-4.89-7.08-10.47-7.4-16.69-.53-9.43,3.33-17.56,9.85-24.34a18.13,18.13,0,0,1,11-5.59,38.6,38.6,0,0,1,18,2.06c14.6,5.22,25.38,15,33.56,28,8.77,13.94,15,29,20.28,44.57a225.84,225.84,0,0,1,10,38.91,197.55,197.55,0,0,1,1.95,21.72c.38,9.7-2.86,18.59-7.89,26.67-14.94,24.08-34.48,43.46-60,56.15-8.07,4-16.92,6.59-25.57,9.32-9.9,3.13-20,5.71-30,8.49a28.34,28.34,0,0,1-3.44.56C682.66,453.65,682.5,453.49,682.34,453.32Z"/><path class="cls-1" d="M1.3,91A63,63,0,1,1,63,154.12C29.23,153.57,1.14,125.16,1.3,91Z"/><path class="cls-1" d="M598.87,124.31a62.92,62.92,0,1,1,125.83.85c-.24,34.45-28.89,62.56-63.22,62.14C626.55,186.88,598.61,158.78,598.87,124.31Z"/><path class="cls-1" d="M624.58,0a40.12,40.12,0,0,1-10.26,10.5C604,18.24,593.38,25.77,583.23,33.81,571.51,43.1,561,53.65,553.71,66.91c-6.31,11.53-12.05,23.36-18.14,35-3.57,6.86-3,13.72-.36,20.65,2.9,7.52,8.09,13.59,12.78,20,9.51,13,21.17,23.94,32.8,34.91,7.33,6.92,8.3,15,5.22,24a34.12,34.12,0,0,1-9.43,14.2c-4.55,4.16-10.18,4.76-16,4.93-14.61.41-26.06-6.35-35.46-16.54-17.81-19.29-32.08-40.93-40.72-65.95a78,78,0,0,1-4.18-21.54c-.44-8.72,2.31-16.82,5.53-24.72,6.45-15.88,17-28.95,28.63-41.27,20.44-21.6,45.66-34.8,74-42.46,11.23-3,22.67-5.35,34-8A18.41,18.41,0,0,1,624.58,0Z"/><path class="cls-1" d="M376.8,85.71c-2.71,6.85-5.17,13.81-8.18,20.53-6.71,15-12.68,30.37-21.15,44.55-12.07,20.26-27,37.86-47,50.78-13.5,8.74-28.41,13.85-44.07,17-15,3-30.18,3.86-45.45,3.51-6.26-.14-12.55.09-18.77-.48-18.41-1.7-35.24-7.53-49.45-19.85-5.31-4.59-10.71-9.06-14.43-15.11-3.16-5.13-5.08-10.59-3.88-16.74.8-4.12,3.5-6.86,6.7-9.22,10.07-7.47,20.86-7.82,32.12-3.22a276.17,276.17,0,0,0,33.58,11.81c17.51,4.66,35.28,7.37,53.39,6.34,29-1.64,54.76-11.27,75.22-32.54,11.48-12,22.54-24.32,33.5-36.74,4.26-4.84,7.61-10.47,11.57-15.59a58.71,58.71,0,0,1,5.53-5.51Z"/></g></g></svg>