<svg xmlns="http://www.w3.org/2000/svg" viewBox="0 0 4900.35 2789.61"><title>Fichier 42</title><g id="Calque_2" data-name="Calque 2"><g id="Calque_1-2" data-name="Calque 1"><path d="M1068,1278.34c222,0,444.32-19.44,661.94,4.46,346.37,38,662.85-20.87,960.61-200.37,73.26-44.17,157.67-69.85,244.28-107.18,58.4,157.59,112.88,304.62,167.57,451.63-670.55,383.8-1351,207.89-2035.34,39.62C879.3,1675.1,719.2,1733.43,535.83,1648.16c-150.37-69.91-223.27-194.45-201.19-358.47,21.88-162.59,117.1-267.22,286.27-291.19C825.35,969.54,958.83,1054.33,1068,1278.34Z"/><path d="M4379.88,1332.11c-232.06-46.21-448.08-85-662-133-208.74-46.83-307.06-209.39-252.34-401.27,50.35-176.51,217.76-251.62,420-175.89q422.68,158.26,839.38,332.34c187.51,78.87,223,189.46,114.64,366.16-199.31,325-403.65,647.11-616.42,963.35-35.46,52.71-124.19,69.58-188.3,103-11.68-75.77-54.5-164.22-29.69-225.14C4117.92,1884.66,4249.73,1615.42,4379.88,1332.11Z"/><path d="M4515.88,2666.64c-44.2,39.29-84.67,84.62-134.2,115.31-24.32,15.07-65.44,3.24-99,3.24q-2041.38,0-4082.75-1.45c-94.76-.14-240.21,44.57-189.54-162.81H4479.71Z"/><path d="M3377.07,399.4c-1.81,217.85-167.63,388.74-375.4,386.89-206.55-1.84-372.87-179-370.08-394.26,2.77-213,178.33-395.48,377.19-392C3209.89,3.59,3378.83,186.77,3377.07,399.4Z"/><path d="M421.25,388.57c64,73.91,131,118.1,127.25,155.08-5.2,51.14-63.71,96.87-99.39,144.92-41.64-35.08-113.34-67.06-117.36-106C326.66,533.2,376.59,478.17,421.25,388.57Z"/></g></g></svg>