<svg xmlns="http://www.w3.org/2000/svg" viewBox="0 0 3341.34 3806.06"><defs><style>.cls-1{fill:#fff;}</style></defs><title>tennis-white</title><g id="Calque_2" data-name="Calque 2"><g id="Calque_1-2" data-name="Calque 1"><g id="Calque_2-2" data-name="Calque 2"><g id="Calque_1-2-2" data-name="Calque 1-2"><g id="Calque_2-2-2" data-name="Calque 2-2"><g id="Calque_1-2-2-2" data-name="Calque 1-2-2"><path class="cls-1" d="M2066.83,2543.77c-15.67,35.17-34.06,59.78-37.34,86.26C1953.84,3241,1426.74,3460,1023.36,3784.81c-24.72,19.9-81.46.05-123.3-1.3,12-51.27,7.69-117.76,38.83-151.28,182.16-196.09,376.4-381,557.81-577.71,50.52-54.78,88.46-133.67,102.56-207.18,41.6-216.86,62.45-437.66,102.49-654.89,45.82-248.64,205.63-319.93,417.73-177.28,231.47,155.67,450.77,329.48,674.26,496.88,27.42,20.55,57.86,46.28,70.12,76.43,146.69,360.83,292.5,722.08,430.67,1086.21,12.6,33.23-29.17,87.09-45.69,131.37-42.56-22.23-103.93-33.4-124.59-68.51C2994.46,3517,2861.14,3296.9,2754,3065.11c-86.13-186.26-209.12-311.62-399.4-382.33C2257.64,2646.75,2167.3,2593,2066.83,2543.77Z"/><path class="cls-1" d="M3198.16,1444.56l-154-404.14c-105.11,83.5-196.53,144.31-273.43,219.9-123.56,121.47-231.33,139.84-346.09-10-44.81-58.51-107-103.73-162.52-176,253.09,120.58,455.82,44.73,622.23-120.26-96.56-133.79-209.76-252.77-277.88-393.55C2493,326.13,2566.25,85.4,2743.92,16.51c174.62-67.73,378.81,78.65,447.23,334.88,24.87,93.15,45.67,202.19,21.13,290.94-72.76,263.15-23.19,502.4,80.49,744.54,83,193.82,73.35,199.64-137.62,251.68-22.58,5.57-46.47,8.16-67.52,17.28-447.36,193.82-820.87,31.43-1173.35-240-118.1-91-151.46-216.81-68.87-313.59,96.95-113.61,201-94,302.38-1.6,30.09,27.41,67.61,49.58,89.88,82.24C2474.68,1530.33,2805.87,1556.91,3198.16,1444.56Zm-7.07-887C3114.5,409.73,3067.55,262,2974.48,153.87,2855.68,16,2649.62,87.33,2649,268.56c-.47,141.5,52,295.84,123.49,420,41.38,71.93,179.84,145.17,250.68,126.58,68-17.8,105-153.42,167.92-257.6Z"/><path class="cls-1" d="M2378.48,652.75c1.3,137.11-105.19,251.86-235.39,253.62-134,1.81-237.61-105.07-239.17-246.61-1.6-144.31,95.56-249.09,232.55-250.77S2377.14,511.6,2378.48,652.75Z"/><path class="cls-1" d="M156,2220c27.3,53.25,79.31,108.87,74.5,159.05-4.24,44.29-71.87,82.51-111.5,123.41C76.71,2457.37,6.47,2415.74.35,2366.18c-5.61-45.32,58.12-99.21,91.3-149.33Z"/></g></g></g></g></g></g></svg>