<svg xmlns="http://www.w3.org/2000/svg" viewBox="0 0 4900.39 2789.62"><defs><style>.cls-1{fill:#fff;}</style></defs><title>tennis-de-table-white</title><g id="Calque_2" data-name="Calque 2"><g id="Calque_1-2" data-name="Calque 1"><g id="Calque_2-2" data-name="Calque 2"><g id="Calque_1-2-2" data-name="Calque 1-2"><path class="cls-1" d="M1068,1278.36c222,0,444.32-19.44,661.94,4.46,346.37,38,662.85-20.87,960.61-200.37,73.26-44.17,157.67-69.85,244.28-107.18,58.4,157.59,112.88,304.62,167.57,451.63-670.55,383.8-1351,207.89-2035.34,39.62-187.76,208.6-347.86,266.93-531.23,181.66-150.37-69.91-223.27-194.45-201.19-358.47,21.88-162.59,117.1-267.22,286.27-291.19C825.39,969.56,958.87,1054.35,1068,1278.36Z"/><path class="cls-1" d="M4379.92,1332.13c-232.06-46.21-448.08-85-662-133-208.74-46.83-307.06-209.39-252.34-401.27,50.35-176.51,217.76-251.62,420-175.89Q4308.26,780.24,4725,954.31c187.51,78.87,223,189.46,114.64,366.16-199.31,325-403.65,647.11-616.42,963.35-35.46,52.71-124.19,69.58-188.3,103-11.68-75.77-54.5-164.22-29.69-225.14C4118,1884.68,4249.77,1615.44,4379.92,1332.13Z"/><path class="cls-1" d="M4515.92,2666.66c-44.2,39.29-84.67,84.62-134.2,115.31-24.32,15.07-65.44,3.24-99,3.24q-2041.38,0-4082.75-1.45c-94.76-.14-240.21,44.57-189.54-162.81H4479.75Z"/><path class="cls-1" d="M3377.11,399.42c-1.81,217.85-167.63,388.74-375.4,386.89-206.55-1.84-372.87-179-370.08-394.26,2.77-213,178.33-395.48,377.19-392C3209.93,3.61,3378.87,186.79,3377.11,399.42Z"/><path class="cls-1" d="M421.29,388.59c64,73.91,131,118.1,127.25,155.08-5.2,51.14-63.71,96.87-99.39,144.92-41.64-35.08-113.34-67.06-117.36-106C326.7,533.22,376.63,478.19,421.29,388.59Z"/></g></g></g></g></svg>