<svg xmlns="http://www.w3.org/2000/svg" viewBox="0 0 3088.32 3269"><defs><style>.cls-1{fill:#fff;}</style></defs><title>tir-a-l-arc-white</title><g id="Calque_2" data-name="Calque 2"><g id="Calque_1-2" data-name="Calque 1"><g id="Calque_2-2" data-name="Calque 2"><g id="Calque_1-2-2" data-name="Calque 1-2"><path class="cls-1" d="M2773,1798.45c8.19-37.47,13.42-53.4,14.79-69.66,1.76-20.87.43-42,.43-73.38-41.64-2.65-78.29-7-114.95-7-514.82-.48-1029.66-1.89-1544.46,2.28-44.81.37-87.89,42.71-134.26,58-87.25,28.81-176.31,52.12-269.47,79.12-13.74,68.22-25,143.22-44.6,216C662.36,2071,621.3,2105,547,2071.18c-158.53-72.18-320.51-137.53-474.9-217.6-38.26-19.85-77.28-88.76-71.58-128.8,5.83-41,60.49-94.29,103.81-106.45,75.94-21.3,159.53-19.9,239.92-20q1148.78-1.8,2297.56-.71h164c-23.27-164.78-32.68-316.82-68.61-462.31-37.44-151.61-87.42-303.3-156-443.14-66.65-135.92-163.91-256.81-247.61-384.38C2255.06,188,2088.82,149,2047.44,0c615.42,345.48,789.76,931.65,844.17,1588.42,34.44,3.13,67.11,6.13,99.79,9.06,31.51,2.83,63,5.59,96.92,36-28.59,4.82-57,11.8-85.79,13.89-33.46,2.42-67.22.56-105.05.56-23.22,69.44-40.81,123.9,44,162.09,13.22,6,5,110.06-6.81,112.94-84.28,20.44-82.92,86.86-95.74,147.83-81.32,386.74-232.66,738.38-526,1013.8C2238,3154.84,2147.12,3208,2063.58,3269l-41.68-40.66c27.26-33,49-73.73,82.62-97.69,389.62-277.28,569.72-674.13,650-1128.78,1.2-6.76-5.76-15-18.23-44.7L1542.08,2152.45c-8.27-114.87-16.34-227.06-25.48-354Z"/><path class="cls-1" d="M889.15,1206.24c5.27-144.09,123.69-262.16,260.94-260.16,141.59,2.07,255.27,130.81,249.35,282.41-5.73,146.8-121.23,262.29-259.51,259.49C998.14,1485.11,883.65,1356.49,889.15,1206.24Z"/></g></g></g></g></svg>