<svg xmlns="http://www.w3.org/2000/svg" viewBox="0 0 3947.01 1948.22"><defs><style>.cls-1{fill:#fff;}</style></defs><title>Fichier 37</title><g id="Calque_2" data-name="Calque 2"><g id="Calque_1-2" data-name="Calque 1"><path d="M1506.13,1565.72c138.37-155.18,169.13-337.81,409.72-373.44,128-19,227.8-228.54,356.55-369.89-249.38-49.28-415.84,43.36-541.21,218-182.44,254.19-355.19,515.3-534.95,771.43-110.33,157.22-190.36,175.34-346.18,70.62-239.72-161.08-480.14-322-710.16-496.34-190.54-144.4-184.64-410.3,6.66-514.85,61.87-33.8,171.83-58.44,218.44-26.64,144,98.25,289.87,61.93,434.89,42.55,390.35-52.15,777.1-82.71,1157-238.49,295.44-121.14,648.68-103.21,976.82-142.15q448.17-53.18,897.8-93.38c36.86-3.34,76.93,28.65,115.51,44.27-34.7,30.17-66.68,82.4-104.54,87.08-370.29,45.8-741.14,88.57-1112.81,120.78-109.75,9.51-171.73,49.78-220.56,146.59-105.65,209.42-231.69,408.85-331.87,620.65-71.95,152.1-176.38,199.34-332.8,173.68C1744,1589.75,1642.13,1581.65,1506.13,1565.72Zm-201.34-392-27.39-38.28-463.82,129L964.41,1427.5Z"/><path d="M643.79,387.4C640.09,178.29,793.26,6.06,988.21.14c191.59-5.81,363,164.71,369,367,6,203.41-153,378.14-348.21,382.53C807.37,754.24,647.47,595.63,643.79,387.4Z"/><path class="cls-1" d="M1304.79,1173.68,964.41,1427.5,813.58,1264.38l463.82-129Z"/></g></g></svg>