<svg xmlns="http://www.w3.org/2000/svg" viewBox="0 0 3670.83 3931.33"><title>Fichier 45</title><g id="Calque_2" data-name="Calque 2"><g id="Calque_1-2" data-name="Calque 1"><path d="M1707.49,1876.44c-237.44,152.28-393.35,1.94-554.15-130.75-96-79.22-199.8-149.82-290.22-234.79-116.08-109.08-115.93-268.72-11-362.32,101.1-90.23,228.16-69.16,337.92,60.7,64.24,76,115.58,164.2,186.06,233.32,63,61.79,151.22,155.23,216.18,146.31,158.69-21.78,358.3-30.9,378.24-277.82l-442.76,88.69c-29.59-110.09-53.08-197.52-80.12-298.11,184.14,0,356.75,12.95,525.71-6.23,69.8-7.93,158.07-70.22,192.79-132.82C2323,679.8,2460.82,386.49,2613.14,101,2636.87,56.57,2700,33.15,2744.92,0,2759,53.86,2798,115.91,2783.4,160.35,2531.08,928.43,2275.74,1695.57,2012,2459.8c-61.55,178.35-192.9,235.65-333.06,182.14-144-55-204.12-201.19-141.13-371.94C1587.18,2136.16,1650.42,2007.43,1707.49,1876.44Z"/><path d="M11.55,3766.31H503.11q1476,.09,2952,.3c49.81,0,101.49-6.44,148.71,5,27.53,6.66,70.42,47.76,66.73,64.72-7.18,33-36.76,70.94-67.37,86.34-30.18,15.19-73.1,5.88-110.43,5.87q-1662.87-.45-3325.72-1.3C76,3927.15-36.68,3951.63,11.55,3766.31Z"/><path d="M1450.74,663c3.75,158.27-117.09,296.08-266.74,304.21-161.41,8.77-292.46-120.69-295.52-292-2.89-161.1,114.48-296.37,264.66-305C1310.6,361.17,1446.77,495.12,1450.74,663Z"/></g></g></svg>