<svg xmlns="http://www.w3.org/2000/svg" viewBox="0 0 1377.32 1174.27"><defs><style>.cls-1{fill:#fff;}</style></defs><title>pentatlhon-white</title><g id="Calque_2" data-name="Calque 2"><g id="Calque_1-2" data-name="Calque 1"><g id="Calque_2-2" data-name="Calque 2"><g id="Calque_1-2-2" data-name="Calque 1-2"><path class="cls-1" d="M1127.25,1059l108.37-185c-81.87-43.78-81.89-43.79-131.4,25.07-57,79.23-113.69,158.62-171,237.59-9.73,13.41-21.83,25.1-32.83,37.59l-14.09-7.47c4.81-17,6.93-35.47,14.87-50.9C961.53,998.65,1023.62,882.28,1083.88,765c22.66-44.1,50.28-57.69,95.22-28.91,41,26.27,86.8,45.67,125.46,74.77,14.23,10.7,26.34,49.65,18.53,60.09-50.74,67.78-107.14,131.35-162.16,195.88-2.65,3.11-9.81,2.37-14.86,3.43Z"/><path class="cls-1" d="M597.74,831.84c-5.74-37-6.32-70.22-17.07-99.77-7.32-20.11-25.9-40-44.68-51.28C491.87,654.3,424.38,527,437.71,479.24c4-14.19,22.47-33.66,34.6-33.87,15.2-.27,33.93,14.12,45,27.32,8,9.56,8.87,27.66,8.07,41.67C519,626.2,583.5,678.5,680.85,708c13.49,4.09,19.86,31.66,29.52,48.36l-53.59,31-8.5-16.89,36.5-21.07q.27-7.41.56-14.82l-83.4-12.89c9.76,38.13,16.77,65.49,23.46,91.64,134.06-8.78,205.65,33.59,229.25,130.8,21.93,90.34-21.55,181.05-103.25,215.42-75.65,31.82-162.62,3.16-208.28-68.65C490.29,1007.87,511.45,908.94,597.74,831.84Zm18.33,27.63c-80.65,60.45-97.52,149.88-46.29,222.09,45.19,63.7,127.28,81.14,191.87,40.77C834,1077.1,855.9,981.72,810.76,908.12c-38-62-108.35-86.24-165-55.21l56,141.75-21,8.36Z"/><path class="cls-1" d="M427.36,1087.45c-7.75-14.53-17.5-28.35-22.93-43.7-45.91-129.67-93-259-134.6-390-7.58-23.87-1-67.25,15.43-79.42,15.8-11.69,57.95-2.36,79.61,11.58,42.28,27.19,77.55,65,117.23,96.58,30.07,23.89,38.55,51.58,9.34,77.42-83.71,74-86.62,161.76-53.07,259.23,6.77,19.64,4.24,42.47,6,63.83Z"/><path class="cls-1" d="M334.07,202.7,667,111.59c-5.42-11.64-12.58-27-21-45L470.31,125.71l-9.25-20c12.16-10.55,23-23.41,36.72-31.22,34.52-19.64,72.29-34.07,105.19-56,51.2-34,86.22-19.17,116.22,28.29,13.5,21.35,29.07,41.46,44.59,61.44,20.73,26.71,33.43,58.92,5.83,82.42-23.39,19.92-57.44,34.22-88.12,37.2-59.73,5.81-120.41,2-180.7,2.07q-81.57.12-163.15,0Z"/><path class="cls-1" d="M345.34,988.88c.36,104.09-75.14,184.2-173,183.51C78,1171.72.52,1090.81,0,992.37-.53,890.89,77.94,808.13,174.33,808.51,269.3,808.88,345,888.7,345.34,988.88Zm-170.8,155.3c77.84-.27,145.24-70.39,146.13-152,.91-83.74-68.06-156.19-148.09-155.56-81,.63-146.83,72-145.36,157.55C28.63,1076.79,95.06,1144.44,174.54,1144.18Z"/><path class="cls-1" d="M1021.72,764.52C981,637.26,1037.5,517.3,1146.3,482.83c14.2-4.5,34.13,9.06,51.4,14.25-5.83,18.61-11.58,37.23-17.64,55.76-.39,1.18-3,2.14-4.74,2.31-103.13,10.37-124.93,83.91-132.89,169.3C1041.46,734.88,1032.36,744.54,1021.72,764.52Z"/><path class="cls-1" d="M922.58,150.17c-1.6,57-23.33,85.6-59.26,78.62-22.41-4.35-51.61-35-55.72-57.8-6-33.25,18.46-66.66,57.45-60.08C888.88,114.94,909.09,140.39,922.58,150.17Z"/><path class="cls-1" d="M1245.14,564c8.21,22.37,12.74,34.69,18.75,51.06l96.29-81.3,17.14,17.48c-38.13,48.51-75.72,97.48-115.15,144.91-4.49,5.41-24.49,6.6-28.27,2.12-8.22-9.74-16.14-25.28-14.31-36.89C1224.24,632,1234.34,603.46,1245.14,564Z"/><path class="cls-1" d="M541.39,422.42c19.9-15.92,40.58-45.21,59.5-44.11,20,1.16,49,28.26,54.9,49.41,9.29,33-14,62.73-50.19,58.5-22.38-2.62-42.34-25.88-63.39-39.88Z"/><path class="cls-1" d="M1309.25,433c-20.09,15.14-38.38,38.63-60.7,43.47-33.36,7.23-58.54-19.35-52.78-50.45,4-21.58,29.4-50.81,49.27-54.42,18.26-3.32,41.91,23.06,63.18,36.36Q1308.74,420.55,1309.25,433Z"/><path class="cls-1" d="M935,221.12c3.81-12.46,9.33-30.55,17-55.61l155.32,36.7q-.61,9.45-1.22,18.91Z"/></g></g></g></g></svg>