<svg xmlns="http://www.w3.org/2000/svg" viewBox="0 0 651.32 782.83"><defs><style>.cls-1{fill:#fff;}</style></defs><title>twirling-baton-white</title><g id="Calque_2" data-name="Calque 2"><g id="Calque_1-2" data-name="Calque 1"><g id="Calque_2-2" data-name="Calque 2"><g id="Calque_1-2-2" data-name="Calque 1-2"><path class="cls-1" d="M202.32,649.49c43.13,30.48,82.75,58.4,122.28,86.44,8.29,5.88,17.87,11,23.86,18.74,4.63,6,4.57,15.62,6.59,23.62-7.93,1.41-17.82,6.6-23.48,3.65-67.13-35-134.15-70.2-200-107.52-20.53-11.65-20.9-33.29-4.36-49.07Q194.71,561,265.45,500.16c9-7.68,25.41-10.53,37.94-9.58,106.08,8.08,209.48-6.58,312.09-32,10.66-2.64,23.83,4.89,35.84,7.7-8.68,8.6-15.92,21.85-26.27,25.06-85,26.37-169.58,56.47-256.56,74.12C305.24,578.28,257.69,612.53,202.32,649.49Z"/><path class="cls-1" d="M350.68,58.39c-24.16,47-41.77,98.3-55,149-7.66,29.39,4.95,64.06,8.78,99.57L253,311.34c-1.89-54.89-6.42-106.34,26.8-154.64,31.29-45.51,57.18-94.93,83-143.91C375-10.21,383.92-6.22,350.68,58.39Z"/><path class="cls-1" d="M0,354.8c17.77-3.36,25.87-6,34-6.27,77.68-2.32,155.38-4.18,233.06-6.3,29.66-.81,50.49,15.22,42.55,37.09-4.49,12.39-23.24,29.48-33.71,28.28-85.14-9.77-169.9-23.25-254.7-36.13C16.77,370.8,13.07,365.31,0,354.8Z"/><path class="cls-1" d="M375.11,373.73c-25.09.13-47.27-22.11-45.39-48.13s14.79-44.7,43.42-46.39c25.92-1.52,46.69,19.28,47.35,46.1C421.13,351.46,400.38,373.6,375.11,373.73Z"/></g></g></g></g></svg>