<svg xmlns="http://www.w3.org/2000/svg" viewBox="0 0 5375.03 2364.99"><title>Fichier 10</title><g id="Calque_2" data-name="Calque 2"><g id="Calque_1-2" data-name="Calque 1"><path d="M2603.44,1330.58c-7.19,265.36-182.65,403.73-361.7,325.35-459.68-201.22-961.85-335.24-1246.14-819.41C858.91,603.71,662.92,406.29,503.84,185.6c-32.66-45.3-20.51-122.89-29-185.6,62,17.35,141.37,16.09,183.1,55.11C903.82,284.94,1132.82,533.35,1384.75,756c110.93,98,255.7,170,397.24,218.16,195.59,66.5,409.82,80.54,601.87,154.12C2485,1167,2555.91,1284.52,2603.44,1330.58Z"/><path d="M4127.6,2033.07c-381.26-75.23-308.51-420-387.19-578.67l1011.83,840.94q-13.92,34.83-27.83,69.65c-193.65-17.1-387.4-33-580.91-51.53-555.82-53.12-556.25-53.27-824.14-546.65-65-119.69-129.46-239.92-187.53-363-66.69-141.38-23.58-263.6,112.75-323.27,141.36-61.88,255.36,3,307.05,147.45,60.31,168.51,129.43,337.74,158.39,512.66C3750.05,1982.43,3891.5,2056.64,4127.6,2033.07Z"/><path d="M1977.17,1702.73c-611.8,35.63-1223.52,73.34-1835.62,102.66-45.71,2.19-94.3-55.64-141.55-85.57,39.38-33.11,74.86-88.15,118.73-95.92,416-73.75,831.79-173,1251.08-193,201.62-9.61,410.58,134.73,616.22,209.36Q1981.61,1671.52,1977.17,1702.73Z"/><path d="M4278.51,1057.59c-4.84,159.74-137.45,292-290.25,289.38-147-2.47-278.91-147.53-275.92-303.31,3.13-162.49,130.9-287.18,290-283S4283.42,895.81,4278.51,1057.59Z"/><path d="M5375,1608.61c-2.41,159.6-133.37,291.78-286.56,289.23-158.65-2.64-275.71-130-273.6-297.68,2.13-168.59,122.42-292.18,281.36-289.07C5250.65,1314.12,5377.4,1449.37,5375,1608.61Z"/></g></g></svg>