<svg xmlns="http://www.w3.org/2000/svg" viewBox="0 0 3373.42 4686.26"><title>Fichier 47</title><g id="Calque_2" data-name="Calque 2"><g id="Calque_1-2" data-name="Calque 1"><path d="M1724.2,3662.71c-97.73,99.55-185.83,181.78-265,271.9-89.89,102.39-184.14,127.49-308.66,60.67-344.93-185.05-694.72-361.15-1037.16-550.59C60.89,3415.62,37.09,3334.62,0,3277.64c66.31-9.78,140.47-43.79,197.6-25.27q440.54,142.88,872.71,310.89c109.52,42.85,172.15,27.92,240.66-68.71,150.89-212.81,315.38-415.94,471.43-625.17,95.57-128.13,211.92-203.13,371.34-135,150.44,64.33,181,197.94,157.85,345.12C2256.13,3432.31,2206.9,3786.7,2131,4135.18c-18.5,85-117.8,193.25-200.75,216.43-449.23,125.55-904.19,231.4-1359.63,333-52.95,11.81-121-44.29-182.12-68.91,36.58-49.38,62.8-124.35,111.41-144,330.84-133.83,661.49-272.08,1002.17-376.32C1729.76,4025.74,1786.78,3903.14,1724.2,3662.71Z"/><path d="M1127.19,1902.69c174.2-67.11,310.94-124,450.56-172.48,164.19-57.07,304.75,5.19,349,147.16,52.52,168.35-31.69,317.63-215.12,350.4-256,45.74-513.94,82.36-772.24,112.81C772.8,2360.22,694,2258.32,755.81,2096.09c117.06-307,244-610.36,375.12-911.66,19.43-44.64,83.78-69.75,127.33-103.9,14.25,53.48,49.66,111.62,39.09,159.62C1250.88,1451.19,1191.12,1659.3,1127.19,1902.69Z"/><path d="M2302.27,1848.11,2066.79,1546.9c391.67-291.74,785.41-586.86,1182.76-877,27.5-20.08,81.95-3.27,123.87-3.61-14.59,53.08-12.13,124.43-46.4,156.43-351.15,327.85-708.26,649.32-1063.71,972.57Z"/><path d="M1720.09,960c156.44,3.13,290.68,153.42,284.43,318.39-6.16,162.16-133.62,288.08-289.72,286.23-165.26-2-288.36-138.93-281.33-313C1440,1090.69,1571.35,957,1720.09,960Z"/><path d="M2847.36,0c169.48.46,289.3,130,284.25,307.23-4.64,162.72-132,295.35-283,294.61-158-.78-294.55-149.35-288.15-313.48C2566.81,125.53,2692.14-.42,2847.36,0Z"/></g></g></svg>