<svg xmlns="http://www.w3.org/2000/svg" viewBox="0 0 1449.89 1192.74"><defs><style>.cls-1{fill:#fff;}</style></defs><title>vtt-white</title><g id="Calque_2" data-name="Calque 2"><g id="Calque_1-2" data-name="Calque 1"><g id="Calque_2-2" data-name="Calque 2"><g id="Calque_1-2-2" data-name="Calque 1-2"><g id="Calque_2-2-2" data-name="Calque 2-2"><g id="Calque_1-2-2-2" data-name="Calque 1-2-2"><path class="cls-1" d="M0,892.67c-.08-165,124.26-298.19,280.18-300,158.05-1.84,289,134.56,288.38,300.34-.67,166.87-131,302.3-288.5,299.7C123.85,1190.12.08,1057.51,0,892.67Z"/><path class="cls-1" d="M1261.13,442.79l46.63-86.46c28,81.16-10.7,142.85-80.9,143.52-62.43.6-124.87.13-200.62.13,15.17,40.16,26.54,70.21,38.36,101.49,43.92-2.5,84.75-10.18,124.39-6.13,141.47,14.45,240.74,119.69,259,269.15,15.48,126.68-65.11,262.75-182.68,308.43-118.93,46.22-253.79,5.79-328.43-98.44C856.44,962.11,860.83,800,948,697.14c22.93-27,69.72-53.33,68.26-77.73-3.48-58-23.49-117.13-47.5-171.07C937.5,378,895.25,312.69,858.91,244.58c-23.75-44.51-32.61-92.43,21.74-118C937.3,100,963.87,141,981.45,188.18c11.8,31.65,29.23,62.42,34.33,95.11,16.34,104.75,75.1,153.2,180.22,149.92C1217,432.6,1238.29,439.26,1261.13,442.79Zm-213,235.52c-119.75,71.3-158.59,216.63-94.42,335.78,62.33,115.72,194.7,162.58,307.84,109,118.79-56.31,174-200.15,124.71-324.9-49.17-124.4-167-182-295.51-138.94,17.43,41.87,36,83,51.75,125.27,15,40.22,27,81.55,40.33,122.39L1151.74,918c-34.47-79.69-68.92-159.35-103.62-239.61Z"/><path class="cls-1" d="M482.47,295.9c-1.19-81.15,66.44-127.34,132.14-87.82,88.65,53.31,172.92,114,258.15,172.89,39,26.95,34.19,59.32,5.58,92.07-47.59,54.46-92.51,111.5-143.13,163-35.91,36.52-45.15,73.83-37,123.34,14.87,90.29,25.13,181.44,33.94,272.55,1.67,17.08-12.41,35.67-19.23,53.58-12-12.69-30.84-23.51-34.84-38.34C612.91,805.32,549.59,563,486.05,320.74,483.64,311.48,483.27,301.68,482.47,295.9ZM653.1,410.47c8.82,61.06,15.55,107.72,25.12,174l91.23-132.53Z"/><path class="cls-1" d="M909.24,21c58.9-7.54,117.9-21.86,176.67-21,79.19,1.19,129.44,66.85,104.93,136.76-10.18,29-43.68,63.59-71.62,68.85s-67.7-16.76-91.84-38.45c-20.58-18.49-20.64-58.86-40.26-79.68-19.85-21.06-52.57-30-79.63-44.25Z"/></g></g></g></g></g></g></svg>