<svg xmlns="http://www.w3.org/2000/svg" viewBox="0 0 4357.25 3584.39"><defs><style>.cls-1{fill:#fff;}</style></defs><title>Fichier 18</title><g id="Calque_2" data-name="Calque 2"><g id="Calque_1-2" data-name="Calque 1"><path d="M0,2682.62c-.23-496,373.43-896.14,842-901.6,475-5.54,868.64,404.37,866.65,902.57-2,501.49-393.8,908.51-867,900.69C372.2,3576.53.23,3178,0,2682.62Z"/><path d="M3790,1330.62l140.15-259.83c84,243.88-32.15,429.3-243.13,431.31-187.62,1.79-375.28.38-602.93.38,45.61,120.69,79.76,211,115.29,305,132-7.52,254.7-30.58,373.83-18.42,425.14,43.42,723.48,359.69,778.36,808.85,46.52,380.72-195.66,789.65-549,926.93-357.42,138.89-762.7,17.4-987-295.83-241.76-337.72-228.55-824.79,33.47-1134,68.91-81.31,209.53-160.29,205.13-233.61-10.45-174.15-70.6-352-142.76-514.11-94-211.23-220.95-407.66-330.17-612.36-71.37-133.74-98-277.75,65.34-354.54,170.24-80.05,250.1,43.44,302.92,185.11,35.46,95.11,87.84,187.59,103.17,285.84,49.12,314.79,225.69,460.41,541.62,450.55C3657.51,1300,3721.36,1320,3790,1330.62Zm-640.11,707.8c-359.89,214.27-476.61,651-283.76,1009.08,187.32,347.79,585.13,488.59,925.14,327.42,357-169.22,523-601.49,374.78-976.38-147.75-373.86-501.71-546.92-888.08-417.55,52.4,125.83,108.25,249.55,155.54,376.46,45.05,120.88,81.16,245.08,121.2,367.82l-93.46,33.22C3357.68,2519,3254.14,2279.6,3149.85,2038.42Z"/><path d="M1449.94,889.18c-3.57-243.87,199.66-382.69,397.11-263.94,266.43,160.22,519.68,342.64,775.8,519.59,117.21,81,102.77,178.27,16.77,276.7-143,163.67-278,335.07-430.14,489.76-107.9,109.74-135.68,221.86-111.18,370.65,44.69,271.36,75.53,545.27,102,819.1,5,51.31-37.31,107.2-57.79,161-35.94-38.12-92.7-70.64-104.71-115.21-195.85-726.74-386.16-1455-577.1-2183C1453.45,936,1452.35,906.55,1449.94,889.18Zm512.8,344.3c26.5,183.51,46.73,323.72,75.47,522.81l274.19-398.17Z"/><path d="M2732.49,63.16c177-22.67,354.31-65.7,530.93-63,238,3.58,389,200.9,315.35,411-30.58,87.25-131.27,191.1-215.23,206.9s-203.47-50.37-276-115.54c-61.87-55.57-62.05-176.88-121-239.45-59.64-63.29-158-90.14-239.31-133Z"/><path class="cls-1" d="M3149.85,2038.42c104.29,241.18,207.83,480.62,311.36,720.07l93.46-33.22c-40-122.74-76.15-246.94-121.2-367.82-47.29-126.91-103.14-250.63-155.54-376.46,386.37-129.37,740.33,43.69,888.08,417.55,148.17,374.89-17.75,807.16-374.78,976.38-340,161.17-737.82,20.37-925.14-327.42C2673.24,2689.45,2790,2252.69,3149.85,2038.42Z"/><path class="cls-1" d="M1962.74,1233.48l349.66,124.64-274.19,398.17C2009.47,1557.2,1989.24,1417,1962.74,1233.48Z"/></g></g></svg>