<svg xmlns="http://www.w3.org/2000/svg" viewBox="0 0 2480.65 2306.46"><defs><style>.cls-1{fill:#fff;}</style></defs><title>water-polo-white</title><g id="Calque_2" data-name="Calque 2"><g id="Calque_1-2" data-name="Calque 1"><g id="Calque_2-2" data-name="Calque 2"><g id="Calque_1-2-2" data-name="Calque 1-2"><path class="cls-1" d="M224.22,599.73c28.77,208.27,53,409.07,87,608.22,6.5,38.09,46.41,75.54,79.41,103.11,108.77,90.87,221.45,177.08,322.45,257-50.36,151.77-95.8,288.69-149.11,449.34-163.16-201.09-323.87-394-477-592.67-27.82-36.12-31.44-95.84-34.37-145.36C33.44,955.13,17.55,630.66.36,306.27-7,167.85,98.92,29.23,231.16,4.82,378.05-22.29,512.49,67.1,553,218.8c38.46,144.1-36.6,301.33-171.14,349.71C339.71,583.66,293.17,586.56,224.22,599.73Z"/><path class="cls-1" d="M2480.65,2257.86c-36.46,17-72.92,48.57-109.4,48.6-260.74.15-521.48-6.46-782.22-10.12-57.07-.8-114.3,4.4-171.24,1.93-123-5.35-254.75,11.3-366.42-28-120.29-42.29-163.08-165-122.7-294,41.7-133.22,146.14-183.41,275.61-159.73,129.7,23.73,257.7,61,383.33,102,298.63,97.35,595.42,200.36,893,301.08Z"/><path class="cls-1" d="M1359.09,1268.49c-.88,184.27-137.13,325.31-314,325-171.36-.27-312.51-148.7-312.44-328.54.07-175.81,148-329.93,315.67-328.85C1218.91,937.22,1359.94,1088.07,1359.09,1268.49Z"/></g></g></g></g></svg>