<svg width="39" height="42" viewBox="0 0 39 42" fill="none" xmlns="http://www.w3.org/2000/svg">
<path d="M32.4253 5.87637H36.2263V10.3109H2.65048V5.87637H6.45151V3.34235H0.116455V41.3527H38.7603V3.34235H32.4253V5.87637ZM2.65048 38.8187V12.8449H36.2263V38.8187H2.65048Z" fill="white"/>
<path d="M28.6241 3.34235H10.2524V5.87637H28.6241V3.34235Z" fill="white"/>
<path d="M12.153 16.6459H7.71851V21.0805H12.153V16.6459Z" fill="white"/>
<path d="M18.488 16.6459H14.0535V21.0805H18.488V16.6459Z" fill="white"/>
<path d="M24.8232 16.6459H20.3887V21.0805H24.8232V16.6459Z" fill="white"/>
<path d="M31.1582 16.6459H26.7236V21.0805H31.1582V16.6459Z" fill="white"/>
<path d="M31.1582 22.981H26.7236V27.4156H31.1582V22.981Z" fill="white"/>
<path d="M24.8232 22.981H20.3887V27.4156H24.8232V22.981Z" fill="white"/>
<path d="M18.488 22.981H14.0535V27.4156H18.488V22.981Z" fill="white"/>
<path d="M12.153 22.981H7.71851V27.4156H12.153V22.981Z" fill="white"/>
<path d="M12.153 29.3161H7.71851V33.7506H12.153V29.3161Z" fill="white"/>
<path d="M18.488 29.3161H14.0535V33.7506H18.488V29.3161Z" fill="white"/>
<path d="M24.8232 29.3161H20.3887V33.7506H24.8232V29.3161Z" fill="white"/>
<path d="M31.1582 29.3161H26.7236V33.7506H31.1582V29.3161Z" fill="white"/>
<path d="M9.61898 0.174805H7.08496V7.77687H9.61898V0.174805Z" fill="white"/>
<path d="M31.7918 0.808289H29.2578V7.77685H31.7918V0.808289Z" fill="white"/>
</svg>
