<svg width="40" height="40" viewBox="0 0 40 40" fill="none" xmlns="http://www.w3.org/2000/svg">
<circle cx="20" cy="20" r="20" fill="#337CBC"/>
<path fill-rule="evenodd" clip-rule="evenodd" d="M17.2727 12.835C18.0855 12.6544 18.8908 13.1669 19.0715 13.9797L20.3168 19.5835H26.6455C27.1865 19.5835 27.6861 19.8734 27.9545 20.3431L30.9697 25.6198C31.3828 26.3427 31.1317 27.2637 30.4087 27.6767C29.6858 28.0899 28.7649 27.8387 28.3518 27.1158L25.7706 22.5987H19.1074C18.4007 22.5987 17.7889 22.1079 17.6357 21.4181L16.128 14.6338C15.9474 13.821 16.4599 13.0157 17.2727 12.835Z" fill="white"/>
<path fill-rule="evenodd" clip-rule="evenodd" d="M16.8457 16.5701C16.8457 15.7375 17.5207 15.0625 18.3533 15.0625H21.3686C22.2012 15.0625 22.8762 15.7375 22.8762 16.5701C22.8762 17.4028 22.2012 18.0777 21.3686 18.0777H18.3533C17.5207 18.0777 16.8457 17.4028 16.8457 16.5701Z" fill="white"/>
<path d="M16.9269 11.9632C18.1604 11.9632 19.1604 10.9632 19.1604 9.72963C19.1604 8.49608 18.1604 7.49609 16.9269 7.49609C15.6933 7.49609 14.6934 8.49608 14.6934 9.72963C14.6934 10.9632 15.6933 11.9632 16.9269 11.9632Z" fill="white"/>
<path fill-rule="evenodd" clip-rule="evenodd" d="M15.2737 17.8351C15.1069 17.9014 14.9441 17.9761 14.7856 18.0586C13.0406 18.9675 11.837 20.8238 11.837 22.9769C11.837 26.0448 14.2716 28.4913 17.2254 28.4913C19.6736 28.4913 21.7638 26.8136 22.4095 24.4876L25.3044 25.296C24.3139 28.8642 21.0857 31.5055 17.2254 31.5055C12.5678 31.5055 8.83203 27.6648 8.83203 22.9769C8.83203 19.6729 10.6834 16.799 13.4008 15.3835C13.6487 15.2544 13.9039 15.1373 14.1656 15.0332L15.2737 17.8351Z" fill="white"/>
</svg>
