<svg width="41" height="41" viewBox="0 0 41 41" fill="none" xmlns="http://www.w3.org/2000/svg">
<circle cx="20.5" cy="20.5" r="20.5" fill="#337CBC"/>
<path d="M28.0348 17.9831L26.6872 21.1681C26.9322 21.3886 27.1527 21.5846 27.3242 21.7561L28.7943 18.3016L28.8678 18.1056V18.0811C29.0148 17.6401 29.0883 17.1991 29.0883 16.7336C29.0883 14.5531 27.3242 12.7891 25.1437 12.7891C22.9632 12.7891 21.1992 14.5531 21.1992 16.7336V17.4686H21.6157H22.0077L22.0322 16.6356C22.0812 14.9451 23.4777 13.5976 25.1682 13.5976C26.8832 13.5976 28.3043 14.9941 28.3043 16.7336C28.3043 17.1011 28.2553 17.4441 28.1328 17.7871L28.0348 17.9831Z" fill="white"/>
<path d="M25.1183 10.8809C21.8843 10.8809 19.2383 13.5269 19.2383 16.7609H20.0713C20.0713 13.9679 22.3498 11.7139 25.1183 11.7139C27.8868 11.7139 30.1653 13.9924 30.1653 16.7609C30.1653 17.3734 30.0673 17.9614 29.8468 18.5249L29.8223 18.5984L26.0983 27.2714L25.9758 27.5164C25.4123 28.4964 24.3588 29.0844 23.2318 29.0844C22.2028 29.0844 21.2718 28.5699 20.6838 27.8104C20.4143 27.9084 20.1448 27.9819 19.8508 28.0554C20.5613 29.1824 21.8108 29.9175 23.2318 29.9175C24.6528 29.9175 25.9758 29.1579 26.6863 27.9329L26.8578 27.6144L30.6063 18.9169L30.6553 18.8189C30.9003 18.1574 31.0228 17.4714 31.0228 16.7609C30.9983 13.5269 28.3523 10.8809 25.1183 10.8809Z" fill="white"/>
<path d="M19.7525 27.2732C20.267 27.1752 20.7815 27.0527 21.296 26.8811L22.619 25.5581L25.9266 22.2506C26.1226 22.4221 26.2941 22.5691 26.4166 22.6916L25.2161 23.8921L22.913 26.1951C23.5011 25.9011 24.0891 25.5581 24.6526 25.1906C25.4366 24.6761 26.0491 24.1616 26.4901 23.7451C26.5636 23.6961 26.6126 23.6471 26.6616 23.5981C27.0291 23.2551 27.2251 23.0346 27.2496 23.0101L27.3476 22.8876L27.4701 22.7651L27.2496 22.5201C27.2251 22.4956 27.1271 22.3731 26.9066 22.1771C26.8821 22.1526 26.8821 22.1526 26.8576 22.1281C26.7351 22.0056 26.5881 21.8831 26.4166 21.7116C26.3186 21.6381 26.2206 21.5401 26.0981 21.4421C26.0001 21.3686 25.9021 21.2706 25.7796 21.1971C25.6571 21.0991 25.5101 20.9766 25.3631 20.8786C25.3386 20.8541 25.3141 20.8296 25.2651 20.8051C25.0446 20.6581 24.8241 20.4866 24.6036 20.3396C24.4321 20.2171 24.2361 20.0946 24.0646 19.9966C23.8196 19.8496 23.5746 19.7026 23.3296 19.5801C23.1581 19.4821 22.962 19.3841 22.7905 19.3106L26.2451 15.8561L25.3386 15.1211L21.6145 18.8206C20.463 18.4041 19.336 18.1836 18.2335 18.1836C17.082 18.1836 15.906 18.4041 14.7055 18.8696C13.75 19.2371 12.7945 19.7271 11.8635 20.3641C10.271 21.4421 9.29099 22.4956 9.24199 22.5446L9.02148 22.7896L9.24199 23.0346C9.29099 23.0836 10.271 24.1371 11.8635 25.2151C12.084 25.3621 12.329 25.5091 12.5495 25.6561C13.0395 25.9501 13.505 26.1951 13.995 26.4156L10.1485 30.3112H11.839L15.2445 26.9056L16.102 26.0481L16.7635 25.3866L17.278 24.8721L20.2915 21.8586L20.806 21.3441L21.4675 20.6826L21.982 20.1681L22.2515 19.8986C22.423 19.9721 22.619 20.0701 22.7905 20.1681L22.276 20.6826L21.737 21.2216L16.6165 26.3421L15.857 27.1017C16.1755 27.1752 16.494 27.2487 16.8125 27.2977L17.474 26.6361L22.0555 22.0546L22.6435 21.4666L23.5501 20.5601C23.7216 20.6581 23.9176 20.7806 24.0891 20.9031L22.815 22.1771L22.1535 22.8386L18.307 26.6851L17.621 27.3712C17.719 27.3712 17.8415 27.3957 17.9395 27.3957C18.0375 27.3957 18.16 27.3957 18.258 27.3957C18.4295 27.3957 18.601 27.3957 18.748 27.3712L19.728 26.3911L21.835 24.2841L22.815 23.3041L24.7506 21.3686C24.8976 21.4666 25.0201 21.5646 25.1426 21.6626C25.1916 21.6871 25.2161 21.7116 25.2406 21.7606L22.5455 24.4801L19.7525 27.2732ZM18.16 18.8941C18.1845 18.8941 18.2335 18.8941 18.258 18.8941C18.2825 18.8941 18.3315 18.8941 18.356 18.8941C19.238 18.9186 20.0465 19.2371 20.6835 19.7516L20.022 20.4131C19.532 20.0456 18.895 19.8251 18.2335 19.8251C16.592 19.8251 15.2445 21.1726 15.2445 22.8141C15.2445 22.8631 15.2445 22.9366 15.2445 22.9856C15.269 23.5981 15.4895 24.1371 15.8325 24.6026L15.171 25.2641C14.828 24.8476 14.583 24.3331 14.436 23.7941C14.3625 23.4756 14.3135 23.1571 14.3135 22.8141C14.3625 20.6826 16.053 18.9431 18.16 18.8941ZM13.113 25.1416C12.8435 24.9946 12.574 24.8231 12.3045 24.6516C11.2265 23.9166 10.418 23.1816 10.026 22.8141C10.3935 22.4466 11.202 21.7116 12.28 20.9766C13.162 20.3641 14.0685 19.8986 14.975 19.5556C14.142 20.3886 13.6275 21.5401 13.6275 22.8141C13.6275 23.3531 13.7255 23.8676 13.897 24.3576C14.0685 24.8721 14.3625 25.3376 14.7055 25.7541L14.5585 25.8766C14.0685 25.6806 13.5785 25.4356 13.113 25.1416ZM16.3715 24.0636C16.1265 23.6961 15.9795 23.2551 15.9795 22.7896C15.9795 22.5691 16.004 22.3731 16.0775 22.1771C16.347 21.2216 17.229 20.5356 18.258 20.5356C18.7235 20.5356 19.1645 20.6826 19.532 20.9276L16.3715 24.0636Z" fill="white"/>
<path d="M29.8206 12.5212L31.9766 10.3652H30.2861L28.9141 11.7372C29.2571 11.9577 29.5511 12.2272 29.8206 12.5212Z" fill="white"/>
</svg>
