<svg width="22" height="23" viewBox="0 0 22 23" fill="none" xmlns="http://www.w3.org/2000/svg">
<path fill-rule="evenodd" clip-rule="evenodd" d="M8.53625 5.44855C9.29991 5.27886 10.0565 5.76036 10.2263 6.52401L11.3962 11.7889H17.3422C17.8506 11.7889 18.3199 12.0612 18.5721 12.5026L21.405 17.4602C21.7931 18.1394 21.5572 19.0046 20.8779 19.3927C20.1987 19.7809 19.3335 19.5449 18.9453 18.8657L16.5202 14.6218H10.26C9.59608 14.6218 9.02126 14.1607 8.87725 13.5126L7.46079 7.13855C7.2911 6.37489 7.77259 5.61826 8.53625 5.44855Z" fill="black"/>
<path fill-rule="evenodd" clip-rule="evenodd" d="M8.13477 8.95593C8.13477 8.17364 8.76892 7.53946 9.55121 7.53946H12.3841C13.1664 7.53946 13.8006 8.17364 13.8006 8.95593C13.8006 9.73821 13.1664 10.3724 12.3841 10.3724H9.55121C8.76892 10.3724 8.13477 9.73821 8.13477 8.95593Z" fill="black"/>
<path d="M8.21273 4.62846C9.37168 4.62846 10.3112 3.68894 10.3112 2.52999C10.3112 1.37104 9.37168 0.431519 8.21273 0.431519C7.05377 0.431519 6.11426 1.37104 6.11426 2.52999C6.11426 3.68894 7.05377 4.62846 8.21273 4.62846Z" fill="black"/>
<path fill-rule="evenodd" clip-rule="evenodd" d="M6.65951 10.1455C6.50286 10.2079 6.34986 10.278 6.20097 10.3556C4.56152 11.2095 3.43068 12.9535 3.43068 14.9765C3.43068 17.8588 5.71806 20.1573 8.49324 20.1573C10.7934 20.1573 12.7572 18.5812 13.3638 16.3957L16.0836 17.1553C15.1531 20.5077 12.12 22.9893 8.49324 22.9893C4.11724 22.9893 0.607422 19.3808 0.607422 14.9765C0.607422 11.8722 2.34679 9.17209 4.89987 7.84224C5.1328 7.72092 5.37255 7.61093 5.61846 7.51309L6.65951 10.1455Z" fill="black"/>
</svg>
