<svg width="19" height="32" viewBox="0 0 19 32" fill="none" xmlns="http://www.w3.org/2000/svg">
<path d="M0.500759 16.2328C0.558964 16.7298 0.784128 17.1923 1.13941 17.5447L14.3962 30.8016C14.6025 31.0067 14.8472 31.1693 15.1163 31.2799C15.3854 31.3905 15.6736 31.447 15.9645 31.4462C16.2555 31.4454 16.5434 31.3874 16.8119 31.2753C17.0804 31.1632 17.3242 30.9994 17.5294 30.7931C17.7345 30.5868 17.8971 30.342 18.0077 30.0729C18.1182 29.8038 18.1747 29.5156 18.1739 29.2246C18.1731 28.9337 18.115 28.6457 18.0029 28.3773C17.8908 28.1088 17.7269 27.865 17.5206 27.6599L5.83453 15.9739L17.5206 4.28784C17.7269 4.0827 17.8908 3.83896 18.0029 3.57048C18.115 3.30199 18.1731 3.01403 18.1739 2.72308C18.1747 2.43213 18.1182 2.14388 18.0077 1.87477C17.8971 1.60566 17.7345 1.36098 17.5294 1.15468C17.3242 0.94838 17.0804 0.784511 16.8119 0.672436C16.5434 0.560361 16.2555 0.502259 15.9645 0.501473C15.6736 0.500687 15.3854 0.557229 15.1163 0.667851C14.8472 0.778473 14.6025 0.94103 14.3962 1.14622L1.13941 14.403C0.900911 14.6395 0.719437 14.9271 0.608774 15.2442C0.498112 15.5612 0.461172 15.8994 0.500759 16.2328Z" fill="white"/>
</svg>
