<svg width="378" height="133" viewBox="0 0 378 133" fill="none" xmlns="http://www.w3.org/2000/svg">
<path d="M229.997 102.713L237.467 25.4034H263.657L271.037 102.713H256.367L255.287 90.2034H245.927L245.027 102.713H229.997ZM247.097 77.8734H254.117L250.697 38.5434H249.977L247.097 77.8734ZM275.749 25.4034H299.509C303.289 25.4034 306.199 26.2734 308.239 28.0134C310.339 29.6934 311.749 32.0934 312.469 35.2134C313.189 38.2734 313.549 42.2034 313.549 47.0034C313.549 51.3834 312.979 54.8034 311.839 57.2634C310.699 59.7234 308.719 61.4334 305.899 62.3934C308.239 62.8734 309.919 64.0434 310.939 65.9034C312.019 67.7634 312.559 70.2834 312.559 73.4634L312.379 102.713H297.259V72.4734C297.259 70.3134 296.839 68.9334 295.999 68.3334C295.159 67.7334 293.629 67.4334 291.409 67.4334V102.713H275.749V25.4034ZM295.189 54.0234C297.349 54.0234 298.429 51.6834 298.429 47.0034C298.429 44.9634 298.339 43.4334 298.159 42.4134C297.979 41.3934 297.649 40.7034 297.169 40.3434C296.689 39.9234 295.999 39.7134 295.099 39.7134H291.499V54.0234H295.189ZM317.92 102.713V25.4034H332.86V102.713H317.92ZM357.39 103.433C350.37 103.433 345.3 101.693 342.18 98.2134C339.06 94.7334 337.5 89.1234 337.5 81.3834V73.8234H352.71V83.4534C352.71 87.2934 353.94 89.2134 356.4 89.2134C357.78 89.2134 358.74 88.8234 359.28 88.0434C359.82 87.2034 360.09 85.8234 360.09 83.9034C360.09 81.3834 359.79 79.3134 359.19 77.6934C358.59 76.0134 357.81 74.6334 356.85 73.5534C355.95 72.4134 354.3 70.6734 351.9 68.3334L345.24 61.6734C340.08 56.6334 337.5 51.0534 337.5 44.9334C337.5 38.3334 339 33.3234 342 29.9034C345.06 26.4234 349.5 24.6834 355.32 24.6834C362.28 24.6834 367.29 26.5434 370.35 30.2634C373.41 33.9234 374.94 39.6834 374.94 47.5434H359.19L359.1 42.2334C359.1 41.2134 358.8 40.4034 358.2 39.8034C357.66 39.2034 356.88 38.9034 355.86 38.9034C354.66 38.9034 353.76 39.2334 353.16 39.8934C352.56 40.5534 352.26 41.4534 352.26 42.5934C352.26 45.1134 353.7 47.7234 356.58 50.4234L365.58 59.0634C367.68 61.1034 369.42 63.0534 370.8 64.9134C372.18 66.7134 373.29 68.8734 374.13 71.3934C374.97 73.8534 375.39 76.7934 375.39 80.2134C375.39 87.8334 373.98 93.6234 371.16 97.5834C368.4 101.483 363.81 103.433 357.39 103.433Z" fill="white"/>
<path d="M22.5175 103.433C16.2775 103.433 11.5375 101.543 8.29746 97.7634C5.05746 93.9234 3.43746 88.5534 3.43746 81.6534V44.8434C3.43746 38.1834 5.05746 33.1734 8.29746 29.8134C11.5375 26.3934 16.2775 24.6834 22.5175 24.6834C28.7575 24.6834 33.4975 26.3934 36.7375 29.8134C39.9775 33.1734 41.5975 38.1834 41.5975 44.8434V81.6534C41.5975 88.6134 39.9775 93.9834 36.7375 97.7634C33.4975 101.543 28.7575 103.433 22.5175 103.433ZM22.5175 89.2134C23.8975 89.2134 24.8275 88.6134 25.3075 87.4134C25.7875 86.2134 26.0275 84.5334 26.0275 82.3734V44.5734C26.0275 42.8934 25.7875 41.5434 25.3075 40.5234C24.8875 39.4434 23.9875 38.9034 22.6075 38.9034C20.0275 38.9034 18.7375 40.8534 18.7375 44.7534V82.4634C18.7375 84.6834 19.0075 86.3634 19.5475 87.5034C20.0875 88.6434 21.0775 89.2134 22.5175 89.2134Z" fill="#0081C8"/>
<path d="M47.837 102.713V25.4034H63.317V89.5734H79.247V102.713H47.837Z" fill="#FCB131"/>
<path d="M92.9685 102.713V77.2434L80.6385 25.4034H95.9385L100.258 51.5934L104.578 25.4034H119.878L107.548 77.2434V102.713H92.9685Z" fill="black"/>
<path d="M123.774 102.713V25.4034H147.354L153.834 72.5634L160.314 25.4034H184.074V102.713H169.944V47.0034L161.034 102.713H147.174L137.724 47.0034V102.713H123.774Z" fill="#00A651"/>
<path d="M190.923 25.4034H211.353C217.533 25.4034 221.943 27.4134 224.583 31.4334C227.223 35.3934 228.543 41.2134 228.543 48.8934C228.543 56.5734 227.373 62.3634 225.033 66.2634C222.693 70.1634 218.493 72.1134 212.433 72.1134H206.133V102.713H190.923V25.4034ZM207.033 58.1634C208.893 58.1634 210.243 57.8334 211.083 57.1734C211.983 56.4534 212.553 55.4634 212.793 54.2034C213.093 52.8834 213.243 51.0234 213.243 48.6234C213.243 45.3834 212.883 43.0434 212.163 41.6034C211.443 40.1634 210.003 39.4434 207.843 39.4434H206.133V58.1634H207.033Z" fill="#EE334E"/>
<path d="M8.29746 97.7634L8.06817 97.9568L8.06968 97.9586L8.29746 97.7634ZM8.29746 29.8134L8.51342 30.0216L8.51525 30.0197L8.29746 29.8134ZM36.7375 29.8134L36.5197 30.0197L36.5215 30.0216L36.7375 29.8134ZM36.7375 97.7634L36.9652 97.9586L36.9652 97.9586L36.7375 97.7634ZM25.3075 87.4134L25.586 87.5248L25.586 87.5248L25.3075 87.4134ZM25.3075 40.5234L25.0279 40.6321L25.0316 40.6418L25.036 40.6511L25.3075 40.5234ZM19.5475 87.5034L19.8186 87.375L19.8186 87.375L19.5475 87.5034ZM22.5175 103.133C16.341 103.133 11.6943 101.265 8.52524 97.5681L8.06968 97.9586C11.3806 101.821 16.2139 103.733 22.5175 103.733V103.133ZM8.52675 97.5699C5.34694 93.8013 3.73746 88.5089 3.73746 81.6534H3.13746C3.13746 88.5978 4.76798 94.0455 8.06817 97.9568L8.52675 97.5699ZM3.73746 81.6534V44.8434H3.13746V81.6534H3.73746ZM3.73746 44.8434C3.73746 38.2278 5.34667 33.3056 8.51341 30.0216L8.08151 29.6051C4.76825 33.0411 3.13746 38.1389 3.13746 44.8434H3.73746ZM8.51525 30.0197C11.6819 26.6771 16.3319 24.9834 22.5175 24.9834V24.3834C16.223 24.3834 11.393 26.1096 8.07968 29.607L8.51525 30.0197ZM22.5175 24.9834C28.703 24.9834 33.353 26.6771 36.5197 30.0197L36.9552 29.607C33.6419 26.1096 28.8119 24.3834 22.5175 24.3834V24.9834ZM36.5215 30.0216C39.6883 33.3056 41.2975 38.2278 41.2975 44.8434H41.8975C41.8975 38.1389 40.2667 33.0411 36.9534 29.6051L36.5215 30.0216ZM41.2975 44.8434V81.6534H41.8975V44.8434H41.2975ZM41.2975 81.6534C41.2975 88.5701 39.6875 93.8607 36.5097 97.5681L36.9652 97.9586C40.2674 94.106 41.8975 88.6567 41.8975 81.6534H41.2975ZM36.5097 97.5681C33.3406 101.265 28.6939 103.133 22.5175 103.133V103.733C28.821 103.733 33.6543 101.821 36.9652 97.9586L36.5097 97.5681ZM22.5175 89.5134C23.2509 89.5134 23.8884 89.3537 24.4126 89.0155C24.9383 88.6763 25.3269 88.1726 25.586 87.5248L25.0289 87.302C24.808 87.8542 24.4917 88.2504 24.0873 88.5113C23.6815 88.7731 23.164 88.9134 22.5175 88.9134V89.5134ZM25.586 87.5248C26.0866 86.2734 26.3275 84.5494 26.3275 82.3734H25.7275C25.7275 84.5174 25.4883 86.1534 25.0289 87.302L25.586 87.5248ZM26.3275 82.3734V44.5734H25.7275V82.3734H26.3275ZM26.3275 44.5734C26.3275 42.869 26.0846 41.4703 25.5789 40.3956L25.036 40.6511C25.4903 41.6165 25.7275 42.9177 25.7275 44.5734H26.3275ZM25.5871 40.4146C25.3556 39.8194 24.9849 39.359 24.4718 39.0511C23.9627 38.7457 23.3351 38.6034 22.6075 38.6034V39.2034C23.2598 39.2034 23.7722 39.3311 24.1631 39.5656C24.5501 39.7978 24.8393 40.1473 25.0279 40.6321L25.5871 40.4146ZM22.6075 38.6034C21.2291 38.6034 20.1618 39.1316 19.4548 40.2004C18.7621 41.2473 18.4375 42.7798 18.4375 44.7534H19.0375C19.0375 42.8269 19.3578 41.4344 19.9552 40.5314C20.5382 39.6501 21.4058 39.2034 22.6075 39.2034V38.6034ZM18.4375 44.7534V82.4634H19.0375V44.7534H18.4375ZM18.4375 82.4634C18.4375 84.699 18.708 86.4319 19.2763 87.6318L19.8186 87.375C19.307 86.2948 19.0375 84.6678 19.0375 82.4634H18.4375ZM19.2763 87.6318C19.5696 88.251 19.9919 88.7272 20.5453 89.0459C21.0962 89.3631 21.7584 89.5134 22.5175 89.5134V88.9134C21.8365 88.9134 21.2837 88.7787 20.8447 88.5259C20.4081 88.2745 20.0653 87.8958 19.8186 87.375L19.2763 87.6318ZM47.837 102.713H47.537V103.013H47.837V102.713ZM47.837 25.4034V25.1034H47.537V25.4034H47.837ZM63.317 25.4034H63.617V25.1034H63.317V25.4034ZM63.317 89.5734H63.017V89.8734H63.317V89.5734ZM79.247 89.5734H79.547V89.2734H79.247V89.5734ZM79.247 102.713V103.013H79.547V102.713H79.247ZM48.137 102.713V25.4034H47.537V102.713H48.137ZM47.837 25.7034H63.317V25.1034H47.837V25.7034ZM63.017 25.4034V89.5734H63.617V25.4034H63.017ZM63.317 89.8734H79.247V89.2734H63.317V89.8734ZM78.947 89.5734V102.713H79.547V89.5734H78.947ZM79.247 102.413H47.837V103.013H79.247V102.413ZM92.9685 102.713H92.6685V103.013H92.9685V102.713ZM92.9685 77.2434H93.2685V77.2082L93.2603 77.174L92.9685 77.2434ZM80.6385 25.4034V25.1034H80.2588L80.3466 25.4728L80.6385 25.4034ZM95.9385 25.4034L96.2345 25.3546L96.193 25.1034H95.9385V25.4034ZM100.258 51.5934L99.9625 51.6422L100.554 51.6422L100.258 51.5934ZM104.578 25.4034V25.1034H104.324L104.282 25.3546L104.578 25.4034ZM119.878 25.4034L120.17 25.4728L120.258 25.1034H119.878V25.4034ZM107.548 77.2434L107.257 77.174L107.248 77.2082V77.2434H107.548ZM107.548 102.713V103.013H107.848V102.713H107.548ZM93.2685 102.713V77.2434H92.6685V102.713H93.2685ZM93.2603 77.174L80.9303 25.334L80.3466 25.4728L92.6766 77.3128L93.2603 77.174ZM80.6385 25.7034H95.9385V25.1034H80.6385V25.7034ZM95.6425 25.4522L99.9625 51.6422L100.554 51.5446L96.2345 25.3546L95.6425 25.4522ZM100.554 51.6422L104.874 25.4522L104.282 25.3546L99.9625 51.5446L100.554 51.6422ZM104.578 25.7034H119.878V25.1034H104.578V25.7034ZM119.587 25.334L107.257 77.174L107.84 77.3128L120.17 25.4728L119.587 25.334ZM107.248 77.2434V102.713H107.848V77.2434H107.248ZM107.548 102.413H92.9685V103.013H107.548V102.413ZM123.774 102.713H123.474V103.013H123.774V102.713ZM123.774 25.4034V25.1034H123.474V25.4034H123.774ZM147.354 25.4034L147.652 25.3625L147.616 25.1034H147.354V25.4034ZM153.834 72.5634L153.537 72.6042L154.132 72.6042L153.834 72.5634ZM160.314 25.4034V25.1034H160.053L160.017 25.3625L160.314 25.4034ZM184.074 25.4034H184.374V25.1034H184.074V25.4034ZM184.074 102.713V103.013H184.374V102.713H184.074ZM169.944 102.713H169.644V103.013H169.944V102.713ZM169.944 47.0034H170.244L169.648 46.956L169.944 47.0034ZM161.034 102.713V103.013H161.29L161.331 102.761L161.034 102.713ZM147.174 102.713L146.879 102.764L146.921 103.013H147.174V102.713ZM137.724 47.0034L138.02 46.9532L137.424 47.0034H137.724ZM137.724 102.713V103.013H138.024V102.713H137.724ZM124.074 102.713V25.4034H123.474V102.713H124.074ZM123.774 25.7034H147.354V25.1034H123.774V25.7034ZM147.057 25.4442L153.537 72.6042L154.132 72.5225L147.652 25.3625L147.057 25.4442ZM154.132 72.6042L160.612 25.4442L160.017 25.3625L153.537 72.5225L154.132 72.6042ZM160.314 25.7034H184.074V25.1034H160.314V25.7034ZM183.774 25.4034V102.713H184.374V25.4034H183.774ZM184.074 102.413H169.944V103.013H184.074V102.413ZM170.244 102.713V47.0034H169.644V102.713H170.244ZM169.648 46.956L160.738 102.666L161.331 102.761L170.241 47.0508L169.648 46.956ZM161.034 102.413H147.174V103.013H161.034V102.413ZM147.47 102.663L138.02 46.9532L137.429 47.0535L146.879 102.764L147.47 102.663ZM137.424 47.0034V102.713H138.024V47.0034H137.424ZM137.724 102.413H123.774V103.013H137.724V102.413ZM190.923 25.4034V25.1034H190.623V25.4034H190.923ZM224.583 31.4334L224.332 31.5981L224.333 31.5998L224.583 31.4334ZM225.033 66.2634L224.776 66.109L224.776 66.109L225.033 66.2634ZM206.133 72.1134V71.8134H205.833V72.1134H206.133ZM206.133 102.713V103.013H206.433V102.713H206.133ZM190.923 102.713H190.623V103.013H190.923V102.713ZM211.083 57.1734L211.268 57.4093L211.27 57.4076L211.083 57.1734ZM212.793 54.2034L212.5 54.1368L212.498 54.1472L212.793 54.2034ZM206.133 39.4434V39.1434H205.833V39.4434H206.133ZM206.133 58.1634H205.833V58.4634H206.133V58.1634ZM190.923 25.7034H211.353V25.1034H190.923V25.7034ZM211.353 25.7034C217.464 25.7034 221.763 27.6864 224.332 31.5981L224.834 31.2687C222.123 27.1403 217.602 25.1034 211.353 25.1034V25.7034ZM224.333 31.5998C226.926 35.4887 228.243 41.2395 228.243 48.8934H228.843C228.843 41.1873 227.52 35.298 224.833 31.267L224.333 31.5998ZM228.243 48.8934C228.243 56.5521 227.075 62.2776 224.776 66.109L225.29 66.4177C227.671 62.4491 228.843 56.5946 228.843 48.8934H228.243ZM224.776 66.109C222.508 69.8892 218.427 71.8134 212.433 71.8134V72.4134C218.559 72.4134 222.878 70.4375 225.29 66.4177L224.776 66.109ZM212.433 71.8134H206.133V72.4134H212.433V71.8134ZM205.833 72.1134V102.713H206.433V72.1134H205.833ZM206.133 102.413H190.923V103.013H206.133V102.413ZM191.223 102.713V25.4034H190.623V102.713H191.223ZM207.033 58.4634C208.915 58.4634 210.349 58.1319 211.268 57.4093L210.898 56.9375C210.137 57.5349 208.87 57.8634 207.033 57.8634V58.4634ZM211.27 57.4076C212.233 56.6378 212.836 55.5813 213.088 54.2595L212.498 54.1472C212.27 55.3455 211.733 56.2689 210.896 56.9391L211.27 57.4076ZM213.085 54.2699C213.393 52.9175 213.543 51.0314 213.543 48.6234H212.943C212.943 51.0153 212.793 52.8493 212.5 54.1369L213.085 54.2699ZM213.543 48.6234C213.543 45.3748 213.184 42.9751 212.431 41.4692L211.895 41.7375C212.582 43.1117 212.943 45.392 212.943 48.6234H213.543ZM212.431 41.4692C211.643 39.8926 210.071 39.1434 207.843 39.1434V39.7434C209.935 39.7434 211.243 40.4342 211.895 41.7375L212.431 41.4692ZM207.843 39.1434H206.133V39.7434H207.843V39.1434ZM205.833 39.4434V58.1634H206.433V39.4434H205.833ZM206.133 58.4634H207.033V57.8634H206.133V58.4634Z" fill="white"/>
</svg>
