<svg width="19" height="32" viewBox="0 0 19 32" fill="none" xmlns="http://www.w3.org/2000/svg">
<path d="M18.5002 15.7376C18.442 15.2406 18.2168 14.7781 17.8616 14.4258L4.60477 1.1689C4.39849 0.963715 4.15382 0.801191 3.88472 0.690569C3.61563 0.579947 3.32737 0.523437 3.03643 0.524225C2.74548 0.525011 2.45754 0.583078 2.18904 0.695154C1.92054 0.807228 1.67676 0.971098 1.47159 1.1774C1.26643 1.3837 1.10391 1.62841 0.99332 1.89752C0.882729 2.16664 0.826229 2.45489 0.827047 2.74583C0.827868 3.03678 0.88599 3.32471 0.998095 3.5932C1.1102 3.86168 1.27409 4.10545 1.48041 4.31059L13.1664 15.9966L1.48041 27.6826C1.27409 27.8878 1.1102 28.1315 0.998095 28.4C0.88599 28.6685 0.827868 28.9564 0.827047 29.2474C0.826229 29.5383 0.882729 29.8266 0.99332 30.0957C1.10391 30.3648 1.26643 30.6095 1.47159 30.8158C1.67676 31.0221 1.92054 31.1859 2.18904 31.298C2.45754 31.4101 2.74548 31.4682 3.03643 31.469C3.32737 31.4698 3.61563 31.4132 3.88472 31.3026C4.15382 31.192 4.39849 31.0294 4.60477 30.8242L17.8616 17.5674C18.1001 17.331 18.2815 17.0434 18.3922 16.7263C18.5029 16.4092 18.5398 16.0711 18.5002 15.7376Z" fill="white"/>
</svg>
