<svg width="22" height="20" viewBox="0 0 22 20" fill="none" xmlns="http://www.w3.org/2000/svg">
<path d="M18.3251 7.87204L17.09 10.7915C17.3146 10.9936 17.5167 11.1733 17.6739 11.3305L19.0213 8.16399L19.0887 7.98433V7.96187C19.2234 7.55764 19.2908 7.15341 19.2908 6.72673C19.2908 4.72803 17.6739 3.11111 15.6752 3.11111C13.6765 3.11111 12.0596 4.72803 12.0596 6.72673V7.40044H12.4413H12.8007L12.8231 6.6369C12.868 5.08735 14.1481 3.8522 15.6976 3.8522C17.2696 3.8522 18.5722 5.13226 18.5722 6.72673C18.5722 7.06358 18.5272 7.37798 18.415 7.69238L18.3251 7.87204Z" fill="black"/>
<path d="M15.6505 1.36136C12.6861 1.36136 10.2607 3.78674 10.2607 6.75109H11.0243C11.0243 4.19097 13.1128 2.1249 15.6505 2.1249C18.1881 2.1249 20.2767 4.21342 20.2767 6.75109C20.2767 7.31252 20.1868 7.85149 19.9847 8.36801L19.9623 8.43538L16.5488 16.3852L16.4365 16.6098C15.92 17.5081 14.9543 18.0471 13.9213 18.0471C12.9781 18.0471 12.1247 17.5755 11.5857 16.8793C11.3387 16.9691 11.0917 17.0365 10.8222 17.1039C11.4734 18.1369 12.6188 18.8106 13.9213 18.8106C15.2238 18.8106 16.4365 18.1144 17.0877 16.9916L17.2449 16.6996L20.6809 8.72732L20.7258 8.6375C20.9504 8.03115 21.0627 7.40235 21.0627 6.75109C21.0402 3.78674 18.6148 1.36136 15.6505 1.36136Z" fill="black"/>
<path d="M10.7327 16.3868C11.2043 16.297 11.6759 16.1847 12.1475 16.0275L13.3602 14.8148L16.392 11.7831C16.5716 11.9403 16.7288 12.075 16.8411 12.1873L15.7407 13.2877L13.6297 15.3987C14.1687 15.1292 14.7077 14.8148 15.2242 14.478C15.9428 14.0064 16.5042 13.5348 16.9085 13.153C16.9758 13.1081 17.0208 13.0632 17.0657 13.0182C17.4025 12.7038 17.5822 12.5017 17.6046 12.4793L17.6945 12.367L17.8068 12.2547L17.6046 12.0301C17.5822 12.0077 17.4924 11.8954 17.2902 11.7157C17.2678 11.6933 17.2678 11.6933 17.2453 11.6708C17.133 11.5585 16.9983 11.4462 16.8411 11.289C16.7513 11.2217 16.6614 11.1318 16.5492 11.042C16.4593 10.9746 16.3695 10.8848 16.2572 10.8174C16.1449 10.7276 16.0102 10.6153 15.8754 10.5255C15.853 10.503 15.8305 10.4806 15.7856 10.4581C15.5835 10.3234 15.3814 10.1662 15.1793 10.0314C15.0221 9.91915 14.8424 9.80686 14.6852 9.71703C14.4606 9.58229 14.2361 9.44754 14.0115 9.33526C13.8543 9.24543 13.6746 9.1556 13.5174 9.08823L16.6839 5.92176L15.853 5.24805L12.4395 8.63909C11.384 8.25731 10.351 8.0552 9.34039 8.0552C8.28491 8.0552 7.20696 8.25731 6.10656 8.684C5.23073 9.02086 4.35489 9.47 3.50152 10.0539C2.0418 11.042 1.14351 12.0077 1.0986 12.0526L0.896484 12.2772L1.0986 12.5017C1.14351 12.5466 2.0418 13.5123 3.50152 14.5004C3.70364 14.6352 3.92821 14.7699 4.13032 14.9046C4.57947 15.1741 5.00615 15.3987 5.4553 15.6008L1.92952 19.1715H3.47906L6.60062 16.05L7.38662 15.264L7.99296 14.6576L8.46456 14.186L11.2268 11.4238L11.6984 10.9522L12.3047 10.3458L12.7763 9.87423L13.0234 9.6272C13.1806 9.69457 13.3602 9.7844 13.5174 9.87423L13.0458 10.3458L12.5518 10.8399L7.85822 15.5334L7.16205 16.2296C7.45399 16.297 7.74593 16.3644 8.03788 16.4093L8.64422 15.8029L12.8437 11.6034L13.3827 11.0645L14.2136 10.2335C14.3708 10.3234 14.5505 10.4357 14.7077 10.5479L13.5399 11.7157L12.9335 12.3221L9.40777 15.8478L8.77896 16.4767C8.86879 16.4767 8.98108 16.4991 9.07091 16.4991C9.16074 16.4991 9.27302 16.4991 9.36285 16.4991C9.52005 16.4991 9.67725 16.4991 9.812 16.4767L10.7103 15.5784L12.6416 13.647L13.5399 12.7488L15.314 10.9746C15.4488 11.0645 15.561 11.1543 15.6733 11.2441C15.7182 11.2666 15.7407 11.289 15.7632 11.334L13.2929 13.8267L10.7327 16.3868ZM9.27302 8.70646C9.29548 8.70646 9.34039 8.70646 9.36285 8.70646C9.38531 8.70646 9.43022 8.70646 9.45268 8.70646C10.2611 8.72891 11.0022 9.02086 11.5861 9.49246L10.9798 10.0988C10.5306 9.76195 9.94674 9.55983 9.34039 9.55983C7.83576 9.55983 6.60062 10.795 6.60062 12.2996C6.60062 12.3445 6.60062 12.4119 6.60062 12.4568C6.62307 13.0182 6.82519 13.5123 7.13959 13.939L6.53324 14.5453C6.21884 14.1636 5.99427 13.692 5.85953 13.1979C5.79216 12.906 5.74724 12.614 5.74724 12.2996C5.79216 10.3458 7.3417 8.75137 9.27302 8.70646ZM4.64684 14.433C4.39981 14.2983 4.15278 14.1411 3.90575 13.9839C2.91763 13.3102 2.17655 12.6365 1.81723 12.2996C2.15409 11.9628 2.89518 11.289 3.88329 10.6153C4.69175 10.0539 5.52267 9.6272 6.35359 9.3128C5.59004 10.0763 5.11844 11.1318 5.11844 12.2996C5.11844 12.7937 5.20827 13.2653 5.36547 13.7144C5.52267 14.186 5.79216 14.6127 6.10656 14.9945L5.97181 15.1068C5.52267 14.9271 5.07353 14.7025 4.64684 14.433ZM7.63365 13.4449C7.40908 13.1081 7.27433 12.7038 7.27433 12.2772C7.27433 12.075 7.29679 11.8954 7.36416 11.7157C7.61119 10.8399 8.41965 10.2111 9.36285 10.2111C9.78954 10.2111 10.1938 10.3458 10.5306 10.5704L7.63365 13.4449Z" fill="black"/>
<path d="M19.9608 2.86518L21.937 0.888947H20.3875L19.1299 2.14655C19.4443 2.34867 19.7138 2.59569 19.9608 2.86518Z" fill="black"/>
</svg>
